<svg width="56" height="56" viewBox="0 0 56 56" fill="none" xmlns="http://www.w3.org/2000/svg">
<path fill-rule="evenodd" clip-rule="evenodd" d="M15.5 12H9.5C9.22386 12 9 11.7761 9 11.5V9.5C9 9.22386 9.22386 9 9.5 9H15.5C17.433 9 19 10.567 19 12.5V19H26.5L30 22H19V33.5C19 33.7761 19.2239 34 19.5 34H37.3C37.4847 34 37.6543 33.8982 37.7412 33.7353L43.6078 22.7353C43.7855 22.4022 43.5441 22 43.1667 22H38L41 19H43.1667C45.8089 19 47.4983 21.8157 46.2549 24.1471L40.3882 35.1471C39.78 36.2876 38.5926 37 37.3 37H19.5C17.567 37 16 35.433 16 33.5V12.5C16 12.2239 15.7761 12 15.5 12Z" fill="#421983"/>
<circle cx="19.5" cy="43.5" r="3.5" fill="#421983"/>
<circle cx="34.5" cy="43.5" r="3.5" fill="#421983"/>
<path d="M33.65 16.95L29.35 12.65C29.15 12.45 28.95 12.45 28.75 12.65L27.15 14.25C26.95 14.45 26.95 14.65 27.15 14.85L33.25 20.95C33.45 21.15 33.65 21.15 33.85 20.95L43.45 11.35C43.65 11.15 43.65 10.95 43.45 10.75L41.85 9.15C41.65 8.95 41.45 8.95 41.25 9.15L33.65 16.95Z" fill="#FF642D"/>
</svg>
