<svg width="56" height="56" viewBox="0 0 56 56" fill="none" xmlns="http://www.w3.org/2000/svg">
<path d="M29.7 18H19.5C19.3 18 19.1 17.8 19.1 17.6V16.4C19.1 16.2 19.3 16 19.5 16H29.7C29.9 16 30.1 16.2 30.1 16.4V17.6C30 17.8 29.9 18 29.7 18Z" fill="#421983"/>
<path d="M24.7 23H19.5C19.3 23 19.1 22.8 19.1 22.6V21.4C19.1 21.2 19.3 21 19.5 21H24.7C24.9 21 25.1 21.2 25.1 21.4V22.6C25 22.8 24.9 23 24.7 23Z" fill="#421983"/>
<path d="M26 40H19.5C19.3 40 19.1 39.8 19.1 39.6V33C19.1 32.9 19.1 32.8 19.2 32.7L38.5 13.5C38.7 13.3 38.9 13.3 39.1 13.5L40.7 15.1C40.9 15.3 40.9 15.5 40.7 15.7L22.2 34.2V37.1H25L43.5 18.6C43.7 18.4 43.9 18.4 44.1 18.6L45.7 20.2C45.9 20.4 45.9 20.6 45.7 20.8L26.4 40.1C26.2 40 26.1 40 26 40Z" fill="#FF642D"/>
<path d="M12 12.9V39.6C12 39.8 12.2 40 12.4 40H14.6C14.8 40 15 39.8 15 39.6V12.9C15 12.4 15.4 12 15.9 12H35.6C35.8 12 36 11.8 36 11.6V9.4C36 9.2 35.8 9 35.6 9H15.9C13.8 9 12 10.7 12 12.9Z" fill="#421983"/>
<path d="M43 43.1V30.4C43 30.2 42.8 30 42.6 30H40.4C40.2 30 40 30.2 40 30.4V43.1C40 43.6 39.6 44 39.1 44H19.4C19.2 44 19 44.2 19 44.4V46.6C19 46.8 19.2 47 19.4 47H39.1C41.3 47 43 45.3 43 43.1Z" fill="#421983"/>
</svg>
