<svg width="56" height="56" viewBox="0 0 56 56" fill="none" xmlns="http://www.w3.org/2000/svg">
<path fill-rule="evenodd" clip-rule="evenodd" d="M27 12C30.0075 12 32.4722 14.1799 32.9254 17H21.0746C21.5278 14.1799 23.9925 12 27 12ZM18.0489 17C18.5208 12.5046 22.3483 9 27 9C31.6517 9 35.4792 12.5046 35.9511 17H37.0613C38.7982 17 40.2723 18.2738 40.5243 19.9923L40.9086 22.4219C40.9566 22.7254 40.722 23 40.4147 23H38.4211C38.1778 23 37.9698 22.8248 37.9284 22.585L37.556 20.4275C37.52 20.182 37.3094 20 37.0613 20H35.7592H18.2408H17.8067C17.5557 20 17.3437 20.186 17.3109 20.4348L14.2846 43.4348C14.2452 43.7342 14.4783 44 14.7804 44H27.0144C27.2751 44 27.5255 44.1018 27.7122 44.2838L29.6193 46.1419C29.9406 46.4549 29.7189 47 29.2704 47H14.7804C12.666 47 11.0344 45.1397 11.3103 43.0434L14.3366 20.0434C14.5657 18.3019 16.0502 17 17.8067 17H18.0489Z" fill="#421983"/>
<path fill-rule="evenodd" clip-rule="evenodd" d="M36.632 35.6452C36.5309 35.6452 36.4432 35.7233 36.4432 35.8244L36.4432 37.5808C36.4432 37.6866 36.5262 37.7742 36.632 37.7742V37.7742C38.7876 37.7742 40.5352 36.0267 40.5352 33.871C40.5352 31.7153 38.7876 29.9677 36.632 29.9677C34.7936 29.9677 33.2521 31.2386 32.8381 32.9498C32.7655 33.2497 33.0105 33.5161 33.3191 33.5161H34.4641C34.7138 33.5161 34.9216 33.3355 35.0288 33.11C35.3136 32.5109 35.9244 32.0968 36.632 32.0968C37.6118 32.0968 38.4061 32.8911 38.4061 33.871C38.4061 34.8508 37.6118 35.6452 36.632 35.6452V35.6452Z" fill="#FF642D"/>
<path fill-rule="evenodd" clip-rule="evenodd" d="M36.4435 27.8059C32.8286 27.8059 30.0564 30.5009 30.0564 33.6385C30.0564 36.3468 31.7098 38.9402 33.589 40.9772C34.5064 41.9716 35.4281 42.7797 36.1214 43.3392C36.2539 43.4461 36.3777 43.5437 36.4911 43.6314C36.5925 43.5605 36.702 43.4824 36.8184 43.3972C37.5021 42.8966 38.4122 42.16 39.3183 41.2186C41.1542 39.3111 42.8306 36.7159 42.8306 33.6385C42.8306 30.5009 40.0583 27.8059 36.4435 27.8059ZM36.4435 45.3427C35.6482 46.5048 35.6475 46.5043 35.6475 46.5043L35.6466 46.5037L35.6442 46.5021L35.6372 46.4974L35.615 46.4823C35.5966 46.4697 35.5709 46.4521 35.5384 46.4295C35.4735 46.3843 35.3816 46.3193 35.2664 46.2355C35.0361 46.0679 34.7123 45.8244 34.326 45.5126C33.5556 44.8909 32.5257 43.9888 31.4915 42.8678C29.4675 40.6739 27.2177 37.4152 27.2177 33.6385C27.2177 28.784 31.4356 25 36.4435 25C41.4514 25 45.6693 28.784 45.6693 33.6385C45.6693 37.7476 43.4424 41.0045 41.375 43.1525C40.3295 44.2388 39.288 45.0808 38.508 45.6519C38.1169 45.9383 37.7885 46.1587 37.5541 46.3098C37.4368 46.3854 37.3428 46.4437 37.276 46.4844C37.2426 46.5048 37.2159 46.5208 37.1966 46.5323L37.173 46.5462L37.1654 46.5507L37.1615 46.5529C37.1615 46.5529 37.1606 46.5534 36.4435 45.3427ZM36.4435 45.3427L37.1606 46.5534L36.3889 47L35.6482 46.5048L36.4435 45.3427Z" fill="#FF642D"/>
</svg>
