<svg width="56" height="56" viewBox="0 0 56 56" fill="none" xmlns="http://www.w3.org/2000/svg">
<path d="M47.6 37H45V32.4C45 32.2 44.8 32 44.6 32H42.4C42.2 32 42 32.2 42 32.4V37H14V15.9C14 15.4 14.4 15 14.9 15H25.6C25.8 15 26 14.8 26 14.6V12.4C26 12.2 25.8 12 25.6 12H14.9C12.7 12 11 13.7 11 15.9V37H8.40002C8.20002 37 8 37.2 8 37.4V39.6C8 39.8 8.20002 40 8.40002 40H25.6L21 44.6C20.8 44.8 20.8 45 21 45.2L22.6 46.8C22.8 47 23 47 23.2 46.8L28.1 41.9L33 46.8C33.2 47 33.4 47 33.6 46.8L35.2 45.2C35.4 45 35.4 44.8 35.2 44.6L30.6 40H47.8C48 40 48.2 39.8 48.2 39.6V37.4C48 37.2 47.8 37 47.6 37Z" fill="#421983"/>
<path d="M17 33.6C17 33.8 17.2 34 17.4 34H28.6C28.8 34 29 33.8 29 33.6V32.4C29 32.2 28.8 32 28.6 32H17.4C17.2 32 17 32.2 17 32.4V33.6Z" fill="#421983"/>
<path d="M17.3 29H22.5C22.7 29 22.9 28.8 22.9 28.6V27.4C22.9 27.2 22.7 27 22.5 27H17.3C17.1 27 16.9 27.2 16.9 27.4V28.6C17 28.8 17.1 29 17.3 29Z" fill="#421983"/>
<path d="M40 19.2C41.5 17.8 42.3 15.6 41.9 13.3C41.4 10.7 39.4 8.70001 36.8 8.20001C32.6 7.40001 29 10.6 29 14.6C29 16.4 29.8 18.1 31 19.3C28 20.9 26 24 26 27.6V28.7C26 28.9 26.2 29.1 26.4 29.1H28.6C28.8 29.1 29 28.9 29 28.7V27.8C29 24.5 31.4 21.5 34.6 21.1C38.6 20.6 42 23.7 42 27.5V28.6C42 28.8 42.2 29 42.4 29H44.6C44.8 29 45 28.8 45 28.6V27.5C45 23.9 42.9 20.8 40 19.2ZM35.4 18C33.5 18 31.9 16.4 31.9 14.5C31.9 12.6 33.5 11 35.4 11C37.3 11 38.9 12.6 38.9 14.5C38.9 16.4 37.4 18 35.4 18Z" fill="#FF642D"/>
</svg>
