<svg width="1500" height="1500" viewBox="0 0 1500 1500" fill="none" xmlns="http://www.w3.org/2000/svg">
<path d="M477.762 504.739C477.762 504.739 352.55 457.239 333.396 490.38C333.396 490.38 326.889 501.822 352.747 510.326C352.747 510.326 290.945 505.283 287.56 523.562C284.174 541.841 309.325 541.842 309.325 541.842C309.325 541.842 50.5579 621.351 52.2444 656.527C53.9308 691.702 352.388 649.24 352.388 649.24C352.388 649.24 335.402 672.38 345 678.646C354.599 684.912 387.964 669.034 401.463 653.499C401.463 653.499 375.963 687.443 393.022 691.151C410.08 694.859 488.35 667.024 514.054 631.928C539.759 596.832 477.762 504.739 477.762 504.739Z" fill="url(#paint0_linear_200_2)"/>
<path d="M480.788 530.501C480.788 530.501 411.062 497.822 401.078 512.077C391.095 526.331 414.289 536.976 414.289 536.976C414.289 536.976 348.011 514.58 344.492 533.056C340.891 551.548 366.796 554.995 366.796 554.995L131.302 634.527C125.906 636.257 127.555 644.321 133.257 643.729L381.237 617.127C381.237 617.127 367.53 634.241 376.977 638.398C386.505 642.54 440.661 614.76 440.661 614.76C440.661 614.76 418.863 638.234 426.008 647.286C433.168 656.42 501.384 612.911 501.384 612.911L480.788 530.501Z" fill="url(#paint1_linear_200_2)"/>
<path d="M485.137 357.449L633.503 425.098L520.59 473.252L326.472 402.153C309.527 395.943 291.506 393.448 273.528 394.709C259.605 395.697 245.778 391.448 234.793 382.885L226.809 376.562L439.824 349.21C455.352 347.226 471.131 350.07 485.137 357.449Z" fill="url(#paint2_linear_200_2)"/>
<path d="M477.718 380.959L607.975 435.95L633.504 425.098L485.137 357.449C471.229 350.136 455.368 347.308 439.758 349.308L226.727 376.578L234.711 382.901C245.712 391.547 259.523 395.713 273.446 394.725L434.633 374.94C449.336 373.116 464.114 375.212 477.718 380.959Z" fill="url(#paint3_linear_200_2)"/>
<path d="M562.222 636.363L532.086 643.745C525.967 645.274 519.503 643.704 514.701 639.673C512.258 637.666 509.965 635.544 507.754 633.406C504.806 630.556 502.089 627.575 499.538 624.562C495.073 619.183 491.169 613.609 488.008 607.891C486.198 604.735 484.553 601.546 483.073 598.325C480.39 592.43 478.202 586.438 476.541 580.515C475.54 577.116 474.786 573.669 474.064 570.387C472.817 563.956 471.948 557.708 471.539 551.628C471.264 548.003 471.17 544.428 471.108 541.018C471.018 533.935 471.436 527.267 472.014 521.423C472.417 517.324 472.983 513.622 473.447 510.281C473.736 508.685 473.959 507.187 474.297 505.839C475.556 499.093 480.216 493.57 486.671 491.121L519.705 478.386L562.222 636.363Z" fill="url(#paint4_linear_200_2)"/>
<path d="M525.537 508.909L472.015 521.423C472.418 517.325 472.983 513.622 473.448 510.281L523.044 498.698L525.537 508.909Z" fill="url(#paint5_linear_200_2)"/>
<path d="M531.772 537.556L471.537 551.629C471.262 548.004 471.168 544.429 471.106 541.019L529.362 527.33L531.772 537.556Z" fill="url(#paint6_linear_200_2)"/>
<path d="M538.096 566.186L476.557 580.598C475.556 577.199 474.803 573.752 474.081 570.47L535.619 556.059L538.096 566.186Z" fill="url(#paint7_linear_200_2)"/>
<path d="M544.334 594.833L487.958 608.072C486.148 604.916 484.504 601.727 483.024 598.506L541.94 584.689L544.334 594.833Z" fill="url(#paint8_linear_200_2)"/>
<path d="M550.653 623.464L507.769 633.488C504.821 630.638 502.105 627.657 499.553 624.644L548.243 613.237L550.653 623.464Z" fill="url(#paint9_linear_200_2)"/>
<path d="M564.948 643.363C564.948 643.363 519.038 752.953 426.381 804.536C423.06 806.378 421.702 810.405 423.065 813.905C424.558 817.637 428.615 819.588 432.394 818.342L547.409 782.356C599.669 765.98 643.92 730.796 671.64 683.589L708.826 620.346L564.948 643.363Z" fill="url(#paint10_linear_200_2)"/>
<path d="M467.001 776.216C507.614 768.599 619.968 745.363 672.737 626.144L599.553 637.852L564.866 643.379C564.948 643.363 532.504 720.914 467.001 776.216Z" fill="url(#paint11_linear_200_2)"/>
<path d="M1331.28 388.288C1320.66 399.673 1308.04 411.359 1294.15 423.119C1232.55 475.183 1146.12 527.528 1092.98 556.137C1056.81 575.639 1017.28 588.434 976.487 593.777L914.013 602.039L909.678 602.623L863.045 608.755L834.512 612.49L574.084 646.809C566.749 647.804 559.484 645.191 554.36 639.94C517.571 602.416 507.244 563.269 506.804 531.873C506.757 525.894 507.021 520.196 507.53 514.879C508.161 508.426 509.135 502.42 510.32 497.058C510.37 496.877 510.421 496.696 510.471 496.515C512.062 489.277 513.96 483.178 515.551 478.592C517.696 472.444 522.386 467.514 528.397 464.98L879.483 315.817C912.293 301.928 947.097 293.47 982.442 290.895C1002.84 289.335 1023.38 289.802 1043.77 292.179C1186.35 308.767 1268.62 323.187 1313.66 332.677C1339.24 337.983 1349.13 369.172 1331.28 388.288Z" fill="url(#paint12_linear_200_2)"/>
<path opacity="0.1" d="M1193.47 496.446C1074.21 535.223 812.474 606.924 524.619 599.937C531.722 613.189 541.427 626.621 554.443 639.924C559.567 645.175 566.914 647.772 574.167 646.793L834.595 612.474L863.128 608.739L909.76 602.607L914.096 602.023L976.569 593.761C1017.37 588.418 1056.82 575.721 1093.06 556.121C1120.32 541.425 1156.45 520.391 1193.47 496.446Z" fill="url(#paint13_linear_200_2)"/>
<path opacity="0.5" d="M602.771 433.367C600.244 434.455 555.004 581.471 635.159 638.819L589.531 644.841C589.531 644.841 506.698 569.706 559.31 451.887L602.771 433.367Z" fill="#5BA8D3"/>
<path d="M909.844 602.591L863.211 608.723L834.678 612.458C829.429 608.771 824.164 605.001 818.915 601.313L802.251 589.487L793.934 583.657C791.473 581.995 789.162 580.219 786.634 578.656C776.658 572.206 765.967 566.922 754.874 562.656C743.781 558.391 732.221 555.243 720.389 553.344C717.394 552.898 714.482 552.437 711.436 552.172C710.021 551.933 708.374 551.824 706.63 551.649L701.493 551.19L681.196 549.308C627.136 544.048 572.978 538.721 518.839 533.048C514.822 532.629 510.904 532.277 506.888 531.858C506.841 525.878 507.105 520.181 507.614 514.864C508.245 508.411 509.219 502.405 510.404 497.042C510.454 496.861 510.505 496.68 510.555 496.5C514.178 496.653 517.801 496.806 521.423 496.959C575.799 498.993 630.171 501.455 684.56 504L704.945 505.01L710.049 505.303C711.696 505.412 713.424 505.505 715.417 505.632C719.22 505.835 722.973 506.22 726.825 506.671C741.968 508.44 756.904 511.79 771.468 516.751C785.949 521.728 799.944 528.169 813.124 536.136C816.406 538.066 819.639 540.177 822.871 542.288L831.27 548.102L848.051 559.649C868.656 573.705 889.324 588.091 909.844 602.591Z" fill="url(#paint14_linear_200_2)"/>
<path d="M1152.93 305.836C1152.93 305.836 1078.76 405.591 1189.52 499.009L1154.43 521.894C1154.43 521.894 1070.95 484.869 1078.68 395C1085.41 317.214 1117.62 301.131 1117.62 301.131L1152.93 305.836Z" fill="url(#paint15_linear_200_2)"/>
<path opacity="0.3" d="M1331.28 388.288C1320.66 399.673 1308.04 411.359 1294.15 423.119C1313.96 380.099 1282.57 356.327 1223.88 338.192C1180 324.542 1054.12 302.749 982.428 290.812C1002.83 289.253 1023.36 289.72 1043.76 292.097C1186.33 308.685 1268.6 323.105 1313.64 332.595C1339.24 337.984 1349.14 369.172 1331.28 388.288Z" fill="white"/>
<path d="M945.597 547.411C878.803 559.419 818.308 533.762 810.512 490.019C802.716 446.275 850.435 401.179 917.147 389.187C983.86 377.195 1044.44 402.836 1052.23 446.579C1060.03 490.323 1012.31 535.418 945.597 547.411Z" fill="url(#paint16_linear_200_2)"/>
<path d="M941.258 523.271C940.516 523.415 939.857 523.543 939.099 523.604C896.068 530.663 857.206 515.099 848.569 488.2C848.018 486.682 847.616 485.049 847.379 483.384C846.102 476.36 846.951 469.266 849.545 462.347C850.332 460.227 851.299 458.157 852.432 456.056C856.278 448.979 862 442.309 869.167 436.472C871.302 434.689 873.618 432.957 875.95 431.307C888.353 422.914 904.039 416.451 921.566 413.31L922.06 413.214C966.315 405.404 1006.47 421.487 1014.55 449.436C1014.95 450.641 1015.19 451.878 1015.45 453.197C1017.26 463.452 1014.73 473.781 1008.79 483.316C1007.48 485.367 1006 487.45 1004.41 489.384C999.018 495.99 991.998 502.142 983.518 507.379C981.071 508.88 978.46 510.413 975.816 511.781C965.54 517.024 953.905 520.99 941.258 523.271Z" fill="url(#paint17_linear_200_2)"/>
<path opacity="0.1" d="M1008.71 483.332L875.967 431.39C888.37 422.997 904.055 416.534 921.582 413.393L922.077 413.297L1014.56 449.519C1014.97 450.724 1015.21 451.961 1015.46 453.28C1017.18 463.469 1014.65 473.798 1008.71 483.332Z" fill="white"/>
<path opacity="0.1" d="M983.453 507.478L852.367 456.155C856.214 449.079 861.936 442.409 869.102 436.571L1004.35 489.484C998.954 496.09 991.851 502.257 983.453 507.478Z" fill="white"/>
<path opacity="0.1" d="M941.259 523.271C940.517 523.415 939.857 523.543 939.099 523.604L848.57 488.201C848.019 486.682 847.616 485.049 847.379 483.384C846.103 476.36 846.952 469.266 849.546 462.347L975.801 511.698C965.541 517.024 953.906 520.99 941.259 523.271Z" fill="white"/>
<path d="M733.925 171.314C733.925 171.314 735.149 242.937 789.053 252.249C842.957 261.56 831.386 285.276 831.386 285.276L961.741 245.461L733.925 171.314Z" fill="url(#paint18_linear_200_2)"/>
<path d="M793.852 228.905C765.194 217.436 768.378 191.497 770.173 183.107L733.925 171.314C733.925 171.314 735.149 242.937 789.053 252.249C827.111 258.815 832.515 272.567 832.437 280.11L841.532 265.686C840.045 255.366 828.162 242.613 793.852 228.905Z" fill="url(#paint19_linear_200_2)"/>
<path d="M868.46 367.059L939.375 329.528C939.375 329.528 1008.3 360.308 1049.78 292.725C1052.11 288.852 1052.47 284.077 1050.71 279.883C1049.25 276.317 1046.32 273.549 1042.71 272.111L992.651 252.643C972.586 244.899 950.79 242.794 929.569 246.737C886.796 254.687 803.659 264.474 712.525 244.928C712.525 244.928 713.245 259.674 728.486 278.277C728.486 278.277 650.431 250.293 603.541 319.524C603.541 319.524 554.395 299.452 532.9 271.539C532.9 271.539 489.232 358.709 567.549 373.04C567.549 373.04 570.509 404.632 611.617 391.187C611.617 391.187 614.018 405.778 633.569 419.696C638.736 423.4 641.35 429.823 639.814 436.023C639.426 437.553 638.906 439.279 638.302 441.021C636.043 447.02 637.535 453.831 642.303 458.125C660.293 474.143 700.152 513.381 709.535 553.395C710.563 557.815 713.357 561.637 717.496 563.572C721.914 565.624 728.056 565.973 735.113 559.13C749.211 545.361 741.253 484.454 694.42 443.659C694.42 443.659 729.091 435.397 737.467 411.531C737.467 411.531 775.405 407.769 802.156 393.515C802.156 393.515 819.199 503.048 884.371 514.881C888.27 515.579 892.324 515.306 895.924 513.582C902.267 510.556 909.148 502.805 900.982 482.745C887.846 450.73 853.964 437.024 868.46 367.059Z" fill="url(#paint20_linear_200_2)"/>
<path opacity="0.3" d="M834.489 311.878C834.489 311.878 857.638 307.732 868.634 300.467C879.631 293.203 895.333 297.858 904.221 293.397C913.124 289.019 923.452 280.515 935.868 286.749C935.868 286.749 926.417 277.716 914.237 284.612C902.058 291.507 888.176 290.947 880.449 291.247C866.956 291.81 856.004 302.83 840.128 305.224C829.396 306.791 810.059 306.776 794.52 302.517C794.536 302.599 820.054 312.88 834.489 311.878Z" fill="#F87C38"/>
<path d="M747.356 251.179C735.918 249.547 724.236 247.534 712.458 245.027C712.458 245.027 713.178 259.773 728.419 278.376C728.419 278.376 766.712 328.954 834.476 311.796C834.492 311.878 771.92 303.306 747.356 251.179Z" fill="url(#paint21_linear_200_2)"/>
<path d="M532.832 271.638C532.832 271.638 525.431 286.418 522.16 304.846C549.507 343.088 597.338 343.14 597.338 343.14C597.255 332.121 603.472 319.623 603.472 319.623C603.472 319.623 554.326 299.551 532.832 271.638Z" fill="url(#paint22_linear_200_2)"/>
<path opacity="0.3" d="M615.491 353.821C615.491 353.821 599.879 367.285 601.518 393.829C604.585 393.32 607.933 392.5 611.547 391.286C611.563 391.368 605.436 369.03 615.491 353.821Z" fill="#F87C38"/>
<path opacity="0.3" d="M803.162 365.174C791.07 371.197 760.867 376.026 750.893 377.532C747.646 355.491 736.189 343.169 736.189 343.169C755.737 380.015 737.482 411.614 737.482 411.614C737.482 411.614 739.41 411.411 742.74 410.936C742.822 410.92 742.905 410.904 742.905 410.904C744.652 410.651 746.812 410.318 749.301 409.921L749.285 409.839C762.509 407.446 785.14 401.946 802.171 393.597C802.171 393.597 798.525 377.879 803.162 365.174Z" fill="#F87C38"/>
<path opacity="0.3" d="M868.459 367.058L875.597 363.279C874.836 355.385 875.344 344.764 875.344 344.764C871.285 354.277 868.459 367.058 868.459 367.058Z" fill="#F87C38"/>
<path d="M672.32 445.291C672.32 445.291 711.882 462.259 738.63 515.503C733.165 492.609 719.243 465.366 694.449 443.824C694.449 443.824 683.037 446.293 672.32 445.291Z" fill="url(#paint23_linear_200_2)"/>
<path opacity="0.3" d="M939.374 329.528C939.374 329.528 919.72 319.052 911.797 313.487C911.797 313.487 914.326 328.738 926.024 336.565L939.374 329.528Z" fill="#F87C38"/>
<path d="M1009.39 329.728C988.267 339.042 967.18 337.056 953.757 334.012C954.049 323.604 958.832 314.293 966.357 308.984C969.583 306.648 973.396 305.139 977.468 304.521C987.211 303.145 996.54 307.581 1002.77 315.442C1005.92 319.364 1008.25 324.303 1009.39 329.728Z" fill="url(#paint24_linear_200_2)"/>
<path d="M958.451 317.618C955.606 322.361 953.876 328 953.758 334.012C965.026 336.532 981.717 338.344 999.387 333.293C987.079 320.109 966.552 317.929 958.451 317.618Z" fill="url(#paint25_linear_200_2)"/>
<path d="M1002.77 315.442C987.648 315.978 974.133 312.011 966.36 308.984C969.585 306.648 973.399 305.139 977.471 304.52C987.214 303.145 996.543 307.581 1002.77 315.442Z" fill="url(#paint26_linear_200_2)"/>
<path d="M972.286 295.431C978.98 294.133 983.354 287.655 982.057 280.961C980.759 274.267 974.281 269.893 967.587 271.191C960.893 272.488 956.519 278.967 957.816 285.66C959.114 292.354 965.593 296.728 972.286 295.431Z" fill="url(#paint27_linear_200_2)"/>
<path d="M974.481 283.37C975.847 283.105 976.74 281.783 976.475 280.417C976.21 279.051 974.888 278.158 973.522 278.423C972.156 278.688 971.264 280.01 971.528 281.376C971.793 282.742 973.115 283.635 974.481 283.37Z" fill="white"/>
<path d="M947.393 262.786C951.788 260.308 956.573 258.953 961.467 258.603C966.279 258.269 971.149 259.122 975.469 261.107C977.161 261.891 977.89 263.889 977.106 265.58C976.455 267.075 974.886 267.807 973.372 267.502L973.29 267.518C966.249 266.06 959.02 268.488 954.136 272.857C951.668 275.132 947.782 274.944 945.507 272.476C943.232 270.009 943.42 266.123 945.887 263.848C946.252 263.521 946.632 263.276 947.012 263.031L947.393 262.786Z" fill="#F87C38"/>
<path opacity="0.5" d="M940.091 238.366L733.925 171.314C733.925 171.314 734.047 178.562 735.93 188.719L940.091 238.366Z" fill="#FFCA83"/>
<path opacity="0.5" d="M904.705 250.873C858.548 257.255 788.341 261.37 712.473 245.109C712.473 245.109 712.861 251.964 717.856 262.287C748.53 264.297 847.556 269.395 904.705 250.873Z" fill="#FFCA83"/>
<path d="M725.42 566.057C725.256 566.089 725.173 566.105 724.992 566.054C724.367 565.919 723.909 565.323 724.045 564.698C728.072 540.905 716.77 527.612 716.655 527.463C716.213 526.95 716.234 526.176 716.748 525.734C717.261 525.293 718.035 525.314 718.477 525.827C719.017 526.407 730.663 540.146 726.415 565.009C726.263 565.551 725.915 565.961 725.42 566.057Z" fill="#F87C38"/>
<path d="M738.426 555.921C738.343 555.937 738.261 555.953 738.096 555.985C737.404 555.948 736.947 555.352 736.984 554.661C738.583 532.023 727.328 518.977 727.214 518.828C726.772 518.315 726.793 517.541 727.306 517.099C727.819 516.657 728.593 516.679 729.035 517.192C729.493 517.787 741.043 531.032 739.404 554.79C739.433 555.383 739.003 555.809 738.426 555.921Z" fill="#F87C38"/>
<path d="M889.728 516.494C889.563 516.526 889.398 516.558 889.218 516.507C868.201 510.915 858.493 495.259 858.102 494.565C857.743 494.036 857.928 493.23 858.474 492.953C859.003 492.594 859.809 492.78 860.086 493.325C860.2 493.474 869.761 508.816 889.791 514.172C890.417 514.307 890.808 515.001 890.672 515.626C890.587 516.071 890.141 516.414 889.728 516.494Z" fill="#F87C38"/>
<path d="M902.719 508.929C902.554 508.961 902.389 508.993 902.209 508.942C882.54 503.687 870.749 486.553 870.26 485.793C869.901 485.264 870.004 484.474 870.616 484.098C871.145 483.739 871.935 483.843 872.31 484.454C872.424 484.603 884.101 501.588 902.865 506.591C903.49 506.726 903.881 507.42 903.746 508.045C903.578 508.505 903.214 508.833 902.719 508.929Z" fill="#F87C38"/>
<path d="M1050.63 279.9C1050.17 278.876 1049.55 277.884 1048.87 276.99C1045.13 277.545 1040.56 277.831 1037.17 277.975C1034.61 278.043 1032.92 280.767 1033.97 283.128C1037.41 290.248 1044.79 292.153 1049.76 292.643C1052.09 288.77 1052.37 284.011 1050.63 279.9Z" fill="#F87C38"/>
<path d="M1320.3 334.726C1320.3 334.726 1303.94 363.305 1335.43 382.779L1460.44 330.398C1466.06 328.026 1463.85 319.729 1457.88 320.286L1320.3 334.726Z" fill="url(#paint28_linear_200_2)"/>
<path d="M1294.26 1217.89H258.65C241.937 1217.89 228.416 1204.36 228.416 1187.65V616.474C228.416 599.761 241.937 586.24 258.65 586.24H1294.26C1310.97 586.24 1324.5 599.761 1324.5 616.474V1187.74C1324.41 1204.36 1310.89 1217.89 1294.26 1217.89Z" fill="#8A8A8A"/>
<path d="M1294.26 1217.89H258.65C241.937 1217.89 228.416 1204.36 228.416 1187.65V616.474C228.416 599.761 241.937 586.24 258.65 586.24H1294.26C1310.97 586.24 1324.5 599.761 1324.5 616.474V1187.74C1324.41 1204.36 1310.89 1217.89 1294.26 1217.89Z" fill="url(#paint29_linear_200_2)"/>
<path d="M649.847 1129.87H287.539C279.057 1129.87 272.17 1122.98 272.17 1114.5V690.633C272.17 682.15 279.057 675.264 287.539 675.264H649.847C658.33 675.264 665.216 682.15 665.216 690.633V1114.59C665.216 1122.98 658.33 1129.87 649.847 1129.87Z" fill="url(#paint30_linear_200_2)"/>
<path d="M468.693 1006.58C548.333 1006.58 612.894 942.02 612.894 862.38C612.894 782.74 548.333 718.179 468.693 718.179C389.053 718.179 324.492 782.74 324.492 862.38C324.492 942.02 389.053 1006.58 468.693 1006.58Z" fill="url(#paint31_linear_200_2)"/>
<path opacity="0.3" d="M359.094 885.727C359.094 806.11 423.678 741.526 503.295 741.526C525.635 741.526 546.799 746.649 565.695 755.72C540.08 732.372 506.066 718.179 468.693 718.179C389.076 718.179 324.492 782.763 324.492 862.38C324.492 919.657 357.918 969.124 406.293 992.388C377.318 966.016 359.094 928.056 359.094 885.727Z" fill="url(#paint32_linear_200_2)"/>
<path d="M603.907 893.79C603.907 902.776 602.648 901.516 601.304 906.639C600.548 909.663 601.556 913.61 603.068 914.702C607.015 904.54 609.87 893.874 611.382 882.788C608.946 883.88 603.907 887.071 603.907 893.79Z" fill="#5BA8D3"/>
<path d="M375.471 943.844C376.73 939.981 374.211 936.118 375.471 933.598C376.73 930.995 376.73 934.858 380.594 936.202C384.457 937.461 383.197 929.819 386.977 923.352C390.84 916.969 392.1 906.639 397.223 906.639C402.346 906.639 413.935 907.899 413.935 900.256C413.935 892.614 413.935 882.284 417.799 878.421C421.662 874.557 426.785 869.434 428.045 865.571C429.305 861.708 416.539 864.311 408.812 857.844C401.086 851.462 399.826 851.462 395.963 852.721C392.1 853.981 388.236 841.215 376.73 836.008C365.225 830.885 357.498 830.885 349.771 828.282C343.053 826.014 334.318 824.755 328.775 827.106C325.92 838.36 324.408 850.202 324.408 862.38C324.408 864.731 324.492 867.167 324.576 869.518C326.508 872.458 329.111 875.061 334.318 879.68C344.564 888.667 348.428 883.544 345.824 898.913C344.312 908.151 344.145 922.008 342.297 932.17C346.496 939.645 351.283 946.784 356.658 953.418C357.414 952.075 358.422 951.067 359.934 950.311C365.225 947.708 374.211 947.708 375.471 943.844Z" fill="#5BA8D3"/>
<path d="M601.305 825.762C587.195 825.762 588.455 820.639 585.936 806.53C583.416 792.421 575.69 786.038 562.84 779.571C549.99 773.188 548.731 778.311 539.744 778.311C530.758 778.311 535.881 777.052 526.895 770.585C517.908 764.202 521.772 765.462 515.389 764.202C509.006 762.942 494.897 769.325 493.553 765.462C492.293 761.598 499.936 756.475 506.403 747.489C512.785 738.503 516.649 743.626 521.772 743.626C526.895 743.626 541.004 746.229 547.471 755.132C551.922 761.347 558.725 757.819 562.168 752.444C545.203 737.999 524.795 727.417 502.371 722.042C495.988 729.6 495.233 737.243 489.774 744.802C483.391 753.788 483.391 749.925 484.651 756.308C485.91 762.69 492.377 769.157 491.033 770.417C489.774 771.677 483.307 776.8 476.924 781.923C470.541 787.046 467.938 807.622 466.678 816.524C465.418 825.511 474.404 830.634 480.787 838.36C487.17 846.087 482.047 843.483 488.514 840.964C494.981 838.444 496.24 840.964 503.883 840.964C511.526 840.964 516.733 840.964 516.733 840.964C516.733 840.964 524.459 839.704 524.459 843.567C524.459 847.43 519.336 848.69 518.076 851.294C516.817 853.897 521.94 856.417 529.582 860.28C537.309 864.143 535.965 882.116 533.445 885.979C530.842 889.843 532.186 901.348 539.828 914.198C547.555 927.048 543.692 936.034 544.951 937.294C546.211 938.553 547.555 930.911 560.32 930.911C573.17 930.911 571.826 925.788 574.43 915.542C577.033 905.296 582.156 906.555 578.293 897.569C574.43 888.583 589.799 886.063 593.662 883.46C597.526 880.856 596.77 860.28 608.359 852.554C611.467 850.538 609.451 843.315 611.467 841.216C610.711 835.925 609.619 830.634 608.276 825.511C606.176 825.679 603.908 825.762 601.305 825.762Z" fill="#5BA8D3"/>
<path d="M600.465 1058.82H338.518C334.318 1058.82 330.875 1055.38 330.875 1051.18C330.875 1046.98 334.318 1043.53 338.518 1043.53H600.465C604.664 1043.53 608.107 1046.98 608.107 1051.18C608.107 1055.38 604.748 1058.82 600.465 1058.82ZM608.107 1084.69C608.107 1080.49 604.664 1077.04 600.465 1077.04H338.518C334.318 1077.04 330.875 1080.49 330.875 1084.69C330.875 1088.89 334.318 1092.33 338.518 1092.33H600.465C604.748 1092.41 608.107 1088.97 608.107 1084.69Z" fill="url(#paint33_linear_200_2)"/>
<path d="M506.15 691.724C496.408 691.724 488.43 699.619 488.43 709.445C488.43 721.371 501.699 731.869 505.311 734.388C505.814 734.724 506.486 734.724 506.99 734.388C510.518 731.785 523.871 721.371 523.871 709.445C523.871 699.619 515.977 691.724 506.15 691.724ZM506.15 716.5C502.287 716.5 499.18 713.392 499.18 709.529C499.18 705.666 502.287 702.558 506.15 702.558C510.014 702.558 513.121 705.666 513.121 709.529C513.121 713.392 510.014 716.5 506.15 716.5Z" fill="white"/>
<path d="M365.057 801.492C355.314 801.492 347.336 809.386 347.336 819.212C347.336 831.138 360.605 841.636 364.217 844.156C364.721 844.492 365.393 844.492 365.896 844.156C369.424 841.552 382.777 831.138 382.777 819.212C382.777 809.47 374.883 801.492 365.057 801.492ZM365.057 826.267C361.193 826.267 358.086 823.16 358.086 819.296C358.086 815.433 361.193 812.326 365.057 812.326C368.92 812.326 372.027 815.433 372.027 819.296C372.027 823.16 368.92 826.267 365.057 826.267Z" fill="white"/>
<path d="M565.777 812.41C556.035 812.41 548.057 820.304 548.057 830.13C548.057 842.056 561.326 852.554 564.937 855.074C565.441 855.41 566.113 855.41 566.617 855.074C570.144 852.47 583.498 842.056 583.498 830.13C583.414 820.304 575.519 812.41 565.777 812.41ZM565.777 837.101C561.914 837.101 558.807 833.993 558.807 830.13C558.807 826.267 561.914 823.16 565.777 823.16C569.641 823.16 572.748 826.267 572.748 830.13C572.664 833.993 569.557 837.101 565.777 837.101Z" fill="white"/>
<path d="M488.514 922.261C478.771 922.261 470.793 930.155 470.793 939.982C470.793 951.907 484.062 962.405 487.674 964.925C488.178 965.261 488.85 965.261 489.353 964.925C492.881 962.321 506.234 951.907 506.234 939.982C506.15 930.155 498.256 922.261 488.514 922.261ZM488.514 947.036C484.65 947.036 481.543 943.929 481.543 940.066C481.543 936.202 484.65 933.095 488.514 933.095C492.377 933.095 495.484 936.202 495.484 940.066C495.484 943.929 492.293 947.036 488.514 947.036Z" fill="white"/>
<path d="M410.492 861.289C400.75 861.289 392.771 869.183 392.771 879.009C392.771 890.935 406.041 901.433 409.652 903.953C410.156 904.289 410.828 904.289 411.332 903.953C414.859 901.349 428.213 890.935 428.213 879.009C428.213 869.267 420.318 861.289 410.492 861.289ZM410.492 886.064C406.629 886.064 403.521 882.956 403.521 879.093C403.521 875.23 406.629 872.123 410.492 872.123C414.355 872.123 417.463 875.23 417.463 879.093C417.463 882.956 414.355 886.064 410.492 886.064Z" fill="white"/>
<path d="M1278.72 1127.35H701.668C694.865 1127.35 689.322 1121.81 689.322 1115.01V689.121C689.322 682.318 694.865 676.775 701.668 676.775H1278.72C1285.53 676.775 1291.07 682.318 1291.07 689.121V1115.01C1291.07 1121.81 1285.53 1127.35 1278.72 1127.35Z" fill="url(#paint34_linear_200_2)"/>
<path d="M851.666 893.958C832.434 893.958 816.812 878.337 816.812 859.105V849.194C816.812 831.558 802.535 817.28 784.898 817.28C767.262 817.28 752.984 831.558 752.984 849.194C752.984 873.886 732.912 894.042 708.137 894.042H689.24V884.888H708.137C727.789 884.888 743.83 868.931 743.83 849.194C743.83 826.519 762.223 808.126 784.898 808.126C807.574 808.126 825.967 826.519 825.967 849.194V859.105C825.967 873.298 837.473 884.804 851.666 884.804C865.859 884.804 877.365 873.298 877.365 859.105V786.206C877.365 755.804 902.057 731.112 932.459 731.112C962.861 731.112 987.553 755.804 987.553 786.206V832.817C987.553 848.858 1000.57 861.96 1016.7 861.96C1032.82 861.96 1045.84 848.942 1045.84 832.817V812.073C1045.84 793.765 1060.7 778.899 1079.01 778.899C1097.32 778.899 1112.19 793.765 1112.19 812.073V846.339C1112.19 862.968 1125.71 876.573 1142.42 876.573C1159.05 876.573 1172.65 863.052 1172.65 846.339V768.569C1172.65 747.909 1189.45 731.196 1210.03 731.196C1230.69 731.196 1247.48 747.993 1247.48 768.569V789.398C1247.48 810.226 1264.45 827.19 1285.28 827.19H1290.99V836.345H1285.28C1259.41 836.345 1238.33 815.265 1238.33 789.398V768.569C1238.33 752.948 1225.65 740.267 1210.03 740.267C1194.41 740.267 1181.72 752.948 1181.72 768.569V846.339C1181.72 868.091 1164.09 885.728 1142.34 885.728C1120.58 885.728 1102.95 868.091 1102.95 846.339V812.073C1102.95 798.804 1092.2 788.054 1078.93 788.054C1065.66 788.054 1054.91 798.804 1054.91 812.073V832.817C1054.91 853.897 1037.78 871.114 1016.61 871.114C995.447 871.114 978.314 853.981 978.314 832.817V786.206C978.314 760.843 957.738 740.267 932.375 740.267C907.012 740.267 886.435 760.843 886.435 786.206V859.021C886.603 878.253 870.898 893.958 851.666 893.958Z" fill="url(#paint35_linear_200_2)"/>
<path d="M799.006 937.462H761.297C759.953 937.462 758.777 936.37 758.777 934.943C758.777 933.599 759.869 932.423 761.297 932.423H799.006C800.35 932.423 801.525 933.515 801.525 934.943C801.525 936.37 800.35 937.462 799.006 937.462Z" fill="url(#paint36_linear_200_2)"/>
<path d="M885.09 937.462H847.381C846.037 937.462 844.861 936.37 844.861 934.943C844.861 933.599 845.953 932.423 847.381 932.423H885.09C886.434 932.423 887.609 933.515 887.609 934.943C887.609 936.37 886.518 937.462 885.09 937.462Z" fill="url(#paint37_linear_200_2)"/>
<path d="M971.174 937.462H933.465C932.121 937.462 930.945 936.37 930.945 934.943C930.945 933.599 932.037 932.423 933.465 932.423H971.174C972.518 932.423 973.693 933.515 973.693 934.943C973.693 936.37 972.602 937.462 971.174 937.462Z" fill="url(#paint38_linear_200_2)"/>
<path d="M1143.43 937.462H1105.72C1104.37 937.462 1103.2 936.37 1103.2 934.943C1103.2 933.599 1104.29 932.423 1105.72 932.423H1143.43C1144.77 932.423 1145.95 933.515 1145.95 934.943C1145.95 936.37 1144.77 937.462 1143.43 937.462Z" fill="url(#paint39_linear_200_2)"/>
<path d="M1229.51 937.462H1191.8C1190.46 937.462 1189.28 936.37 1189.28 934.943C1189.28 933.599 1190.37 932.423 1191.8 932.423H1229.51C1230.85 932.423 1232.03 933.515 1232.03 934.943C1232.03 936.37 1230.94 937.462 1229.51 937.462Z" fill="url(#paint40_linear_200_2)"/>
<path d="M1064.06 937.714H1022.24C1020.72 937.714 1019.46 936.454 1019.46 934.942C1019.46 933.43 1020.72 932.171 1022.24 932.171H1064.06C1065.57 932.171 1066.83 933.43 1066.83 934.942C1066.83 936.454 1065.57 937.714 1064.06 937.714Z" fill="url(#paint41_linear_200_2)"/>
<path d="M1113.11 707.261H1045C1043.15 707.261 1041.72 708.689 1041.72 710.536V747.153C1041.72 749.001 1043.15 750.429 1045 750.429H1069.86L1076.99 758.743C1078.09 760.003 1080.02 760.003 1081.11 758.743L1088.25 750.429H1113.19C1115.04 750.429 1116.47 749.001 1116.47 747.153V710.536C1116.38 708.773 1114.87 707.261 1113.11 707.261Z" fill="#5BA8D3"/>
<path d="M1099.42 722.546H1058.69C1057.93 722.546 1057.34 721.958 1057.34 721.202C1057.34 720.446 1057.93 719.858 1058.69 719.858H1099.42C1100.17 719.858 1100.76 720.446 1100.76 721.202C1100.68 721.958 1100.09 722.546 1099.42 722.546Z" fill="white"/>
<path d="M1099.42 729.768H1058.69C1057.93 729.768 1057.34 729.18 1057.34 728.424C1057.34 727.668 1057.93 727.081 1058.69 727.081H1099.42C1100.17 727.081 1100.76 727.668 1100.76 728.424C1100.68 729.18 1100.09 729.768 1099.42 729.768Z" fill="white"/>
<path d="M1093.54 736.992H1064.48C1063.72 736.992 1063.14 736.404 1063.14 735.648C1063.14 734.892 1063.72 734.304 1064.48 734.304H1093.54C1094.29 734.304 1094.88 734.892 1094.88 735.648C1094.88 736.404 1094.29 736.992 1093.54 736.992Z" fill="white"/>
<path d="M1262.77 1107.87H717.961C712.502 1107.87 708.051 1103.41 708.051 1097.96V993.647C708.051 988.188 712.502 983.737 717.961 983.737H1262.85C1268.31 983.737 1272.76 988.188 1272.76 993.647V1097.96C1272.76 1103.41 1268.31 1107.87 1262.77 1107.87Z" fill="url(#paint42_linear_200_2)"/>
<path d="M1107.14 1005.15C1084.89 1005.15 1066.83 1023.21 1066.83 1045.47C1066.83 1067.72 1084.89 1085.78 1107.14 1085.78C1129.4 1085.78 1147.46 1067.72 1147.46 1045.47C1147.46 1023.21 1129.4 1005.15 1107.14 1005.15ZM1107.14 1077.21C1089.59 1077.21 1075.4 1063.02 1075.4 1045.47C1075.4 1027.91 1089.59 1013.72 1107.14 1013.72C1124.7 1013.72 1138.89 1027.91 1138.89 1045.47C1138.89 1063.02 1124.7 1077.21 1107.14 1077.21Z" fill="url(#paint43_linear_200_2)"/>
<path d="M1137.88 1053.28C1134.36 1067.05 1121.93 1077.21 1107.14 1077.21C1089.59 1077.21 1075.4 1063.02 1075.4 1045.47C1075.4 1027.91 1089.59 1013.72 1107.14 1013.72V1005.15C1084.89 1005.15 1066.83 1023.21 1066.83 1045.47C1066.83 1067.72 1084.89 1085.78 1107.14 1085.78C1126.71 1085.78 1143.01 1071.84 1146.7 1053.28H1137.88Z" fill="url(#paint44_linear_200_2)"/>
<path d="M1004.01 1005.15C981.758 1005.15 963.701 1023.21 963.701 1045.47C963.701 1067.72 981.758 1085.78 1004.01 1085.78C1026.27 1085.78 1044.33 1067.72 1044.33 1045.47C1044.33 1023.21 1026.35 1005.15 1004.01 1005.15ZM1004.01 1077.21C986.461 1077.21 972.268 1063.02 972.268 1045.47C972.268 1027.91 986.461 1013.72 1004.01 1013.72C1021.57 1013.72 1035.76 1027.91 1035.76 1045.47C1035.76 1063.02 1021.57 1077.21 1004.01 1077.21Z" fill="url(#paint45_linear_200_2)"/>
<path d="M1209.94 1005.15C1187.69 1005.15 1169.63 1023.21 1169.63 1045.47C1169.63 1067.72 1187.69 1085.78 1209.94 1085.78C1232.2 1085.78 1250.25 1067.72 1250.25 1045.47C1250.25 1023.21 1232.2 1005.15 1209.94 1005.15ZM1209.94 1077.21C1192.39 1077.21 1178.2 1063.02 1178.2 1045.47C1178.2 1027.91 1192.39 1013.72 1209.94 1013.72C1227.49 1013.72 1241.69 1027.91 1241.69 1045.47C1241.69 1063.02 1227.49 1077.21 1209.94 1077.21Z" fill="url(#paint46_linear_200_2)"/>
<path d="M1209.94 1077.21C1192.39 1077.21 1178.2 1063.02 1178.2 1045.47C1178.2 1027.91 1192.39 1013.72 1209.94 1013.72V1005.15C1187.69 1005.15 1169.63 1023.21 1169.63 1045.47C1169.63 1067.72 1187.69 1085.78 1209.94 1085.78V1077.21Z" fill="url(#paint47_linear_200_2)"/>
<path d="M1034.83 1053.28C1031.31 1067.05 1018.88 1077.21 1004.1 1077.21C986.543 1077.21 972.35 1063.02 972.35 1045.47C972.35 1037.57 975.205 1030.43 979.908 1024.89L974.365 1018.34C967.815 1025.48 963.783 1034.97 963.783 1045.47C963.783 1067.72 981.84 1085.78 1004.1 1085.78C1023.66 1085.78 1039.96 1071.84 1043.65 1053.28H1034.83Z" fill="url(#paint48_linear_200_2)"/>
<path d="M745.002 1384.85C860.171 1384.85 953.535 1291.48 953.535 1176.31C953.535 1061.14 860.171 967.78 745.002 967.78C629.832 967.78 536.469 1061.14 536.469 1176.31C536.469 1291.48 629.832 1384.85 745.002 1384.85Z" fill="url(#paint49_linear_200_2)"/>
<path d="M745.002 1342.6C836.841 1342.6 911.291 1268.15 911.291 1176.31C911.291 1084.47 836.841 1010.02 745.002 1010.02C653.163 1010.02 578.713 1084.47 578.713 1176.31C578.713 1268.15 653.163 1342.6 745.002 1342.6Z" fill="url(#paint50_linear_200_2)"/>
<path d="M886.347 1176.31V1176.73C886.263 1214.19 871.566 1248.29 847.631 1273.57C821.847 1300.78 785.398 1317.66 745.002 1317.66C705.277 1317.66 669.332 1301.28 643.633 1274.83C618.941 1249.46 603.74 1214.86 603.656 1176.73V1176.31C603.656 1098.29 666.896 1034.97 745.002 1034.97C823.023 1034.97 886.347 1098.21 886.347 1176.31Z" fill="url(#paint51_linear_200_2)"/>
<path d="M886.347 1176.31V1176.73H603.656V1176.31C603.656 1098.29 666.896 1034.97 745.002 1034.97C823.023 1034.97 886.347 1098.21 886.347 1176.31Z" fill="url(#paint52_linear_200_2)"/>
<path d="M886.348 1176.73V1176.31C886.348 1135.41 868.963 1098.63 841.248 1072.84L746.346 1176.73H886.348Z" fill="url(#paint53_linear_200_2)"/>
<path d="M745.002 1259.12C790.736 1259.12 827.81 1222.05 827.81 1176.31C827.81 1130.58 790.736 1093.5 745.002 1093.5C699.268 1093.5 662.193 1130.58 662.193 1176.31C662.193 1222.05 699.268 1259.12 745.002 1259.12Z" fill="url(#paint54_linear_200_2)"/>
<path d="M745.004 1238.71C779.467 1238.71 807.404 1210.78 807.404 1176.31C807.404 1141.85 779.467 1113.91 745.004 1113.91C710.541 1113.91 682.604 1141.85 682.604 1176.31C682.604 1210.78 710.541 1238.71 745.004 1238.71Z" fill="url(#paint55_linear_200_2)"/>
<path d="M770.869 1206.3C747.942 1220.24 724.678 1214.36 713.76 1196.39C702.842 1178.41 708.385 1155.07 731.397 1141.12C748.278 1130.88 796.401 1121.64 822.688 1118.7C833.606 1117.52 840.912 1129.53 834.782 1138.69C820.084 1160.86 787.75 1196.13 770.869 1206.3Z" fill="url(#paint56_linear_200_2)"/>
<path d="M746.346 1194.03C755.901 1194.03 763.646 1186.29 763.646 1176.73C763.646 1167.18 755.901 1159.43 746.346 1159.43C736.791 1159.43 729.045 1167.18 729.045 1176.73C729.045 1186.29 736.791 1194.03 746.346 1194.03Z" fill="url(#paint57_linear_200_2)"/>
<path d="M795.475 1285.16H695.785C692.594 1285.16 690.074 1282.64 690.074 1279.45C690.074 1276.25 692.594 1273.74 695.785 1273.74H795.559C798.75 1273.74 801.269 1276.25 801.269 1279.45C801.185 1282.64 798.666 1285.16 795.475 1285.16Z" fill="url(#paint58_linear_200_2)"/>
<path d="M417.461 1310.27C468.482 1310.27 509.844 1268.91 509.844 1217.88C509.844 1166.86 468.482 1125.5 417.461 1125.5C366.439 1125.5 325.078 1166.86 325.078 1217.88C325.078 1268.91 366.439 1310.27 417.461 1310.27Z" fill="url(#paint59_linear_200_2)"/>
<path d="M417.461 1282.97C453.408 1282.97 482.549 1253.83 482.549 1217.89C482.549 1181.94 453.408 1152.8 417.461 1152.8C381.514 1152.8 352.373 1181.94 352.373 1217.89C352.373 1253.83 381.514 1282.97 417.461 1282.97Z" fill="url(#paint60_linear_200_2)"/>
<path d="M401.504 1242.58C406.207 1244.93 411.33 1246.1 416.621 1246.1H431.57C438.037 1246.1 443.748 1241.74 445.428 1235.44L451.223 1212.34C452.23 1208.56 449.963 1204.62 446.184 1203.61C445.596 1203.44 444.924 1203.36 444.336 1203.36H433.67C434.09 1198.9 434.258 1194.37 434.09 1189.92C434.006 1185.47 430.311 1181.94 425.859 1181.94H425.691C421.996 1181.94 418.805 1184.46 418.049 1188.07C416.789 1193.45 415.445 1198.15 414.102 1202.01C413.094 1204.87 410.406 1206.88 407.383 1206.88H401.588V1242.58H401.504Z" fill="url(#paint61_linear_200_2)"/>
<path d="M396.381 1247.62H388.57C385.799 1247.62 383.531 1245.35 383.531 1242.58V1206.97C383.531 1204.2 385.799 1201.93 388.57 1201.93H396.381C399.152 1201.93 401.42 1204.2 401.42 1206.97V1242.49C401.504 1245.35 399.236 1247.62 396.381 1247.62Z" fill="url(#paint62_linear_200_2)"/>
<path d="M324.49 748.078C338.823 748.078 350.441 736.46 350.441 722.127C350.441 707.795 338.823 696.176 324.49 696.176C310.158 696.176 298.539 707.795 298.539 722.127C298.539 736.46 310.158 748.078 324.49 748.078Z" fill="url(#paint63_linear_200_2)"/>
<path d="M321.215 731.449C320.711 731.449 320.291 731.281 319.872 730.945L311.641 722.715C310.885 721.959 310.885 720.783 311.641 720.111C312.397 719.355 313.573 719.355 314.245 720.111L321.215 727.082L334.821 713.476C335.577 712.721 336.752 712.721 337.424 713.476C338.18 714.232 338.18 715.408 337.424 716.08L322.559 730.945C322.139 731.281 321.719 731.449 321.215 731.449Z" fill="white"/>
<path d="M1381.74 964.169H1116.86C1107.95 964.169 1100.73 956.946 1100.73 948.044V882.284C1100.73 873.382 1107.95 866.159 1116.86 866.159H1381.74C1390.64 866.159 1397.87 873.382 1397.87 882.284V948.044C1397.87 956.946 1390.64 964.169 1381.74 964.169Z" fill="url(#paint64_linear_200_2)"/>
<path d="M1364.44 902.441H1214.11C1212.18 902.441 1210.66 900.929 1210.66 898.998C1210.66 897.066 1212.18 895.554 1214.11 895.554H1364.44C1366.37 895.554 1367.88 897.066 1367.88 898.998C1367.88 900.929 1366.29 902.441 1364.44 902.441ZM1367.88 915.206C1367.88 913.275 1366.37 911.763 1364.44 911.763H1214.11C1212.18 911.763 1210.66 913.275 1210.66 915.206C1210.66 917.138 1212.18 918.65 1214.11 918.65H1364.44C1366.29 918.65 1367.88 917.138 1367.88 915.206ZM1339.08 931.416C1339.08 929.484 1337.56 927.972 1335.63 927.972H1214.11C1212.18 927.972 1210.66 929.484 1210.66 931.416C1210.66 933.347 1212.18 934.859 1214.11 934.859H1335.63C1337.48 934.859 1339.08 933.263 1339.08 931.416Z" fill="url(#paint65_linear_200_2)"/>
<path d="M1164.47 948.884C1183.07 948.884 1198.15 933.806 1198.15 915.207C1198.15 896.607 1183.07 881.529 1164.47 881.529C1145.87 881.529 1130.79 896.607 1130.79 915.207C1130.79 933.806 1145.87 948.884 1164.47 948.884Z" fill="url(#paint66_linear_200_2)"/>
<path d="M1163.97 918.566L1155.23 920.498L1149.52 902.525C1148.43 899.082 1150.53 895.471 1154.06 894.631C1157.59 893.875 1161.03 896.226 1161.53 899.838L1163.97 918.566Z" fill="url(#paint67_linear_200_2)"/>
<path d="M1165.15 918.65L1173.88 920.498L1179.42 902.525C1180.52 899.082 1178.33 895.47 1174.8 894.714C1171.28 893.959 1167.83 896.394 1167.41 900.005L1165.15 918.65Z" fill="url(#paint68_linear_200_2)"/>
<path d="M1164.56 935.783C1172.58 935.783 1179.09 929.278 1179.09 921.254C1179.09 913.229 1172.58 906.724 1164.56 906.724C1156.53 906.724 1150.03 913.229 1150.03 921.254C1150.03 929.278 1156.53 935.783 1164.56 935.783Z" fill="url(#paint69_linear_200_2)"/>
<path d="M1340.61 1281.29H984.85C972.504 1281.29 962.51 1271.3 962.51 1258.95V1176.31C962.51 1163.97 972.504 1153.97 984.85 1153.97H1340.61C1352.95 1153.97 1362.95 1163.97 1362.95 1176.31V1258.95C1362.95 1271.3 1352.95 1281.29 1340.61 1281.29Z" fill="url(#paint70_linear_200_2)"/>
<path d="M984.85 1153.97C972.504 1153.97 962.51 1163.97 962.51 1176.31V1258.95C962.51 1271.3 972.504 1281.29 984.85 1281.29H1128.97V1153.97H984.85Z" fill="url(#paint71_linear_200_2)"/>
<path d="M1324.41 616.474C1324.41 599.761 1310.89 586.24 1294.18 586.24H258.65C241.937 586.24 228.416 599.761 228.416 616.474V643.097H1324.41V616.474Z" fill="url(#paint72_linear_200_2)"/>
<path d="M280.232 625.208C284.685 625.208 288.295 621.599 288.295 617.146C288.295 612.693 284.685 609.083 280.232 609.083C275.78 609.083 272.17 612.693 272.17 617.146C272.17 621.599 275.78 625.208 280.232 625.208Z" fill="#FFCC00"/>
<path d="M307.527 625.208C311.98 625.208 315.59 621.599 315.59 617.146C315.59 612.693 311.98 609.083 307.527 609.083C303.075 609.083 299.465 612.693 299.465 617.146C299.465 621.599 303.075 625.208 307.527 625.208Z" fill="#FFCC00"/>
<path d="M334.822 625.208C339.275 625.208 342.885 621.599 342.885 617.146C342.885 612.693 339.275 609.083 334.822 609.083C330.369 609.083 326.76 612.693 326.76 617.146C326.76 621.599 330.369 625.208 334.822 625.208Z" fill="#FFCC00"/>
<path d="M842.172 727.165H731.396C729.465 727.165 727.953 725.654 727.953 723.722C727.953 721.79 729.465 720.279 731.396 720.279H842.172C844.103 720.279 845.615 721.79 845.615 723.722C845.615 725.654 844.103 727.165 842.172 727.165ZM845.615 742.198C845.615 740.267 844.103 738.755 842.172 738.755H731.396C729.465 738.755 727.953 740.267 727.953 742.198C727.953 744.13 729.465 745.642 731.396 745.642H842.172C844.103 745.642 845.615 744.046 845.615 742.198ZM816.809 760.591C816.809 758.659 815.297 757.148 813.365 757.148H731.396C729.465 757.148 727.953 758.659 727.953 760.591C727.953 762.523 729.465 764.034 731.396 764.034H813.365C815.297 764.034 816.809 762.523 816.809 760.591Z" fill="url(#paint73_linear_200_2)"/>
<path d="M1074.29 1187.15H1017.27V1248.2H1074.29V1187.15Z" fill="url(#paint74_linear_200_2)"/>
<path d="M1077.9 1195.63H1013.65C1011.72 1195.63 1010.13 1194.04 1010.13 1192.1V1183.87C1010.13 1181.94 1011.72 1180.35 1013.65 1180.35H1077.9C1079.83 1180.35 1081.43 1181.94 1081.43 1183.87V1192.1C1081.35 1194.12 1079.83 1195.63 1077.9 1195.63Z" fill="url(#paint75_linear_200_2)"/>
<path d="M1077.9 1224.69H1013.65C1011.72 1224.69 1010.13 1223.09 1010.13 1221.16V1212.93C1010.13 1211 1011.72 1209.4 1013.65 1209.4H1077.9C1079.83 1209.4 1081.43 1211 1081.43 1212.93V1221.16C1081.35 1223.09 1079.83 1224.69 1077.9 1224.69Z" fill="url(#paint76_linear_200_2)"/>
<path d="M1077.9 1254.76H1013.65C1011.72 1254.76 1010.13 1253.16 1010.13 1251.23V1243C1010.13 1241.07 1011.72 1239.47 1013.65 1239.47H1077.9C1079.83 1239.47 1081.43 1241.07 1081.43 1243V1251.23C1081.35 1253.16 1079.83 1254.76 1077.9 1254.76Z" fill="url(#paint77_linear_200_2)"/>
<path d="M1180.28 1203.69H1162.73V1254.75H1180.28V1203.69Z" fill="url(#paint78_linear_200_2)"/>
<path d="M1210.35 1180.51H1192.79V1254.75H1210.35V1180.51Z" fill="white"/>
<path d="M1240.41 1209.49H1222.86V1254.75H1240.41V1209.49Z" fill="url(#paint79_linear_200_2)"/>
<path d="M1270.48 1192.19H1252.93V1254.75H1270.48V1192.19Z" fill="white"/>
<path d="M1300.55 1200.17H1283V1254.75H1300.55V1200.17Z" fill="url(#paint80_linear_200_2)"/>
<path d="M1330.61 1180.51H1313.06V1254.75H1330.61V1180.51Z" fill="white"/>
<defs>
<linearGradient id="paint0_linear_200_2" x1="1015.32" y1="442.146" x2="-149.067" y2="703.885" gradientUnits="userSpaceOnUse">
<stop stop-color="#FF2A64"/>
<stop offset="0.0308184" stop-color="#FF3462"/>
<stop offset="0.1688" stop-color="#FF595A"/>
<stop offset="0.3129" stop-color="#FF7854"/>
<stop offset="0.4626" stop-color="#FF904E"/>
<stop offset="0.6203" stop-color="#FFA24B"/>
<stop offset="0.7913" stop-color="#FFAC49"/>
<stop offset="1" stop-color="#FFAF48"/>
</linearGradient>
<linearGradient id="paint1_linear_200_2" x1="643.051" y1="535.23" x2="-450.038" y2="747.144" gradientUnits="userSpaceOnUse">
<stop stop-color="#FF2A64"/>
<stop offset="0.0308184" stop-color="#FF3462"/>
<stop offset="0.1688" stop-color="#FF595A"/>
<stop offset="0.3129" stop-color="#FF7854"/>
<stop offset="0.4626" stop-color="#FF904E"/>
<stop offset="0.6203" stop-color="#FFA24B"/>
<stop offset="0.7913" stop-color="#FFAC49"/>
<stop offset="1" stop-color="#FFAF48"/>
</linearGradient>
<linearGradient id="paint2_linear_200_2" x1="827.947" y1="673.936" x2="208.598" y2="249.451" gradientUnits="userSpaceOnUse">
<stop stop-color="#223C6A"/>
<stop offset="1" stop-color="#5A8AB7"/>
</linearGradient>
<linearGradient id="paint3_linear_200_2" x1="680.849" y1="579.242" x2="251.137" y2="274.01" gradientUnits="userSpaceOnUse">
<stop stop-color="#03192E"/>
<stop offset="0.5" stop-color="#223C6A"/>
<stop offset="1" stop-color="#4A74A2"/>
</linearGradient>
<linearGradient id="paint4_linear_200_2" x1="637.932" y1="927.518" x2="490.789" y2="508.999" gradientUnits="userSpaceOnUse">
<stop stop-color="#002649"/>
<stop offset="0.3213" stop-color="#042A4F"/>
<stop offset="0.7475" stop-color="#0F3460"/>
<stop offset="1" stop-color="#183D6D"/>
</linearGradient>
<linearGradient id="paint5_linear_200_2" x1="532.172" y1="636.925" x2="466.395" y2="395.651" gradientUnits="userSpaceOnUse">
<stop stop-color="#223C6A"/>
<stop offset="1" stop-color="#5A8AB7"/>
</linearGradient>
<linearGradient id="paint6_linear_200_2" x1="527.411" y1="638.223" x2="461.634" y2="396.948" gradientUnits="userSpaceOnUse">
<stop stop-color="#223C6A"/>
<stop offset="1" stop-color="#5A8AB7"/>
</linearGradient>
<linearGradient id="paint7_linear_200_2" x1="525.342" y1="638.787" x2="459.565" y2="397.513" gradientUnits="userSpaceOnUse">
<stop stop-color="#223C6A"/>
<stop offset="1" stop-color="#5A8AB7"/>
</linearGradient>
<linearGradient id="paint8_linear_200_2" x1="525.402" y1="638.77" x2="459.625" y2="397.496" gradientUnits="userSpaceOnUse">
<stop stop-color="#223C6A"/>
<stop offset="1" stop-color="#5A8AB7"/>
</linearGradient>
<linearGradient id="paint9_linear_200_2" x1="529.035" y1="637.779" x2="463.258" y2="396.505" gradientUnits="userSpaceOnUse">
<stop stop-color="#223C6A"/>
<stop offset="1" stop-color="#5A8AB7"/>
</linearGradient>
<linearGradient id="paint10_linear_200_2" x1="729.1" y1="448.532" x2="404.496" y2="979.51" gradientUnits="userSpaceOnUse">
<stop stop-color="#03192E"/>
<stop offset="0.5" stop-color="#223C6A"/>
<stop offset="1" stop-color="#4A74A2"/>
</linearGradient>
<linearGradient id="paint11_linear_200_2" x1="718.651" y1="363.653" x2="461.32" y2="947.596" gradientUnits="userSpaceOnUse">
<stop stop-color="#223C6A"/>
<stop offset="1" stop-color="#5A8AB7"/>
</linearGradient>
<linearGradient id="paint12_linear_200_2" x1="2262.51" y1="118.34" x2="231.313" y2="629.133" gradientUnits="userSpaceOnUse">
<stop stop-color="white"/>
<stop offset="1" stop-color="#B5E0F7"/>
</linearGradient>
<linearGradient id="paint13_linear_200_2" x1="956.898" y1="1052.98" x2="843.799" y2="469.589" gradientUnits="userSpaceOnUse">
<stop stop-color="#002649"/>
<stop offset="0.3213" stop-color="#042A4F"/>
<stop offset="0.7475" stop-color="#0F3460"/>
<stop offset="1" stop-color="#183D6D"/>
</linearGradient>
<linearGradient id="paint14_linear_200_2" x1="1121.68" y1="892.546" x2="229.438" y2="190.182" gradientUnits="userSpaceOnUse">
<stop stop-color="#223C6A"/>
<stop offset="1" stop-color="#5A8AB7"/>
</linearGradient>
<linearGradient id="paint15_linear_200_2" x1="1168.66" y1="636.137" x2="1088.25" y2="221.344" gradientUnits="userSpaceOnUse">
<stop stop-color="#223C6A"/>
<stop offset="1" stop-color="#5A8AB7"/>
</linearGradient>
<linearGradient id="paint16_linear_200_2" x1="354.694" y1="737.349" x2="1312.21" y2="290.692" gradientUnits="userSpaceOnUse">
<stop stop-color="#03192E"/>
<stop offset="0.5" stop-color="#223C6A"/>
<stop offset="1" stop-color="#4A74A2"/>
</linearGradient>
<linearGradient id="paint17_linear_200_2" x1="539.366" y1="665.123" x2="1094.41" y2="386.5" gradientUnits="userSpaceOnUse">
<stop stop-color="#223C6A"/>
<stop offset="1" stop-color="#5A8AB7"/>
</linearGradient>
<linearGradient id="paint18_linear_200_2" x1="1087.21" y1="345.319" x2="461.224" y2="82.6366" gradientUnits="userSpaceOnUse">
<stop stop-color="#FF2A64"/>
<stop offset="0.0308184" stop-color="#FF3462"/>
<stop offset="0.1688" stop-color="#FF595A"/>
<stop offset="0.3129" stop-color="#FF7854"/>
<stop offset="0.4626" stop-color="#FF904E"/>
<stop offset="0.6203" stop-color="#FFA24B"/>
<stop offset="0.7913" stop-color="#FFAC49"/>
<stop offset="1" stop-color="#FFAF48"/>
</linearGradient>
<linearGradient id="paint19_linear_200_2" x1="879.077" y1="334.26" x2="535.833" y2="-38.2415" gradientUnits="userSpaceOnUse">
<stop stop-color="#FF2A64"/>
<stop offset="0.0308184" stop-color="#FF3462"/>
<stop offset="0.1688" stop-color="#FF595A"/>
<stop offset="0.3129" stop-color="#FF7854"/>
<stop offset="0.4626" stop-color="#FF904E"/>
<stop offset="0.6203" stop-color="#FFA24B"/>
<stop offset="0.7913" stop-color="#FFAC49"/>
<stop offset="1" stop-color="#FFAF48"/>
</linearGradient>
<linearGradient id="paint20_linear_200_2" x1="276.481" y1="862.014" x2="1057.36" y2="26.5572" gradientUnits="userSpaceOnUse">
<stop stop-color="#FF2A64"/>
<stop offset="0.0308184" stop-color="#FF3462"/>
<stop offset="0.1688" stop-color="#FF595A"/>
<stop offset="0.3129" stop-color="#FF7854"/>
<stop offset="0.4626" stop-color="#FF904E"/>
<stop offset="0.6203" stop-color="#FFA24B"/>
<stop offset="0.7913" stop-color="#FFAC49"/>
<stop offset="1" stop-color="#FFAF48"/>
</linearGradient>
<linearGradient id="paint21_linear_200_2" x1="877.576" y1="399.572" x2="534.332" y2="27.0705" gradientUnits="userSpaceOnUse">
<stop stop-color="#FF2A64"/>
<stop offset="0.0308184" stop-color="#FF3462"/>
<stop offset="0.1688" stop-color="#FF595A"/>
<stop offset="0.3129" stop-color="#FF7854"/>
<stop offset="0.4626" stop-color="#FF904E"/>
<stop offset="0.6203" stop-color="#FFA24B"/>
<stop offset="0.7913" stop-color="#FFAC49"/>
<stop offset="1" stop-color="#FFAF48"/>
</linearGradient>
<linearGradient id="paint22_linear_200_2" x1="700.461" y1="411.485" x2="342.921" y2="161.268" gradientUnits="userSpaceOnUse">
<stop stop-color="#FF2A64"/>
<stop offset="0.0308184" stop-color="#FF3462"/>
<stop offset="0.1688" stop-color="#FF595A"/>
<stop offset="0.3129" stop-color="#FF7854"/>
<stop offset="0.4626" stop-color="#FF904E"/>
<stop offset="0.6203" stop-color="#FFA24B"/>
<stop offset="0.7913" stop-color="#FFAC49"/>
<stop offset="1" stop-color="#FFAF48"/>
</linearGradient>
<linearGradient id="paint23_linear_200_2" x1="619.769" y1="358.843" x2="876.146" y2="694.679" gradientUnits="userSpaceOnUse">
<stop stop-color="#FF2A64"/>
<stop offset="0.0308184" stop-color="#FF3462"/>
<stop offset="0.1688" stop-color="#FF595A"/>
<stop offset="0.3129" stop-color="#FF7854"/>
<stop offset="0.4626" stop-color="#FF904E"/>
<stop offset="0.6203" stop-color="#FFA24B"/>
<stop offset="0.7913" stop-color="#FFAC49"/>
<stop offset="1" stop-color="#FFAF48"/>
</linearGradient>
<linearGradient id="paint24_linear_200_2" x1="981.29" y1="333.07" x2="990.991" y2="255.431" gradientUnits="userSpaceOnUse">
<stop stop-color="#03192E"/>
<stop offset="0.5" stop-color="#223C6A"/>
<stop offset="1" stop-color="#4A74A2"/>
</linearGradient>
<linearGradient id="paint25_linear_200_2" x1="971.863" y1="356.794" x2="991.387" y2="254.374" gradientUnits="userSpaceOnUse">
<stop stop-color="#FF2A64"/>
<stop offset="0.0308184" stop-color="#FF3462"/>
<stop offset="0.1688" stop-color="#FF595A"/>
<stop offset="0.3129" stop-color="#FF7854"/>
<stop offset="0.4626" stop-color="#FF904E"/>
<stop offset="0.6203" stop-color="#FFA24B"/>
<stop offset="0.7913" stop-color="#FFAC49"/>
<stop offset="1" stop-color="#FFAF48"/>
</linearGradient>
<linearGradient id="paint26_linear_200_2" x1="976.88" y1="337.751" x2="989.623" y2="295.152" gradientUnits="userSpaceOnUse">
<stop stop-color="white"/>
<stop offset="1" stop-color="#B5E0F7"/>
</linearGradient>
<linearGradient id="paint27_linear_200_2" x1="976.092" y1="314.934" x2="962.392" y2="244.269" gradientUnits="userSpaceOnUse">
<stop stop-color="#03192E"/>
<stop offset="0.5" stop-color="#223C6A"/>
<stop offset="1" stop-color="#4A74A2"/>
</linearGradient>
<linearGradient id="paint28_linear_200_2" x1="904.401" y1="495.057" x2="1795.41" y2="208.309" gradientUnits="userSpaceOnUse">
<stop stop-color="#223C6A"/>
<stop offset="1" stop-color="#5A8AB7"/>
</linearGradient>
<linearGradient id="paint29_linear_200_2" x1="776.433" y1="1468.55" x2="776.433" y2="162.554" gradientUnits="userSpaceOnUse">
<stop stop-color="#03192E"/>
<stop offset="0.5" stop-color="#223C6A"/>
<stop offset="1" stop-color="#4A74A2"/>
</linearGradient>
<linearGradient id="paint30_linear_200_2" x1="468.723" y1="1145.43" x2="468.723" y2="248.436" gradientUnits="userSpaceOnUse">
<stop stop-color="#03192E"/>
<stop offset="0.5" stop-color="#223C6A"/>
<stop offset="1" stop-color="#4A74A2"/>
</linearGradient>
<linearGradient id="paint31_linear_200_2" x1="468.723" y1="1671.19" x2="468.723" y2="786.094" gradientUnits="userSpaceOnUse">
<stop stop-color="#03192E"/>
<stop offset="0.5" stop-color="#223C6A"/>
<stop offset="1" stop-color="#4A74A2"/>
</linearGradient>
<linearGradient id="paint32_linear_200_2" x1="445.135" y1="993.466" x2="445.135" y2="215.861" gradientUnits="userSpaceOnUse">
<stop stop-color="#386E9F"/>
<stop offset="1" stop-color="white"/>
</linearGradient>
<linearGradient id="paint33_linear_200_2" x1="469.501" y1="1336.77" x2="469.501" y2="821.059" gradientUnits="userSpaceOnUse">
<stop stop-color="#03192E"/>
<stop offset="0.5" stop-color="#223C6A"/>
<stop offset="1" stop-color="#4A74A2"/>
</linearGradient>
<linearGradient id="paint34_linear_200_2" x1="990.169" y1="1064.1" x2="990.169" y2="159.968" gradientUnits="userSpaceOnUse">
<stop stop-color="#03192E"/>
<stop offset="0.5" stop-color="#223C6A"/>
<stop offset="1" stop-color="#4A74A2"/>
</linearGradient>
<linearGradient id="paint35_linear_200_2" x1="800.005" y1="1144.39" x2="1100.44" y2="695.941" gradientUnits="userSpaceOnUse">
<stop stop-color="#FF2A64"/>
<stop offset="1" stop-color="#FFAF48"/>
</linearGradient>
<linearGradient id="paint36_linear_200_2" x1="780.148" y1="1136.59" x2="780.148" y2="936.664" gradientUnits="userSpaceOnUse">
<stop stop-color="#03192E"/>
<stop offset="0.5" stop-color="#223C6A"/>
<stop offset="1" stop-color="#4A74A2"/>
</linearGradient>
<linearGradient id="paint37_linear_200_2" x1="866.252" y1="1136.59" x2="866.252" y2="936.664" gradientUnits="userSpaceOnUse">
<stop stop-color="#03192E"/>
<stop offset="0.5" stop-color="#223C6A"/>
<stop offset="1" stop-color="#4A74A2"/>
</linearGradient>
<linearGradient id="paint38_linear_200_2" x1="952.357" y1="1136.59" x2="952.357" y2="936.664" gradientUnits="userSpaceOnUse">
<stop stop-color="#03192E"/>
<stop offset="0.5" stop-color="#223C6A"/>
<stop offset="1" stop-color="#4A74A2"/>
</linearGradient>
<linearGradient id="paint39_linear_200_2" x1="1124.57" y1="1136.59" x2="1124.57" y2="936.664" gradientUnits="userSpaceOnUse">
<stop stop-color="#03192E"/>
<stop offset="0.5" stop-color="#223C6A"/>
<stop offset="1" stop-color="#4A74A2"/>
</linearGradient>
<linearGradient id="paint40_linear_200_2" x1="1210.67" y1="1136.59" x2="1210.67" y2="936.664" gradientUnits="userSpaceOnUse">
<stop stop-color="#03192E"/>
<stop offset="0.5" stop-color="#223C6A"/>
<stop offset="1" stop-color="#4A74A2"/>
</linearGradient>
<linearGradient id="paint41_linear_200_2" x1="1043.15" y1="1136.59" x2="1043.15" y2="936.663" gradientUnits="userSpaceOnUse">
<stop stop-color="#03192E"/>
<stop offset="0.5" stop-color="#223C6A"/>
<stop offset="1" stop-color="#4A74A2"/>
</linearGradient>
<linearGradient id="paint42_linear_200_2" x1="990.359" y1="1383.68" x2="990.359" y2="482.37" gradientUnits="userSpaceOnUse">
<stop stop-color="#03192E"/>
<stop offset="0.5" stop-color="#223C6A"/>
<stop offset="1" stop-color="#4A74A2"/>
</linearGradient>
<linearGradient id="paint43_linear_200_2" x1="1107.11" y1="1209.25" x2="1107.11" y2="1025.55" gradientUnits="userSpaceOnUse">
<stop stop-color="#03192E"/>
<stop offset="0.5" stop-color="#223C6A"/>
<stop offset="1" stop-color="#4A74A2"/>
</linearGradient>
<linearGradient id="paint44_linear_200_2" x1="1106.73" y1="1118.23" x2="1106.73" y2="1003.14" gradientUnits="userSpaceOnUse">
<stop stop-color="#FF2A64"/>
<stop offset="1" stop-color="#FFAF48"/>
</linearGradient>
<linearGradient id="paint45_linear_200_2" x1="1004.05" y1="1209.25" x2="1004.05" y2="1025.55" gradientUnits="userSpaceOnUse">
<stop stop-color="#03192E"/>
<stop offset="0.5" stop-color="#223C6A"/>
<stop offset="1" stop-color="#4A74A2"/>
</linearGradient>
<linearGradient id="paint46_linear_200_2" x1="1209.97" y1="1209.25" x2="1209.97" y2="1025.55" gradientUnits="userSpaceOnUse">
<stop stop-color="#03192E"/>
<stop offset="0.5" stop-color="#223C6A"/>
<stop offset="1" stop-color="#4A74A2"/>
</linearGradient>
<linearGradient id="paint47_linear_200_2" x1="1189.82" y1="1111.49" x2="1189.82" y2="990.147" gradientUnits="userSpaceOnUse">
<stop stop-color="#FF2A64"/>
<stop offset="1" stop-color="#FFAF48"/>
</linearGradient>
<linearGradient id="paint48_linear_200_2" x1="1003.67" y1="1118.23" x2="1003.67" y2="1007.14" gradientUnits="userSpaceOnUse">
<stop stop-color="#FF2A64"/>
<stop offset="1" stop-color="#FFAF48"/>
</linearGradient>
<linearGradient id="paint49_linear_200_2" x1="745.003" y1="1866.58" x2="745.003" y2="1095.53" gradientUnits="userSpaceOnUse">
<stop stop-color="#03192E"/>
<stop offset="0.5" stop-color="#223C6A"/>
<stop offset="1" stop-color="#4A74A2"/>
</linearGradient>
<linearGradient id="paint50_linear_200_2" x1="745.003" y1="1476.64" x2="745.003" y2="357.365" gradientUnits="userSpaceOnUse">
<stop stop-color="#386E9F"/>
<stop offset="1" stop-color="white"/>
</linearGradient>
<linearGradient id="paint51_linear_200_2" x1="745.006" y1="1336.88" x2="745.006" y2="970.788" gradientUnits="userSpaceOnUse">
<stop stop-color="#03192E"/>
<stop offset="0.5" stop-color="#223C6A"/>
<stop offset="1" stop-color="#4A74A2"/>
</linearGradient>
<linearGradient id="paint52_linear_200_2" x1="745.006" y1="1463.54" x2="745.006" y2="984.755" gradientUnits="userSpaceOnUse">
<stop stop-color="#03192E"/>
<stop offset="0.5" stop-color="#223C6A"/>
<stop offset="1" stop-color="#4A74A2"/>
</linearGradient>
<linearGradient id="paint53_linear_200_2" x1="367.003" y1="1454.33" x2="966.406" y2="1056.7" gradientUnits="userSpaceOnUse">
<stop stop-color="#FF2A64"/>
<stop offset="1" stop-color="#FFAF48"/>
</linearGradient>
<linearGradient id="paint54_linear_200_2" x1="745.003" y1="1547.79" x2="745.003" y2="1091.18" gradientUnits="userSpaceOnUse">
<stop stop-color="#03192E"/>
<stop offset="0.5" stop-color="#223C6A"/>
<stop offset="1" stop-color="#4A74A2"/>
</linearGradient>
<linearGradient id="paint55_linear_200_2" x1="745.005" y1="1313.45" x2="745.005" y2="957.943" gradientUnits="userSpaceOnUse">
<stop stop-color="#03192E"/>
<stop offset="0.5" stop-color="#223C6A"/>
<stop offset="1" stop-color="#4A74A2"/>
</linearGradient>
<linearGradient id="paint56_linear_200_2" x1="412.367" y1="1397.6" x2="797.241" y2="1143.31" gradientUnits="userSpaceOnUse">
<stop stop-color="#386E9F"/>
<stop offset="1" stop-color="white"/>
</linearGradient>
<linearGradient id="paint57_linear_200_2" x1="551.001" y1="1294.43" x2="766.02" y2="1164.83" gradientUnits="userSpaceOnUse">
<stop stop-color="#108BB4"/>
<stop offset="1" stop-color="#40C67C"/>
</linearGradient>
<linearGradient id="paint58_linear_200_2" x1="745.629" y1="1380.57" x2="745.629" y2="1226.57" gradientUnits="userSpaceOnUse">
<stop stop-color="#03192E"/>
<stop offset="0.5" stop-color="#223C6A"/>
<stop offset="1" stop-color="#4A74A2"/>
</linearGradient>
<linearGradient id="paint59_linear_200_2" x1="417.462" y1="1568.1" x2="417.462" y2="1088.95" gradientUnits="userSpaceOnUse">
<stop stop-color="#03192E"/>
<stop offset="0.5" stop-color="#223C6A"/>
<stop offset="1" stop-color="#4A74A2"/>
</linearGradient>
<linearGradient id="paint60_linear_200_2" x1="417.462" y1="1322.09" x2="417.462" y2="1021.48" gradientUnits="userSpaceOnUse">
<stop stop-color="#03192E"/>
<stop offset="0.5" stop-color="#223C6A"/>
<stop offset="1" stop-color="#4A74A2"/>
</linearGradient>
<linearGradient id="paint61_linear_200_2" x1="426.419" y1="1138.55" x2="426.419" y2="1258.44" gradientUnits="userSpaceOnUse">
<stop stop-color="white"/>
<stop offset="1" stop-color="#B5E0F7"/>
</linearGradient>
<linearGradient id="paint62_linear_200_2" x1="392.507" y1="1339.83" x2="392.507" y2="1113.99" gradientUnits="userSpaceOnUse">
<stop stop-color="#386E9F"/>
<stop offset="1" stop-color="white"/>
</linearGradient>
<linearGradient id="paint63_linear_200_2" x1="324.526" y1="789.027" x2="324.526" y2="681.826" gradientUnits="userSpaceOnUse">
<stop stop-color="#108BB4"/>
<stop offset="1" stop-color="#40C67C"/>
</linearGradient>
<linearGradient id="paint64_linear_200_2" x1="1249.31" y1="1109.78" x2="1249.31" y2="704.232" gradientUnits="userSpaceOnUse">
<stop stop-color="#386E9F"/>
<stop offset="1" stop-color="white"/>
</linearGradient>
<linearGradient id="paint65_linear_200_2" x1="1289.24" y1="1121.86" x2="1289.24" y2="888.024" gradientUnits="userSpaceOnUse">
<stop stop-color="#03192E"/>
<stop offset="0.5" stop-color="#223C6A"/>
<stop offset="1" stop-color="#4A74A2"/>
</linearGradient>
<linearGradient id="paint66_linear_200_2" x1="1164.46" y1="993.737" x2="1164.46" y2="841.245" gradientUnits="userSpaceOnUse">
<stop stop-color="#03192E"/>
<stop offset="0.5" stop-color="#223C6A"/>
<stop offset="1" stop-color="#4A74A2"/>
</linearGradient>
<linearGradient id="paint67_linear_200_2" x1="1156.62" y1="1046.76" x2="1156.62" y2="890.985" gradientUnits="userSpaceOnUse">
<stop stop-color="#386E9F"/>
<stop offset="1" stop-color="white"/>
</linearGradient>
<linearGradient id="paint68_linear_200_2" x1="1172.42" y1="1046.76" x2="1172.42" y2="890.985" gradientUnits="userSpaceOnUse">
<stop stop-color="#386E9F"/>
<stop offset="1" stop-color="white"/>
</linearGradient>
<linearGradient id="paint69_linear_200_2" x1="1164.52" y1="1046.76" x2="1164.52" y2="890.985" gradientUnits="userSpaceOnUse">
<stop stop-color="#386E9F"/>
<stop offset="1" stop-color="white"/>
</linearGradient>
<linearGradient id="paint70_linear_200_2" x1="1162.73" y1="1708.74" x2="1162.73" y2="1129.89" gradientUnits="userSpaceOnUse">
<stop stop-color="#03192E"/>
<stop offset="0.5" stop-color="#223C6A"/>
<stop offset="1" stop-color="#4A74A2"/>
</linearGradient>
<linearGradient id="paint71_linear_200_2" x1="1045.76" y1="1477.88" x2="1045.76" y2="1121.92" gradientUnits="userSpaceOnUse">
<stop stop-color="#03192E"/>
<stop offset="0.5" stop-color="#223C6A"/>
<stop offset="1" stop-color="#4A74A2"/>
</linearGradient>
<linearGradient id="paint72_linear_200_2" x1="776.433" y1="989.319" x2="776.433" y2="611.032" gradientUnits="userSpaceOnUse">
<stop stop-color="#03192E"/>
<stop offset="0.5" stop-color="#223C6A"/>
<stop offset="1" stop-color="#4A74A2"/>
</linearGradient>
<linearGradient id="paint73_linear_200_2" x1="786.785" y1="935.318" x2="786.785" y2="727.135" gradientUnits="userSpaceOnUse">
<stop stop-color="#03192E"/>
<stop offset="0.5" stop-color="#223C6A"/>
<stop offset="1" stop-color="#4A74A2"/>
</linearGradient>
<linearGradient id="paint74_linear_200_2" x1="1045.76" y1="1257.36" x2="1045.76" y2="1132.17" gradientUnits="userSpaceOnUse">
<stop stop-color="#03192E"/>
<stop offset="0.5" stop-color="#223C6A"/>
<stop offset="1" stop-color="#4A74A2"/>
</linearGradient>
<linearGradient id="paint75_linear_200_2" x1="1045.76" y1="1282.39" x2="1045.76" y2="1088.64" gradientUnits="userSpaceOnUse">
<stop stop-color="#386E9F"/>
<stop offset="1" stop-color="white"/>
</linearGradient>
<linearGradient id="paint76_linear_200_2" x1="1045.76" y1="1282.39" x2="1045.76" y2="1088.64" gradientUnits="userSpaceOnUse">
<stop stop-color="#386E9F"/>
<stop offset="1" stop-color="white"/>
</linearGradient>
<linearGradient id="paint77_linear_200_2" x1="1045.76" y1="1282.39" x2="1045.76" y2="1088.64" gradientUnits="userSpaceOnUse">
<stop stop-color="#386E9F"/>
<stop offset="1" stop-color="white"/>
</linearGradient>
<linearGradient id="paint78_linear_200_2" x1="1171.52" y1="1431.14" x2="1171.52" y2="1203.65" gradientUnits="userSpaceOnUse">
<stop stop-color="#108BB4"/>
<stop offset="1" stop-color="#40C67C"/>
</linearGradient>
<linearGradient id="paint79_linear_200_2" x1="1231.64" y1="1431.14" x2="1231.64" y2="1203.65" gradientUnits="userSpaceOnUse">
<stop stop-color="#108BB4"/>
<stop offset="1" stop-color="#40C67C"/>
</linearGradient>
<linearGradient id="paint80_linear_200_2" x1="1291.76" y1="1431.14" x2="1291.76" y2="1203.65" gradientUnits="userSpaceOnUse">
<stop stop-color="#108BB4"/>
<stop offset="1" stop-color="#40C67C"/>
</linearGradient>
</defs>
</svg>
