<svg width="4280" height="3607" viewBox="0 0 4280 3607" fill="none" xmlns="http://www.w3.org/2000/svg">
<g clip-path="url(#clip0_193_2)">
<path d="M3636.77 1471.75H4279.48C4279.48 1471.75 4235.86 1343.23 4118.06 1394.42C4118.06 1394.42 4124.04 1342.29 4081.05 1327.64C4038.05 1313 4011.43 1350.01 4011.43 1350.01C4011.43 1350.01 4007.03 1275.99 3925.6 1284.81C3925.6 1284.81 3974.42 1133.77 3860.4 1046.36C3746.38 958.958 3570.15 987.148 3521.32 1098.18C3521.32 1098.18 3505.42 1063.53 3475.02 1064.48C3439.43 1065.58 3428.41 1093.3 3428.41 1093.3C3428.41 1093.3 3403.99 940.059 3257.37 938.956C3110.75 937.854 3098.46 1063.37 3096.26 1106.68C3096.26 1106.68 3051.22 1098.81 3019.56 1131.09C2986.17 1165.11 2986.17 1212.2 2986.17 1212.2L3636.77 1471.75Z" fill="url(#paint0_linear_193_2)"/>
<path d="M1003.06 1250.16C892.025 1216.46 754.851 1234.25 650.907 1313.94C473.731 1449.7 549.641 1684.2 549.641 1684.2C423.176 1670.34 416.247 1785.47 416.247 1785.47C416.247 1785.47 374.827 1727.99 308.208 1750.66C241.433 1773.34 250.725 1854.45 250.725 1854.45C67.8783 1775.07 0 1974.62 0 1974.62H991.716L1003.06 1250.16Z" fill="url(#paint1_linear_193_2)"/>
<path d="M3657.55 1369.22V3520.38H950.296L994.709 671.539L3657.55 1369.22Z" fill="url(#paint2_linear_193_2)"/>
<path d="M2131 2302.19C2131 2302.19 2952.31 1646.25 3390.61 1299.3L994.709 671.539L950.296 3520.38H2159.51L2131 2302.19Z" fill="url(#paint3_linear_193_2)"/>
<path d="M3864.81 3433.76H768.081V3607H3864.81V3433.76Z" fill="url(#paint4_linear_193_2)"/>
<path d="M3375.17 2774.82H1120.23V2948.06H3375.17V2774.82Z" fill="url(#paint5_linear_193_2)"/>
<path d="M3234.38 2535.75H1258.03V2676.71H3234.38V2535.75Z" fill="url(#paint6_linear_193_2)"/>
<path d="M3166.82 2361.41H1384.81V2471.02H3166.82V2361.41Z" fill="url(#paint7_linear_193_2)"/>
<path d="M3058.62 2192.58H1534.9V2302.19H3058.62V2192.58Z" fill="url(#paint8_linear_193_2)"/>
<path d="M2956.25 2056.19H1657.9V2139.03H2956.25V2056.19Z" fill="url(#paint9_linear_193_2)"/>
<path d="M3536.13 3070.9H950.297V3267.14H3536.13V3070.9Z" fill="url(#paint10_linear_193_2)"/>
<path d="M3536.13 3267.14L3864.81 3433.76H768.08L950.296 3267.14H3536.13Z" fill="url(#paint11_linear_193_2)"/>
<path d="M1120.23 2774.82L1258.03 2676.7H3234.38L3375.17 2774.82H1120.23Z" fill="url(#paint12_linear_193_2)"/>
<path d="M950.297 3070.9L1120.23 2948.06H3375.18L3536.13 3070.9H950.297Z" fill="url(#paint13_linear_193_2)"/>
<path d="M1258.03 2535.75L1384.81 2471.02H3166.66L3234.38 2535.75H1258.03Z" fill="url(#paint14_linear_193_2)"/>
<path d="M1384.81 2361.41L1534.9 2302.19H3058.62L3166.66 2361.41H1384.81Z" fill="url(#paint15_linear_193_2)"/>
<path d="M1534.9 2192.58L1657.9 2139.03H2956.25L3058.62 2192.58H1534.9Z" fill="url(#paint16_linear_193_2)"/>
<path d="M1657.9 2056.19L1787.04 2008.95H2877.35L2956.25 2056.19H1657.9Z" fill="url(#paint17_linear_193_2)"/>
<path d="M1787.04 2008.94L3035.47 1422.45L994.708 671.537L1270.16 643.504L3657.55 1369.22L2857.98 2011.62L1787.04 2008.94Z" fill="url(#paint18_linear_193_2)"/>
<path d="M1903.27 3253.75C1903.27 3253.75 2039.5 3321.15 2175.41 3253.75L1994.3 3147.91L1903.27 3253.75Z" fill="url(#paint19_linear_193_2)"/>
<path d="M2530.55 2418.42V2519.06C2530.55 2519.06 2507.56 2533.23 2449.76 2535.28C2391.96 2537.48 2352.75 2519.69 2352.75 2519.69L2356.68 2480.79L2363.14 2418.26H2530.55V2418.42Z" fill="url(#paint20_linear_193_2)"/>
<path d="M2571.03 2220.14C2560.48 2330.22 2549.61 2429.6 2549.61 2429.6C2502.36 2438.26 2437.95 2436.69 2392.91 2434.01C2390.54 2433.85 2388.34 2433.7 2386.13 2433.54C2358.26 2431.65 2339.36 2429.6 2339.36 2429.6V2059.34L2589.61 1948.31C2591.19 1993.04 2581.42 2111.79 2571.03 2220.14Z" fill="url(#paint21_linear_193_2)"/>
<path d="M2571.03 2220.14C2517.17 2115.72 2383.93 2131.63 2339.52 2140.29V2059.18L2589.77 1948.15C2591.19 1993.04 2581.42 2111.79 2571.03 2220.14Z" fill="url(#paint22_linear_193_2)"/>
<path d="M2392.91 2434.01C2390.54 2433.85 2388.34 2433.7 2386.14 2433.54L2377.47 2060.92L2384.25 2060.76L2392.91 2434.01Z" fill="url(#paint23_linear_193_2)"/>
<path d="M2130.84 3217.53V3343.68C2130.84 3362.73 2130.84 3375.96 2130.84 3375.96C2040.76 3423.37 1930.67 3375.96 1930.67 3375.96C1930.67 3363.83 1932.41 3347.93 1934.93 3330.92C1942.8 3279.42 1958.71 3217.53 1958.71 3217.53H2130.84Z" fill="url(#paint24_linear_193_2)"/>
<path d="M2469.76 2077.14C2379.36 2101.55 2320.93 2066.74 2320.93 2066.74L2299.83 2072.41L2299.04 2076.19L2175.41 2678.43V3253.75C2163.44 3247.6 2150.69 3243.04 2137.77 3239.41C2135.57 3238.78 2133.21 3238.16 2131 3237.68C2027.69 3212.64 1903.43 3253.75 1903.43 3253.75L1923.59 2861.44L1931.78 2700.64L1994.3 2009.42L2162.5 1865.47L2447.56 1835.86L2605.2 1908.78C2605.36 1908.78 2621.11 2036.35 2469.76 2077.14Z" fill="url(#paint25_linear_193_2)"/>
<path d="M2175.41 3174.53V3253.75C2163.44 3247.61 2150.69 3243.04 2137.77 3239.42C2135.57 3238.79 2133.21 3238.16 2131 3237.69C2027.69 3212.64 1903.43 3253.75 1903.43 3253.75L1923.59 2861.44C1954.3 2970.11 2025.95 3142.56 2175.41 3174.53Z" fill="url(#paint26_linear_193_2)"/>
<path d="M2129.11 1493.16L2096.2 1622.46L2064.7 1746.88C2013.36 1742.16 1969.1 1730.5 1933.19 1717.27C1932.72 1717.11 1932.25 1716.96 1931.62 1716.8C1872.87 1694.12 1846.1 1625.61 1873.66 1568.76L1925.32 1461.98L2129.11 1493.16Z" fill="url(#paint27_linear_193_2)"/>
<path d="M2096.2 1622.46L2064.7 1746.88C2013.36 1742.16 1969.1 1730.5 1933.19 1717.27C1932.72 1717.12 1932.25 1716.96 1931.62 1716.8C2051.63 1645.77 2061.55 1508.6 2061.55 1508.6L2096.2 1622.46Z" fill="url(#paint28_linear_193_2)"/>
<path d="M2134.47 1198.66L2093.83 1371.43L2070.21 1471.75L2069.74 1473.79L2057.61 1525.45C2049.74 1519.47 2039.03 1513.8 2026.74 1508.6C1975.56 1486.55 1898.7 1471.75 1898.7 1471.75C1904.69 1454.26 1910.83 1437.89 1917.29 1422.45C1923.27 1408.28 1929.41 1395.05 1935.71 1382.76C2021.7 1214.09 2134.47 1198.66 2134.47 1198.66Z" fill="url(#paint29_linear_193_2)"/>
<path d="M2098.56 1450.64L2069.89 1473.79L2026.9 1508.44C1975.72 1486.39 1898.86 1471.59 1898.86 1471.59C1904.84 1454.11 1910.99 1437.73 1917.44 1422.29C1923.43 1408.12 1929.57 1394.89 1935.87 1382.61C1974.46 1377.72 2054.78 1353.94 2086.43 1241.97L2093.99 1371.11L2098.56 1450.64Z" fill="url(#paint30_linear_193_2)"/>
<path d="M2070.21 1471.74L2057.61 1525.45C2016.51 1494.42 1898.86 1471.74 1898.86 1471.74C1904.84 1454.26 1910.99 1437.88 1917.44 1422.45C1952.25 1428.12 2027.37 1442.77 2070.21 1471.74Z" fill="url(#paint31_linear_193_2)"/>
<path d="M2470.71 963.842C2471.02 971.716 2469.61 979.433 2466.61 986.678C2436.53 1058.65 2346.76 1070.15 2346.76 1070.15L2354.17 1096.13L2194.31 1145.74L2197.93 1080.54C2118.4 1062.27 2091.94 1010.46 2083.44 983.371C2081.55 977.544 2087.38 971.874 2093.05 974.236C2103.76 978.331 2111.94 977.544 2111.94 977.544C2101.71 897.223 2116.51 853.756 2123.76 837.85L2125.8 833.755C2113.05 853.126 2031.62 967.937 1893.35 979.433C1891.46 979.591 1889.57 979.748 1887.68 979.906C1800.9 985.261 1760.58 935.336 1742 890.294C1736.96 877.695 1733.34 865.725 1730.98 855.331C1726.72 836.275 1726.09 822.888 1726.09 822.888C1726.09 822.888 1752.08 841.157 1798.22 841.787C1834.92 842.417 1884.37 831.865 1943.43 791.705C2001.54 752.175 2059.34 739.261 2105.96 737.371C2165.81 734.851 2207.07 750.128 2207.07 750.128C2209.27 749.183 2211.48 748.395 2213.68 747.608C2224.08 744.143 2235.26 742.253 2246.28 741.308C2248.96 740.993 2251.8 740.836 2254.47 740.836C2266.13 740.206 2277.15 740.678 2286.92 741.466C2290.54 741.781 2294 742.096 2297.15 742.568C2311.49 744.3 2321.09 746.663 2321.09 746.663C2318.57 741.938 2315.42 737.686 2311.64 733.749C2274.63 694.533 2181.4 688.706 2153.36 686.974C2147.38 686.659 2141.4 686.186 2135.41 685.242C2116.67 682.249 2099.82 677.682 2084.54 671.697C1962.17 623.663 1943.59 488.536 1943.59 411.208C1943.59 377.663 1947.05 354.984 1947.05 354.984C1959.81 386.797 1981.07 410.106 2007.69 428.217C2089.9 484.126 2221.4 490.111 2295.89 546.178C2358.26 592.952 2382.36 673.43 2391.49 726.189C2396.84 756.742 2397.16 778.003 2397.16 778.003C2461.57 820.211 2450.55 913.602 2450.55 913.602C2466.77 925.887 2470.24 949.51 2470.71 963.842Z" fill="url(#paint32_linear_193_2)"/>
<path d="M2246.28 741.463L2244.08 792.805C2243.61 801.309 2236.68 807.924 2228.33 807.924H2227.54C2218.88 807.609 2212.27 800.364 2212.42 791.702L2213.68 747.92C2224.24 744.298 2235.42 742.25 2246.28 741.463Z" fill="url(#paint33_linear_193_2)"/>
<path d="M2330.07 729.336L2327.39 789.812C2327.08 798.317 2319.99 804.931 2311.49 804.931H2310.86C2302.19 804.459 2295.58 797.372 2295.74 788.71L2297 742.565C2311.33 744.298 2320.93 746.66 2320.93 746.66C2318.41 741.935 2315.26 737.683 2311.49 733.746L2330.07 729.336Z" fill="url(#paint34_linear_193_2)"/>
<path d="M2286.92 741.463L2284.71 810.286C2284.4 818.791 2277.31 825.405 2268.81 825.405H2268.18C2259.51 824.933 2252.9 817.846 2253.06 809.184L2254.47 740.833C2266.13 740.203 2277.15 740.675 2286.92 741.463Z" fill="url(#paint35_linear_193_2)"/>
<path d="M2197.93 1080.38C2197.93 1080.38 2226.44 1046.21 2268.65 1054.4C2268.65 1054.4 2228.33 1066.53 2195.73 1119.44L2197.93 1080.38Z" fill="url(#paint36_linear_193_2)"/>
<path d="M2348.97 756.74C2343.46 752.33 2320.93 746.503 2320.93 746.503C2294.16 695.634 2184.08 688.704 2153.21 686.657C2147.22 686.342 2141.24 685.869 2135.25 684.924C1902.17 647.599 1946.74 354.51 1946.74 354.51C1958.55 602.557 2184.39 555.94 2263.61 605.549C2343.14 655.316 2348.97 756.74 2348.97 756.74Z" fill="url(#paint37_linear_193_2)"/>
<path d="M2084.54 671.538C1909.1 602.715 1946.89 354.668 1946.89 354.668C1959.65 386.481 1980.91 409.79 2007.53 427.901C2003.28 490.267 2008.79 600.038 2084.54 671.538Z" fill="url(#paint38_linear_193_2)"/>
<path opacity="0.6" d="M2391.49 725.715C2390.86 722.88 2347.39 536.569 2134.31 503.496C2023.12 486.172 1968.79 442.075 1943.59 410.892C1943.59 377.347 1947.05 354.668 1947.05 354.668C1959.81 386.481 1981.07 409.79 2007.69 427.901C2089.9 483.81 2221.4 489.795 2295.89 545.861C2358.1 592.636 2382.2 672.956 2391.49 725.715Z" fill="#FFCA83"/>
<path d="M2163.13 780.519C2145.33 798.315 2125.96 833.593 2125.96 833.593C2112.89 853.122 2029.58 970.925 1887.84 979.587C1801.06 984.941 1760.74 935.017 1742.16 889.975C1788.78 918.953 1881.22 921.63 1969.26 854.382C2084.54 766.502 2163.13 780.519 2163.13 780.519Z" fill="url(#paint39_linear_193_2)"/>
<path d="M1893.35 979.274C1891.46 979.431 1889.57 979.589 1887.68 979.746C1800.9 985.101 1760.58 935.177 1742 890.134C1727.51 854.857 1726.25 822.729 1726.25 822.729C1726.25 822.729 1752.24 840.997 1798.38 841.627C1806.57 877.693 1830.35 949.351 1893.35 979.274Z" fill="url(#paint40_linear_193_2)"/>
<path opacity="0.6" d="M2105.96 737.367C2021.86 749.966 1960.91 803.356 1879.49 850.288C1827.05 880.526 1759.48 865.092 1730.98 855.327C1726.72 836.271 1726.09 822.884 1726.09 822.884C1726.09 822.884 1752.08 841.153 1798.22 841.783C1834.92 842.413 1884.37 831.861 1943.43 791.701C2001.7 752.171 2059.5 739.257 2105.96 737.367Z" fill="#FFCA83"/>
<path d="M2134.47 1198.66L2138.72 1174.56C2140.92 1161.81 2150.21 1151.41 2162.66 1147.48L2342.98 1091.88C2354.48 1088.26 2367.08 1091.09 2376.21 1099.13L2389.6 1111.09L2134.47 1198.66Z" fill="url(#paint41_linear_193_2)"/>
<path d="M2605.36 1908.78C2379.36 1801.38 1994.46 2009.42 1994.46 2009.42C1994.46 2009.42 1994.46 2002.81 2005.48 1937.6C2010.05 1910.67 2016.51 1873.66 2025.64 1823.11C2035.88 1765.63 2042.33 1722.63 2045.8 1685.46C2047.53 1667.35 2048.63 1650.5 2049.11 1634.12C2049.58 1616.01 2049.58 1598.53 2048.95 1579.94C2047.85 1547.5 2045.17 1512.38 2041.86 1467.34C2041.7 1464.35 2041.39 1461.2 2041.23 1458.05C2040.76 1450.8 2040.29 1443.56 2040.29 1436.47C2038.71 1364.97 2056.51 1305.6 2074.15 1265.12C2089.74 1229.21 2119.66 1201.5 2156.83 1189.21L2463.46 1086.53L2476.85 1181.65L2507.25 1398.04L2510.08 1417.89L2519.37 1465.61L2545.04 1597.27L2568.82 1719.32L2591.66 1836.81L2605.36 1908.78Z" fill="url(#paint42_linear_193_2)"/>
<path d="M2544.73 1597.11C2374.64 1587.5 2417.95 1196.92 2417.95 1196.92L2476.53 1181.49L2509.76 1417.57L2544.73 1597.11Z" fill="url(#paint43_linear_193_2)"/>
<path d="M2605.36 1908.78C2379.36 1801.37 1994.46 2009.42 1994.46 2009.42C1994.46 2009.42 1994.46 2002.8 2005.48 1937.6C2010.05 1910.67 2016.51 1873.66 2025.64 1823.11C2035.88 1765.62 2042.33 1722.63 2045.8 1685.46C2135.25 1721.05 2361.57 1794.13 2568.51 1719L2591.35 1836.49L2605.36 1908.78Z" fill="url(#paint44_linear_193_2)"/>
<path d="M2048.95 1634.12C2049.42 1616.01 2049.42 1598.53 2048.79 1579.94C2047.69 1547.5 2045.01 1512.38 2041.7 1467.34L2432.75 1352.37L2506.93 1397.88L2509.77 1417.73L2519.06 1465.45C2326.6 1495.69 2096.83 1609.55 2048.95 1634.12Z" fill="url(#paint45_linear_193_2)"/>
<path d="M2509.76 1417.73C2365.98 1432.85 2135.88 1538.21 2048.79 1579.94C2047.69 1545.29 2044.7 1507.5 2041.07 1458.04C2040.6 1450.8 2040.13 1443.55 2040.13 1436.47C2174.31 1336.3 2440.94 1282.6 2440.94 1282.6L2509.76 1417.73Z" fill="url(#paint46_linear_193_2)"/>
<path d="M2493.39 1532.06C2493.39 1532.06 2600.17 1550.65 2704.58 1428.43L2609.77 1410.48L2501.73 1471.74L2493.39 1532.06Z" fill="url(#paint47_linear_193_2)"/>
<path d="M2914.04 2106.75C2897.82 2136.35 2859.24 2134.94 2838.6 2119.35C2819.71 2105.17 2784.59 1986.11 2784.59 1986.11C2784.59 1986.11 2744.58 2060.92 2733.4 2056.51C2722.38 2052.1 2731.2 1972.88 2728.99 1950.67C2726.79 1928.47 2746.47 1854.45 2746.47 1854.45C2735.92 1844.84 2725.68 1834.45 2715.92 1823.42C2607.57 1702 2539.06 1503.56 2526.46 1464.97C2525.04 1460.72 2524.41 1458.36 2524.41 1458.36C2524.41 1458.36 2539.22 1451.9 2559.69 1443.87C2602.84 1426.7 2671.35 1401.98 2677.33 1413.95C2679.38 1418.04 2686.94 1434.11 2697.81 1457.41C2734.5 1536.32 2807.58 1696.48 2819.55 1735.38C2832.31 1776.65 2881.6 1865.79 2899.24 1896.97C2903.49 1904.37 2906.17 1912.56 2907.43 1920.91C2912.47 1960.91 2927.59 2082.18 2914.04 2106.75Z" fill="url(#paint48_linear_193_2)"/>
<path d="M2715.76 1823.11C2607.41 1701.68 2538.9 1503.24 2526.3 1464.66L2559.37 1443.55C2602.53 1426.39 2671.03 1401.66 2677.02 1413.63C2679.07 1417.73 2686.63 1433.79 2697.49 1457.1C2647.57 1482.3 2551.5 1567.97 2715.76 1823.11Z" fill="url(#paint49_linear_193_2)"/>
<path d="M2704.42 1428.44C2529.61 1428.44 2493.23 1532.06 2493.23 1532.06C2493.23 1532.06 2487.09 1512.69 2477.95 1482.61C2459.05 1420.56 2427.4 1313.31 2411.96 1238.82C2389.13 1128.42 2463.15 1086.21 2463.15 1086.21C2490.71 1083.69 2519.21 1102.27 2539.06 1119.28C2554.49 1132.51 2566.93 1148.73 2575.75 1166.84L2683 1384.81L2689.62 1398.51L2704.42 1428.44Z" fill="url(#paint50_linear_193_2)"/>
<path d="M2704.42 1428.44C2529.61 1428.44 2493.23 1532.06 2493.23 1532.06C2493.23 1532.06 2487.09 1512.69 2477.95 1482.61C2459.05 1420.56 2427.4 1313.31 2411.96 1238.82C2389.13 1128.42 2463.15 1086.21 2463.15 1086.21C2463.15 1086.21 2423.46 1419.46 2689.93 1398.51L2704.42 1428.44Z" fill="url(#paint51_linear_193_2)"/>
<path d="M2471.97 1252.84C2471.97 1252.84 2443.15 1239.45 2440.94 1223.07C2438.74 1206.69 2459.68 1200.23 2468.66 1209.84C2468.66 1209.84 2442.04 1171.41 2474.8 1159.6C2504.25 1149.05 2513.54 1191.73 2513.54 1191.73C2513.54 1191.73 2519.37 1170.78 2534.81 1172.52C2550.24 1174.25 2558.27 1210.31 2542.68 1227.32L2471.97 1252.84Z" fill="url(#paint52_linear_193_2)"/>
<path d="M2484.72 1241.97C2484.25 1242.28 2483.62 1242.28 2483.15 1241.97L2461.41 1225.9C2460.94 1225.59 2460.78 1224.8 2461.26 1224.17C2461.73 1223.7 2462.52 1223.54 2463.15 1224.01L2484.88 1240.08C2485.35 1240.39 2485.51 1241.18 2485.04 1241.81C2484.88 1241.81 2484.72 1241.97 2484.72 1241.97Z" fill="url(#paint53_linear_193_2)"/>
<path d="M2501.1 1230C2500.94 1230 2500.94 1230.16 2500.79 1230.16C2500.16 1230.47 2499.37 1230.16 2499.21 1229.53L2480.31 1183.38C2480 1182.75 2480.47 1182.12 2481.1 1181.81C2481.73 1181.49 2482.52 1181.81 2482.68 1182.44L2501.57 1228.58C2501.73 1229.21 2501.57 1229.68 2501.1 1230Z" fill="url(#paint54_linear_193_2)"/>
<path d="M2527.88 1226.53C2527.56 1226.69 2527.4 1226.85 2527.09 1226.85C2526.46 1226.85 2525.83 1226.22 2525.99 1225.59L2528.98 1198.19C2528.98 1197.56 2529.61 1197.08 2530.4 1197.08C2531.03 1197.08 2531.66 1197.71 2531.5 1198.34L2528.51 1225.75C2528.51 1226.06 2528.19 1226.38 2527.88 1226.53Z" fill="url(#paint55_linear_193_2)"/>
<path d="M2575.28 1279.61C2575.75 1282.6 2576.07 1285.59 2576.54 1288.43C2580.48 1323.86 2574.34 1360.08 2553.07 1367.64C2540.16 1372.37 2524.88 1365.28 2510.55 1352.37C2508.19 1350.16 2505.83 1347.96 2503.62 1345.59C2490.39 1331.58 2478.42 1313.15 2470.55 1295.04C2469.29 1292.36 2468.34 1289.53 2467.24 1286.85C2466.45 1284.65 2465.67 1282.44 2465.04 1280.24C2451.81 1236.93 2500.32 1219.6 2500.32 1219.6C2500.32 1219.6 2548.66 1202.28 2565.83 1244.17C2569.93 1254.72 2573.23 1267.01 2575.28 1279.61Z" fill="url(#paint56_linear_193_2)"/>
<path d="M2518.58 1272.68L2518.9 1273.47C2519.69 1275.51 2518.43 1277.88 2516.06 1278.66L2470.39 1295.04C2469.13 1292.36 2468.19 1289.53 2467.09 1286.85L2513.07 1270.32C2515.43 1269.69 2517.95 1270.63 2518.58 1272.68Z" fill="url(#paint57_linear_193_2)"/>
<path d="M2575.28 1279.61C2575.75 1282.6 2576.07 1285.59 2576.54 1288.43L2540 1301.5C2537.64 1302.29 2535.28 1301.34 2534.49 1299.3L2534.18 1298.51C2533.39 1296.46 2534.65 1294.1 2537.01 1293.31L2575.28 1279.61Z" fill="url(#paint58_linear_193_2)"/>
<path d="M2547.25 1334.1L2547.56 1334.89C2548.35 1336.94 2547.09 1339.3 2544.73 1340.09L2510.39 1352.37C2508.03 1350.16 2505.67 1347.96 2503.46 1345.6L2541.89 1331.9C2544.1 1331.11 2546.62 1332.05 2547.25 1334.1Z" fill="url(#paint59_linear_193_2)"/>
<path d="M2704.42 1428.44C2529.61 1428.44 2493.23 1532.07 2493.23 1532.07C2493.23 1532.07 2487.09 1512.69 2477.95 1482.61C2497.32 1451.27 2558.59 1373.94 2683.16 1384.97L2704.42 1428.44Z" fill="url(#paint60_linear_193_2)"/>
<path d="M2914.04 2110.06C2912.63 2110.06 2911.37 2109.27 2910.89 2107.85L2860.5 1976.19C2806.63 1961.86 2798.6 1913.19 2798.6 1912.72C2798.29 1910.83 2799.55 1909.1 2801.44 1908.78C2803.33 1908.47 2805.06 1909.73 2805.37 1911.62C2805.69 1913.51 2812.93 1957.29 2863.96 1969.89L2865.69 1970.36L2917.35 2105.33C2917.98 2107.06 2917.19 2109.11 2915.46 2109.74C2914.83 2110.06 2914.52 2110.06 2914.04 2110.06Z" fill="#F87C38"/>
<path d="M2880.65 2133.05C2879.24 2133.05 2877.98 2132.26 2877.5 2130.84L2831.2 2016.19C2830.57 2014.46 2831.36 2012.41 2833.09 2011.78C2834.82 2011.15 2836.87 2011.94 2837.5 2013.67L2883.8 2128.32C2884.43 2130.06 2883.65 2132.1 2881.91 2132.73C2881.6 2132.89 2881.13 2133.05 2880.65 2133.05Z" fill="#F87C38"/>
<path d="M2605.36 1908.78C2379.36 1801.37 1994.46 2009.41 1994.46 2009.41C1994.46 2009.41 1994.46 2002.8 2005.48 1937.6C2086.9 1893.03 2383.62 1745.62 2591.35 1836.49L2605.36 1908.78Z" fill="url(#paint61_linear_193_2)"/>
<path d="M2300.78 2075.56L2299.04 2076.03L2265.03 2086.74L2137.77 2696.54V3239.41C2135.57 3238.78 2133.21 3238.15 2131 3237.68V2695.6L2259.2 2081.55L2298.89 2069.1L2299.83 2072.41L2300.78 2075.56Z" fill="url(#paint62_linear_193_2)"/>
<path d="M2160.92 2095.25C2082.18 2119.03 2052.57 2078.39 2041.55 2050.2C2036.51 2036.97 2035.4 2026.42 2035.4 2026.42L2223.13 1967.52C2223.13 1967.52 2226.12 1979.18 2226.44 1995.55C2227.23 2027.68 2218.56 2077.76 2160.92 2095.25Z" fill="url(#paint63_linear_193_2)"/>
<path d="M2226.44 1995.71L2041.55 2050.2C2036.51 2036.97 2035.4 2026.42 2035.4 2026.42L2223.13 1967.52C2223.13 1967.52 2226.12 1979.18 2226.44 1995.71Z" fill="url(#paint64_linear_193_2)"/>
<path d="M2471.49 2021.7C2390.54 2035.56 2365.98 1991.78 2358.57 1962.33C2355.11 1948.63 2355.42 1937.92 2355.42 1937.92L2548.98 1902.64C2548.98 1902.64 2550.4 1914.61 2548.82 1930.99C2545.52 1962.8 2530.71 2011.46 2471.49 2021.7Z" fill="url(#paint65_linear_193_2)"/>
<path d="M2548.67 1930.99L2358.57 1962.33C2355.11 1948.63 2355.42 1937.92 2355.42 1937.92L2548.98 1902.64C2548.98 1902.64 2550.4 1914.61 2548.67 1930.99Z" fill="url(#paint66_linear_193_2)"/>
<path d="M2130.84 3343.68C2130.84 3362.73 2130.84 3375.96 2130.84 3375.96C2040.76 3423.37 1930.67 3375.96 1930.67 3375.96C1930.67 3363.84 1932.41 3347.93 1934.93 3330.92C1964.38 3345.41 2035.72 3371.55 2130.84 3343.68Z" fill="url(#paint67_linear_193_2)"/>
<path d="M2530.55 2471.02V2519.22C2530.55 2519.22 2507.56 2533.39 2449.76 2535.44C2391.96 2537.64 2352.75 2519.85 2352.75 2519.85L2356.68 2480.95C2373.54 2486.46 2407.71 2495.91 2441.57 2493.23C2477.01 2490.55 2514.02 2477.48 2530.55 2471.02Z" fill="url(#paint68_linear_193_2)"/>
<path d="M1836.34 127.883V536.57C1820.9 550.429 1802.16 561.138 1780.74 568.698C1697.75 598.306 1576.95 581.14 1475.68 524.128C1441.51 504.914 1409.7 496.41 1381.35 494.363C1304.33 488.535 1253.62 529.955 1253.62 529.955L1257.25 254.032L1258.98 127.725C1368.12 15.4346 1469.54 121.583 1611.6 165.995C1684.83 188.989 1742.32 177.965 1780.74 162.058C1816.97 147.254 1836.34 127.883 1836.34 127.883Z" fill="url(#paint69_linear_193_2)"/>
<path d="M1381.35 494.361C1304.33 488.534 1253.62 529.954 1253.62 529.954L1257.25 254.031C1271.58 315.767 1305.91 424.751 1381.35 494.361Z" fill="url(#paint70_linear_193_2)"/>
<path d="M1836.34 127.883V536.57C1820.9 550.429 1802.16 561.139 1780.74 568.698V162.216C1816.97 147.254 1836.34 127.883 1836.34 127.883Z" fill="url(#paint71_linear_193_2)"/>
<path d="M1528.29 460.66C1601.09 460.66 1660.11 401.643 1660.11 328.841C1660.11 256.039 1601.09 197.021 1528.29 197.021C1455.48 197.021 1396.47 256.039 1396.47 328.841C1396.47 401.643 1455.48 460.66 1528.29 460.66Z" fill="url(#paint72_linear_193_2)"/>
<path d="M1528.29 420.657C1578.99 420.657 1620.1 379.549 1620.1 328.84C1620.1 278.131 1578.99 237.023 1528.29 237.023C1477.58 237.023 1436.47 278.131 1436.47 328.84C1436.47 379.549 1477.58 420.657 1528.29 420.657Z" fill="url(#paint73_linear_193_2)"/>
<path d="M1524.82 347.27L1495.69 351.208L1481.83 290.731C1479.15 279.077 1487.02 267.738 1498.84 266.163C1510.65 264.588 1521.36 273.407 1521.83 285.219L1524.82 347.27Z" fill="url(#paint74_linear_193_2)"/>
<path d="M1533.33 347.428L1562.3 352.468L1578.21 292.464C1581.2 280.967 1573.8 269.313 1561.99 267.266C1550.18 265.218 1539.31 273.723 1538.37 285.535L1533.33 347.428Z" fill="url(#paint75_linear_193_2)"/>
<path d="M1460.72 371.682C1460.57 379.714 1461.83 387.431 1464.34 394.518C1480.88 410.582 1503.4 420.504 1528.13 420.504C1553.01 420.504 1575.53 410.582 1591.91 394.676C1594.12 388.219 1595.38 381.289 1595.53 374.045C1596.16 336.877 1566.56 306.009 1529.23 305.379C1492.22 304.749 1461.35 334.515 1460.72 371.682Z" fill="url(#paint76_linear_193_2)"/>
<path d="M1504.5 363.02C1504.35 368.06 1501.35 371.997 1497.58 371.839C1493.8 371.839 1490.8 367.745 1490.96 362.705C1491.12 357.665 1494.11 353.728 1497.89 353.885C1501.67 353.885 1504.66 357.98 1504.5 363.02Z" fill="url(#paint77_linear_193_2)"/>
<path d="M1565.14 363.963C1564.98 369.003 1561.99 372.94 1558.21 372.783C1554.43 372.783 1551.44 368.688 1551.59 363.648C1551.75 358.609 1554.74 354.671 1558.52 354.829C1562.15 354.986 1565.14 359.081 1565.14 363.963Z" fill="url(#paint78_linear_193_2)"/>
<path d="M1264.33 94.4941H1204.64V589.959H1264.33V94.4941Z" fill="url(#paint79_linear_193_2)"/>
<path d="M1264.33 688.547V94.4941H1204.64V688.547C1204.64 700.044 1213.94 709.336 1225.43 709.336H1243.54C1255.04 709.336 1264.33 700.044 1264.33 688.547Z" fill="url(#paint80_linear_193_2)"/>
<path d="M1234.41 107.723C1264.16 107.723 1288.27 83.6087 1288.27 53.8617C1288.27 24.1147 1264.16 0 1234.41 0C1204.66 0 1180.55 24.1147 1180.55 53.8617C1180.55 83.6087 1204.66 107.723 1234.41 107.723Z" fill="url(#paint81_linear_193_2)"/>
<path d="M1212.83 53.8617C1212.83 29.4507 1231.89 9.29193 1257.09 5.03969C1250.16 1.88988 1242.6 0 1234.57 0C1204.8 0 1180.71 24.096 1180.71 53.8617C1180.71 83.6273 1204.8 107.723 1234.57 107.723C1242.6 107.723 1250.32 105.833 1257.09 102.684C1231.89 98.4314 1212.83 78.1152 1212.83 53.8617Z" fill="url(#paint82_linear_193_2)"/>
<path d="M3519.75 2408.82V2606.15H3445.73V2394.17L3519.75 2408.82Z" fill="url(#paint83_linear_193_2)"/>
<path d="M3445.73 2426.61V2599.85L3211.7 1970.52L3445.73 2056.19V2182.34L3928.59 2979.09V3230.76L3445.73 2426.61Z" fill="url(#paint84_linear_193_2)"/>
<path d="M3519.75 2056.2H3445.73V2182.19H3519.75V2056.2Z" fill="url(#paint85_linear_193_2)"/>
<path d="M3211.7 1970.52H3297.22L3519.75 2056.19H3445.73L3211.7 1970.52Z" fill="url(#paint86_linear_193_2)"/>
<path d="M3519.75 2182.34L4025.61 2979.09H3928.59L3445.73 2182.34H3519.75Z" fill="url(#paint87_linear_193_2)"/>
<path d="M4025.61 2979.09H3928.6V3230.91H4025.61V2979.09Z" fill="url(#paint88_linear_193_2)"/>
<path d="M1033.14 2408.82V2606.15H1107.31V2394.17L1033.14 2408.82Z" fill="url(#paint89_linear_193_2)"/>
<path d="M1107.31 2426.61V2599.85L1341.19 1970.52L1107.31 2056.19V2182.34L624.449 2979.09V3230.76L1107.31 2426.61Z" fill="url(#paint90_linear_193_2)"/>
<path d="M1107.16 2056.2H1033.14V2182.19H1107.16V2056.2Z" fill="url(#paint91_linear_193_2)"/>
<path d="M1341.19 1970.52H1255.67L1033.14 2056.19H1107.31L1341.19 1970.52Z" fill="url(#paint92_linear_193_2)"/>
<path d="M1033.14 2182.34L527.435 2979.09H624.449L1107.31 2182.34H1033.14Z" fill="url(#paint93_linear_193_2)"/>
<path d="M624.449 2979.09H527.435V3230.91H624.449V2979.09Z" fill="url(#paint94_linear_193_2)"/>
<path d="M2503.47 813.281L2611.98 973.763L2630.88 908.562L3012.47 1037.7L3039.25 941.95L2663.32 833.754L2686.31 765.246L2503.47 813.281Z" fill="url(#paint95_linear_193_2)"/>
</g>
<defs>
<linearGradient id="paint0_linear_193_2" x1="3632.89" y1="2464.83" x2="3632.89" y2="717.317" gradientUnits="userSpaceOnUse">
<stop stop-color="white"/>
<stop offset="1" stop-color="#B5E0F7"/>
</linearGradient>
<linearGradient id="paint1_linear_193_2" x1="501.513" y1="2464.83" x2="501.513" y2="717.319" gradientUnits="userSpaceOnUse">
<stop stop-color="white"/>
<stop offset="1" stop-color="#B5E0F7"/>
</linearGradient>
<linearGradient id="paint2_linear_193_2" x1="2303.88" y1="6289.25" x2="2303.88" y2="994.849" gradientUnits="userSpaceOnUse">
<stop stop-color="#03192E"/>
<stop offset="0.5" stop-color="#223C6A"/>
<stop offset="1" stop-color="#4A74A2"/>
</linearGradient>
<linearGradient id="paint3_linear_193_2" x1="2170.43" y1="3055.46" x2="2170.43" y2="-1138.92" gradientUnits="userSpaceOnUse">
<stop stop-color="#03192E"/>
<stop offset="0.5" stop-color="#223C6A"/>
<stop offset="1" stop-color="#4A74A2"/>
</linearGradient>
<linearGradient id="paint4_linear_193_2" x1="-4667.29" y1="3520.35" x2="3056.58" y2="3520.35" gradientUnits="userSpaceOnUse">
<stop stop-color="#03192E"/>
<stop offset="0.5" stop-color="#223C6A"/>
<stop offset="1" stop-color="#4A74A2"/>
</linearGradient>
<linearGradient id="paint5_linear_193_2" x1="-4667.29" y1="2861.42" x2="3056.58" y2="2861.42" gradientUnits="userSpaceOnUse">
<stop stop-color="#03192E"/>
<stop offset="0.5" stop-color="#223C6A"/>
<stop offset="1" stop-color="#4A74A2"/>
</linearGradient>
<linearGradient id="paint6_linear_193_2" x1="-4667.29" y1="2606.16" x2="3056.58" y2="2606.16" gradientUnits="userSpaceOnUse">
<stop stop-color="#03192E"/>
<stop offset="0.5" stop-color="#223C6A"/>
<stop offset="1" stop-color="#4A74A2"/>
</linearGradient>
<linearGradient id="paint7_linear_193_2" x1="-4667.29" y1="2416.21" x2="3056.58" y2="2416.21" gradientUnits="userSpaceOnUse">
<stop stop-color="#03192E"/>
<stop offset="0.5" stop-color="#223C6A"/>
<stop offset="1" stop-color="#4A74A2"/>
</linearGradient>
<linearGradient id="paint8_linear_193_2" x1="-4667.29" y1="2247.39" x2="3056.58" y2="2247.39" gradientUnits="userSpaceOnUse">
<stop stop-color="#03192E"/>
<stop offset="0.5" stop-color="#223C6A"/>
<stop offset="1" stop-color="#4A74A2"/>
</linearGradient>
<linearGradient id="paint9_linear_193_2" x1="-4667.29" y1="2097.64" x2="3056.58" y2="2097.64" gradientUnits="userSpaceOnUse">
<stop stop-color="#03192E"/>
<stop offset="0.5" stop-color="#223C6A"/>
<stop offset="1" stop-color="#4A74A2"/>
</linearGradient>
<linearGradient id="paint10_linear_193_2" x1="-4667.29" y1="3169.01" x2="3056.58" y2="3169.01" gradientUnits="userSpaceOnUse">
<stop stop-color="#03192E"/>
<stop offset="0.5" stop-color="#223C6A"/>
<stop offset="1" stop-color="#4A74A2"/>
</linearGradient>
<linearGradient id="paint11_linear_193_2" x1="2316.47" y1="4746.95" x2="2316.47" y2="-831.911" gradientUnits="userSpaceOnUse">
<stop stop-color="#386E9F"/>
<stop offset="1" stop-color="white"/>
</linearGradient>
<linearGradient id="paint12_linear_193_2" x1="2247.75" y1="4746.95" x2="2247.75" y2="-831.914" gradientUnits="userSpaceOnUse">
<stop stop-color="#386E9F"/>
<stop offset="1" stop-color="white"/>
</linearGradient>
<linearGradient id="paint13_linear_193_2" x1="2243.16" y1="4746.95" x2="2243.16" y2="-831.91" gradientUnits="userSpaceOnUse">
<stop stop-color="#386E9F"/>
<stop offset="1" stop-color="white"/>
</linearGradient>
<linearGradient id="paint14_linear_193_2" x1="2246.17" y1="4746.95" x2="2246.17" y2="-831.909" gradientUnits="userSpaceOnUse">
<stop stop-color="#386E9F"/>
<stop offset="1" stop-color="white"/>
</linearGradient>
<linearGradient id="paint15_linear_193_2" x1="2275.76" y1="4746.95" x2="2275.76" y2="-831.91" gradientUnits="userSpaceOnUse">
<stop stop-color="#386E9F"/>
<stop offset="1" stop-color="white"/>
</linearGradient>
<linearGradient id="paint16_linear_193_2" x1="2296.76" y1="4746.95" x2="2296.76" y2="-831.912" gradientUnits="userSpaceOnUse">
<stop stop-color="#386E9F"/>
<stop offset="1" stop-color="white"/>
</linearGradient>
<linearGradient id="paint17_linear_193_2" x1="3386.75" y1="4308.06" x2="818.049" y2="-1049.51" gradientUnits="userSpaceOnUse">
<stop stop-color="#386E9F"/>
<stop offset="1" stop-color="white"/>
</linearGradient>
<linearGradient id="paint18_linear_193_2" x1="3777.46" y1="4047.48" x2="1208.76" y2="-1310.09" gradientUnits="userSpaceOnUse">
<stop stop-color="#386E9F"/>
<stop offset="1" stop-color="white"/>
</linearGradient>
<linearGradient id="paint19_linear_193_2" x1="2040.67" y1="3302.78" x2="2028.43" y2="2843.21" gradientUnits="userSpaceOnUse">
<stop stop-color="#03192E"/>
<stop offset="0.5" stop-color="#223C6A"/>
<stop offset="1" stop-color="#4A74A2"/>
</linearGradient>
<linearGradient id="paint20_linear_193_2" x1="2441.63" y1="2646.1" x2="2441.63" y2="2216.21" gradientUnits="userSpaceOnUse">
<stop stop-color="#386E9F"/>
<stop offset="1" stop-color="white"/>
</linearGradient>
<linearGradient id="paint21_linear_193_2" x1="2464.65" y1="1419.88" x2="2464.65" y2="3218.69" gradientUnits="userSpaceOnUse">
<stop stop-color="#03192E"/>
<stop offset="0.5" stop-color="#223C6A"/>
<stop offset="1" stop-color="#4A74A2"/>
</linearGradient>
<linearGradient id="paint22_linear_193_2" x1="2464.65" y1="2361.9" x2="2464.65" y2="1364.52" gradientUnits="userSpaceOnUse">
<stop stop-color="#03192E"/>
<stop offset="0.5" stop-color="#223C6A"/>
<stop offset="1" stop-color="#4A74A2"/>
</linearGradient>
<linearGradient id="paint23_linear_193_2" x1="2385.21" y1="2496.28" x2="2385.21" y2="1402.13" gradientUnits="userSpaceOnUse">
<stop stop-color="#386E9F"/>
<stop offset="1" stop-color="white"/>
</linearGradient>
<linearGradient id="paint24_linear_193_2" x1="2030.8" y1="3692.89" x2="2030.8" y2="2975.99" gradientUnits="userSpaceOnUse">
<stop stop-color="#386E9F"/>
<stop offset="1" stop-color="white"/>
</linearGradient>
<linearGradient id="paint25_linear_193_2" x1="2254.52" y1="1959.3" x2="2254.52" y2="4166.65" gradientUnits="userSpaceOnUse">
<stop stop-color="#03192E"/>
<stop offset="0.5" stop-color="#223C6A"/>
<stop offset="1" stop-color="#4A74A2"/>
</linearGradient>
<linearGradient id="paint26_linear_193_2" x1="2039.36" y1="2461.99" x2="2039.36" y2="4418.53" gradientUnits="userSpaceOnUse">
<stop stop-color="#03192E"/>
<stop offset="0.5" stop-color="#223C6A"/>
<stop offset="1" stop-color="#4A74A2"/>
</linearGradient>
<linearGradient id="paint27_linear_193_2" x1="1801.69" y1="436.898" x2="2011.38" y2="1647.86" gradientUnits="userSpaceOnUse">
<stop stop-color="#FF2A64"/>
<stop offset="1" stop-color="#FFAF48"/>
</linearGradient>
<linearGradient id="paint28_linear_193_2" x1="1791.45" y1="756.31" x2="2060.55" y2="1860.67" gradientUnits="userSpaceOnUse">
<stop stop-color="#FF2A64"/>
<stop offset="1" stop-color="#FFAF48"/>
</linearGradient>
<linearGradient id="paint29_linear_193_2" x1="2068.9" y1="2132.92" x2="2005.98" y2="1171.66" gradientUnits="userSpaceOnUse">
<stop stop-color="#03192E"/>
<stop offset="0.5" stop-color="#223C6A"/>
<stop offset="1" stop-color="#4A74A2"/>
</linearGradient>
<linearGradient id="paint30_linear_193_2" x1="2028.54" y1="2125.88" x2="1976.12" y2="958.603" gradientUnits="userSpaceOnUse">
<stop stop-color="#03192E"/>
<stop offset="0.5" stop-color="#223C6A"/>
<stop offset="1" stop-color="#4A74A2"/>
</linearGradient>
<linearGradient id="paint31_linear_193_2" x1="1985.59" y1="1527.1" x2="1980.04" y2="1226.09" gradientUnits="userSpaceOnUse">
<stop stop-color="#386E9F"/>
<stop offset="1" stop-color="white"/>
</linearGradient>
<linearGradient id="paint32_linear_193_2" x1="2098.53" y1="1868.85" x2="2098.53" y2="808.289" gradientUnits="userSpaceOnUse">
<stop stop-color="#FF2A64"/>
<stop offset="1" stop-color="#FFAF48"/>
</linearGradient>
<linearGradient id="paint33_linear_193_2" x1="2229.43" y1="1163.59" x2="2229.43" y2="690.257" gradientUnits="userSpaceOnUse">
<stop stop-color="#FF2A64"/>
<stop offset="1" stop-color="#FFAF48"/>
</linearGradient>
<linearGradient id="paint34_linear_193_2" x1="2312.96" y1="1163.59" x2="2312.96" y2="690.256" gradientUnits="userSpaceOnUse">
<stop stop-color="#FF2A64"/>
<stop offset="1" stop-color="#FFAF48"/>
</linearGradient>
<linearGradient id="paint35_linear_193_2" x1="2269.97" y1="1163.59" x2="2269.97" y2="690.257" gradientUnits="userSpaceOnUse">
<stop stop-color="#FF2A64"/>
<stop offset="1" stop-color="#FFAF48"/>
</linearGradient>
<linearGradient id="paint36_linear_193_2" x1="2236.14" y1="1331.38" x2="2226.82" y2="746.581" gradientUnits="userSpaceOnUse">
<stop stop-color="#FF2A64"/>
<stop offset="1" stop-color="#FFAF48"/>
</linearGradient>
<linearGradient id="paint37_linear_193_2" x1="2708.25" y1="1490.52" x2="2046.56" y2="460.708" gradientUnits="userSpaceOnUse">
<stop stop-color="#FF2A64"/>
<stop offset="1" stop-color="#FFAF48"/>
</linearGradient>
<linearGradient id="paint38_linear_193_2" x1="2461.15" y1="1264.83" x2="1828.59" y2="233.852" gradientUnits="userSpaceOnUse">
<stop stop-color="#FF2A64"/>
<stop offset="1" stop-color="#FFAF48"/>
</linearGradient>
<linearGradient id="paint39_linear_193_2" x1="3286.84" y1="194.445" x2="1640.78" y2="1036.7" gradientUnits="userSpaceOnUse">
<stop stop-color="#FF2A64"/>
<stop offset="1" stop-color="#FFAF48"/>
</linearGradient>
<linearGradient id="paint40_linear_193_2" x1="2139.89" y1="1461.94" x2="1507.33" y2="430.965" gradientUnits="userSpaceOnUse">
<stop stop-color="#FF2A64"/>
<stop offset="1" stop-color="#FFAF48"/>
</linearGradient>
<linearGradient id="paint41_linear_193_2" x1="2262.07" y1="1331.09" x2="2262.07" y2="951.311" gradientUnits="userSpaceOnUse">
<stop stop-color="#386E9F"/>
<stop offset="1" stop-color="white"/>
</linearGradient>
<linearGradient id="paint42_linear_193_2" x1="2322.82" y1="2635.13" x2="2265.16" y2="941.891" gradientUnits="userSpaceOnUse">
<stop stop-color="#386E9F"/>
<stop offset="1" stop-color="white"/>
</linearGradient>
<linearGradient id="paint43_linear_193_2" x1="2633.93" y1="2070.63" x2="2403.27" y2="1117.71" gradientUnits="userSpaceOnUse">
<stop stop-color="#386E9F"/>
<stop offset="1" stop-color="white"/>
</linearGradient>
<linearGradient id="paint44_linear_193_2" x1="2299.8" y1="2231.17" x2="2299.8" y2="912.28" gradientUnits="userSpaceOnUse">
<stop stop-color="#386E9F"/>
<stop offset="1" stop-color="white"/>
</linearGradient>
<linearGradient id="paint45_linear_193_2" x1="2280.37" y1="1867.22" x2="2280.37" y2="898.923" gradientUnits="userSpaceOnUse">
<stop stop-color="#386E9F"/>
<stop offset="1" stop-color="white"/>
</linearGradient>
<linearGradient id="paint46_linear_193_2" x1="2274.88" y1="1937.11" x2="2274.88" y2="1098.32" gradientUnits="userSpaceOnUse">
<stop stop-color="#386E9F"/>
<stop offset="1" stop-color="white"/>
</linearGradient>
<linearGradient id="paint47_linear_193_2" x1="2598.91" y1="1622.58" x2="2598.91" y2="1163.14" gradientUnits="userSpaceOnUse">
<stop stop-color="#03192E"/>
<stop offset="0.5" stop-color="#223C6A"/>
<stop offset="1" stop-color="#4A74A2"/>
</linearGradient>
<linearGradient id="paint48_linear_193_2" x1="2478.47" y1="319.707" x2="2688.16" y2="1530.66" gradientUnits="userSpaceOnUse">
<stop stop-color="#FF2A64"/>
<stop offset="1" stop-color="#FFAF48"/>
</linearGradient>
<linearGradient id="paint49_linear_193_2" x1="2403.88" y1="607.073" x2="2672.99" y2="1711.44" gradientUnits="userSpaceOnUse">
<stop stop-color="#FF2A64"/>
<stop offset="1" stop-color="#FFAF48"/>
</linearGradient>
<linearGradient id="paint50_linear_193_2" x1="2607.19" y1="2097.68" x2="2544.28" y2="1136.61" gradientUnits="userSpaceOnUse">
<stop stop-color="#03192E"/>
<stop offset="0.5" stop-color="#223C6A"/>
<stop offset="1" stop-color="#4A74A2"/>
</linearGradient>
<linearGradient id="paint51_linear_193_2" x1="2594.41" y1="2169.69" x2="2541.98" y2="1002.42" gradientUnits="userSpaceOnUse">
<stop stop-color="#03192E"/>
<stop offset="0.5" stop-color="#223C6A"/>
<stop offset="1" stop-color="#4A74A2"/>
</linearGradient>
<linearGradient id="paint52_linear_193_2" x1="2606.95" y1="1551.63" x2="2460.17" y2="1099.05" gradientUnits="userSpaceOnUse">
<stop stop-color="#386E9F"/>
<stop offset="1" stop-color="white"/>
</linearGradient>
<linearGradient id="paint53_linear_193_2" x1="2465.15" y1="1236.11" x2="2481.2" y2="1229.94" gradientUnits="userSpaceOnUse">
<stop stop-color="#03192E"/>
<stop offset="0.5" stop-color="#223C6A"/>
<stop offset="1" stop-color="#4A74A2"/>
</linearGradient>
<linearGradient id="paint54_linear_193_2" x1="2489.32" y1="1206.66" x2="2492.73" y2="1205.35" gradientUnits="userSpaceOnUse">
<stop stop-color="#03192E"/>
<stop offset="0.5" stop-color="#223C6A"/>
<stop offset="1" stop-color="#4A74A2"/>
</linearGradient>
<linearGradient id="paint55_linear_193_2" x1="2521.67" y1="1214.58" x2="2535.88" y2="1209.11" gradientUnits="userSpaceOnUse">
<stop stop-color="#03192E"/>
<stop offset="0.5" stop-color="#223C6A"/>
<stop offset="1" stop-color="#4A74A2"/>
</linearGradient>
<linearGradient id="paint56_linear_193_2" x1="2660.44" y1="1630.25" x2="2522.39" y2="1280.77" gradientUnits="userSpaceOnUse">
<stop stop-color="#FF2A64"/>
<stop offset="1" stop-color="#FFAF48"/>
</linearGradient>
<linearGradient id="paint57_linear_193_2" x1="2597.82" y1="1576.2" x2="2468.51" y2="1210.99" gradientUnits="userSpaceOnUse">
<stop stop-color="#FF2A64"/>
<stop offset="1" stop-color="#FFAF48"/>
</linearGradient>
<linearGradient id="paint58_linear_193_2" x1="2649.86" y1="1557.78" x2="2520.55" y2="1192.57" gradientUnits="userSpaceOnUse">
<stop stop-color="#FF2A64"/>
<stop offset="1" stop-color="#FFAF48"/>
</linearGradient>
<linearGradient id="paint59_linear_193_2" x1="2607.81" y1="1572.66" x2="2478.5" y2="1207.45" gradientUnits="userSpaceOnUse">
<stop stop-color="#FF2A64"/>
<stop offset="1" stop-color="#FFAF48"/>
</linearGradient>
<linearGradient id="paint60_linear_193_2" x1="2591.24" y1="1613.46" x2="2591.24" y2="1198.39" gradientUnits="userSpaceOnUse">
<stop stop-color="#386E9F"/>
<stop offset="1" stop-color="white"/>
</linearGradient>
<linearGradient id="paint61_linear_193_2" x1="2354.22" y1="2248.03" x2="2245.36" y2="1670.13" gradientUnits="userSpaceOnUse">
<stop stop-color="#386E9F"/>
<stop offset="1" stop-color="white"/>
</linearGradient>
<linearGradient id="paint62_linear_193_2" x1="2215.87" y1="2884.48" x2="2215.87" y2="813.063" gradientUnits="userSpaceOnUse">
<stop stop-color="#386E9F"/>
<stop offset="1" stop-color="white"/>
</linearGradient>
<linearGradient id="paint63_linear_193_2" x1="2210.17" y1="2423.85" x2="2108.82" y2="1889.14" gradientUnits="userSpaceOnUse">
<stop stop-color="#03192E"/>
<stop offset="0.5" stop-color="#223C6A"/>
<stop offset="1" stop-color="#4A74A2"/>
</linearGradient>
<linearGradient id="paint64_linear_193_2" x1="2213.34" y1="2305.63" x2="2132.96" y2="2012.06" gradientUnits="userSpaceOnUse">
<stop stop-color="#03192E"/>
<stop offset="0.5" stop-color="#223C6A"/>
<stop offset="1" stop-color="#4A74A2"/>
</linearGradient>
<linearGradient id="paint65_linear_193_2" x1="2535.12" y1="2362.26" x2="2433.78" y2="1827.55" gradientUnits="userSpaceOnUse">
<stop stop-color="#03192E"/>
<stop offset="0.5" stop-color="#223C6A"/>
<stop offset="1" stop-color="#4A74A2"/>
</linearGradient>
<linearGradient id="paint66_linear_193_2" x1="2532.03" y1="2218.37" x2="2451.65" y2="1924.8" gradientUnits="userSpaceOnUse">
<stop stop-color="#03192E"/>
<stop offset="0.5" stop-color="#223C6A"/>
<stop offset="1" stop-color="#4A74A2"/>
</linearGradient>
<linearGradient id="paint67_linear_193_2" x1="2030.8" y1="3691.52" x2="2030.8" y2="2637.36" gradientUnits="userSpaceOnUse">
<stop stop-color="#03192E"/>
<stop offset="0.5" stop-color="#223C6A"/>
<stop offset="1" stop-color="#4A74A2"/>
</linearGradient>
<linearGradient id="paint68_linear_193_2" x1="2441.63" y1="2723.45" x2="2441.63" y2="2045.31" gradientUnits="userSpaceOnUse">
<stop stop-color="#03192E"/>
<stop offset="0.5" stop-color="#223C6A"/>
<stop offset="1" stop-color="#4A74A2"/>
</linearGradient>
<linearGradient id="paint69_linear_193_2" x1="1545.03" y1="1302.2" x2="1545.03" y2="-303.127" gradientUnits="userSpaceOnUse">
<stop stop-color="#386E9F"/>
<stop offset="1" stop-color="white"/>
</linearGradient>
<linearGradient id="paint70_linear_193_2" x1="1317.55" y1="869.562" x2="1317.55" y2="-190.075" gradientUnits="userSpaceOnUse">
<stop stop-color="#386E9F"/>
<stop offset="1" stop-color="white"/>
</linearGradient>
<linearGradient id="paint71_linear_193_2" x1="1808.59" y1="666.206" x2="1808.59" y2="-157.623" gradientUnits="userSpaceOnUse">
<stop stop-color="#386E9F"/>
<stop offset="1" stop-color="white"/>
</linearGradient>
<linearGradient id="paint72_linear_193_2" x1="1528.22" y1="836.244" x2="1528.22" y2="207.137" gradientUnits="userSpaceOnUse">
<stop stop-color="#03192E"/>
<stop offset="0.5" stop-color="#223C6A"/>
<stop offset="1" stop-color="#4A74A2"/>
</linearGradient>
<linearGradient id="paint73_linear_193_2" x1="1528.22" y1="472.782" x2="1528.22" y2="-23.5329" gradientUnits="userSpaceOnUse">
<stop stop-color="#03192E"/>
<stop offset="0.5" stop-color="#223C6A"/>
<stop offset="1" stop-color="#4A74A2"/>
</linearGradient>
<linearGradient id="paint74_linear_193_2" x1="1503.02" y1="343.941" x2="1503.02" y2="246.081" gradientUnits="userSpaceOnUse">
<stop stop-color="#386E9F"/>
<stop offset="1" stop-color="white"/>
</linearGradient>
<linearGradient id="paint75_linear_193_2" x1="1556.12" y1="343.942" x2="1556.12" y2="246.082" gradientUnits="userSpaceOnUse">
<stop stop-color="#386E9F"/>
<stop offset="1" stop-color="white"/>
</linearGradient>
<linearGradient id="paint76_linear_193_2" x1="1528.22" y1="591.842" x2="1528.22" y2="315.669" gradientUnits="userSpaceOnUse">
<stop stop-color="#386E9F"/>
<stop offset="1" stop-color="white"/>
</linearGradient>
<linearGradient id="paint77_linear_193_2" x1="1497.74" y1="527.538" x2="1497.74" y2="244.843" gradientUnits="userSpaceOnUse">
<stop stop-color="#03192E"/>
<stop offset="0.5" stop-color="#223C6A"/>
<stop offset="1" stop-color="#4A74A2"/>
</linearGradient>
<linearGradient id="paint78_linear_193_2" x1="1558.3" y1="527.536" x2="1558.3" y2="244.842" gradientUnits="userSpaceOnUse">
<stop stop-color="#03192E"/>
<stop offset="0.5" stop-color="#223C6A"/>
<stop offset="1" stop-color="#4A74A2"/>
</linearGradient>
<linearGradient id="paint79_linear_193_2" x1="1234.47" y1="1185.39" x2="1234.47" y2="-487.765" gradientUnits="userSpaceOnUse">
<stop/>
<stop offset="1" stop-color="white"/>
</linearGradient>
<linearGradient id="paint80_linear_193_2" x1="1234.47" y1="1274.84" x2="1234.47" y2="-124.844" gradientUnits="userSpaceOnUse">
<stop stop-color="#03192E"/>
<stop offset="0.5" stop-color="#223C6A"/>
<stop offset="1" stop-color="#4A74A2"/>
</linearGradient>
<linearGradient id="paint81_linear_193_2" x1="1234.47" y1="458.802" x2="1234.47" y2="0.966199" gradientUnits="userSpaceOnUse">
<stop stop-color="#FF2A64"/>
<stop offset="1" stop-color="#FFAF48"/>
</linearGradient>
<linearGradient id="paint82_linear_193_2" x1="1218.85" y1="483.266" x2="1218.85" y2="-20.426" gradientUnits="userSpaceOnUse">
<stop stop-color="#FF2A64"/>
<stop offset="1" stop-color="#FFAF48"/>
</linearGradient>
<linearGradient id="paint83_linear_193_2" x1="3482.75" y1="2733.24" x2="3482.75" y2="2017.52" gradientUnits="userSpaceOnUse">
<stop stop-color="#FF2A64"/>
<stop offset="1" stop-color="#FFAF48"/>
</linearGradient>
<linearGradient id="paint84_linear_193_2" x1="3570.13" y1="4628.13" x2="3570.13" y2="2124.86" gradientUnits="userSpaceOnUse">
<stop stop-color="#FF2A64"/>
<stop offset="1" stop-color="#FFAF48"/>
</linearGradient>
<linearGradient id="paint85_linear_193_2" x1="3482.75" y1="2324.19" x2="3482.75" y2="1898.55" gradientUnits="userSpaceOnUse">
<stop stop-color="#FF2A64"/>
<stop offset="1" stop-color="#FFAF48"/>
</linearGradient>
<linearGradient id="paint86_linear_193_2" x1="3365.75" y1="2152.78" x2="3365.75" y2="1863.23" gradientUnits="userSpaceOnUse">
<stop stop-color="#FF2A64"/>
<stop offset="1" stop-color="#FFAF48"/>
</linearGradient>
<linearGradient id="paint87_linear_193_2" x1="3735.63" y1="4418.44" x2="3735.63" y2="1391.4" gradientUnits="userSpaceOnUse">
<stop stop-color="#FF2A64"/>
<stop offset="1" stop-color="#FFAF48"/>
</linearGradient>
<linearGradient id="paint88_linear_193_2" x1="3977.03" y1="4020.03" x2="3977.03" y2="2694.48" gradientUnits="userSpaceOnUse">
<stop stop-color="#FF2A64"/>
<stop offset="1" stop-color="#FFAF48"/>
</linearGradient>
<linearGradient id="paint89_linear_193_2" x1="1070.22" y1="2733.24" x2="1070.22" y2="2017.52" gradientUnits="userSpaceOnUse">
<stop stop-color="#FF2A64"/>
<stop offset="1" stop-color="#FFAF48"/>
</linearGradient>
<linearGradient id="paint90_linear_193_2" x1="982.839" y1="4628.13" x2="982.839" y2="2124.86" gradientUnits="userSpaceOnUse">
<stop stop-color="#FF2A64"/>
<stop offset="1" stop-color="#FFAF48"/>
</linearGradient>
<linearGradient id="paint91_linear_193_2" x1="1070.22" y1="2324.19" x2="1070.22" y2="1898.55" gradientUnits="userSpaceOnUse">
<stop stop-color="#FF2A64"/>
<stop offset="1" stop-color="#FFAF48"/>
</linearGradient>
<linearGradient id="paint92_linear_193_2" x1="1187.22" y1="2152.78" x2="1187.22" y2="1863.23" gradientUnits="userSpaceOnUse">
<stop stop-color="#FF2A64"/>
<stop offset="1" stop-color="#FFAF48"/>
</linearGradient>
<linearGradient id="paint93_linear_193_2" x1="817.338" y1="4418.44" x2="817.338" y2="1391.4" gradientUnits="userSpaceOnUse">
<stop stop-color="#FF2A64"/>
<stop offset="1" stop-color="#FFAF48"/>
</linearGradient>
<linearGradient id="paint94_linear_193_2" x1="575.936" y1="4020.03" x2="575.936" y2="2694.48" gradientUnits="userSpaceOnUse">
<stop stop-color="#FF2A64"/>
<stop offset="1" stop-color="#FFAF48"/>
</linearGradient>
<linearGradient id="paint95_linear_193_2" x1="4424.39" y1="1475.82" x2="2725.9" y2="895.679" gradientUnits="userSpaceOnUse">
<stop stop-color="#FF2A64"/>
<stop offset="1" stop-color="#FFAF48"/>
</linearGradient>
<clipPath id="clip0_193_2">
<rect width="4279.48" height="3607" fill="white"/>
</clipPath>
</defs>
</svg>
