<svg xmlns="http://www.w3.org/2000/svg" viewBox="0 0 113.02 98.68"><defs><style>.cls-1{fill:#5e2ced;}</style></defs><g id="Layer_2" data-name="Layer 2"><g id="Layer_1-2" data-name="Layer 1"><path class="cls-1" d="M85.92,42.1A29.42,29.42,0,0,0,69.44,15.67V42.12l-.07,3.79-12.8,7.75-13-7.75V15.67a29.42,29.42,0,0,0,1.31,53.46V98.58L2.06,43a9.93,9.93,0,0,1,.61-12.83l25.17-27A9.92,9.92,0,0,1,35.11,0h43A9.91,9.91,0,0,1,85.4,3.24l25,27.41a9.93,9.93,0,0,1,.52,12.78L68.13,98.68V69.13A29.43,29.43,0,0,0,85.92,42.1Z"/></g></g></svg>