<svg width="345" height="71" viewBox="0 0 345 71" fill="none" xmlns="http://www.w3.org/2000/svg">
<path d="M59.4195 8.29767L57.2463 8.30332V19.4813H67.2124C68.3025 19.0176 68.8864 18.216 69.112 17.2802H59.4138L59.4195 8.29767ZM75.6823 10.5313H83.9956C85.1506 10.3023 86.0108 9.28017 86.252 8.29201H73.4245C73.6642 9.28017 74.5372 10.3023 75.6823 10.5313ZM48.7595 10.5002C49.9145 10.1637 50.8876 9.28017 51.1245 8.3005H38.926V14.9052H48.9104V17.2236L41.0794 17.2307C39.8511 17.5728 38.8132 18.3984 38.2928 19.4897L38.926 19.4784H51.0568V12.7098H41.0794V10.5002H48.7595ZM73.7601 19.4784H75.922V14.9787H83.7925V19.4784H85.953V12.7295L73.7601 12.7182V19.4784ZM22.1245 10.5242H30.4364C31.5928 10.2938 32.4516 9.27169 32.6928 8.28353H19.8667C20.1065 9.27169 20.978 10.2938 22.1245 10.5242ZM0.5 8.30898C0.749611 9.28724 1.59434 10.2839 2.75214 10.5355H6.25092L6.42861 10.6062V19.4558H8.61447V10.6062L8.8119 10.5355H12.3149C13.484 10.233 14.3104 9.28724 14.5572 8.30898V8.28777H0.5V8.30898ZM22.1245 19.4799H30.4364C31.5928 19.248 32.4516 18.2287 32.6928 17.2392H19.8667C20.1065 18.2287 20.978 19.248 22.1245 19.4799ZM22.1245 14.9419H30.4364C31.5928 14.7129 32.4516 13.6908 32.6928 12.7027H19.8667C20.1065 13.6908 20.978 14.7129 22.1245 14.9419Z" fill="#898D9A"/>
<path fill-rule="evenodd" clip-rule="evenodd" d="M136.718 10.3343L136.743 10.367L135.333 12.6382L135.239 12.526L135.173 12.4527L135.045 12.3168L134.939 12.2124C134.414 11.7041 133.407 10.9248 132.19 10.9499C130.593 10.9799 129.374 12.2945 129.374 13.8249C129.374 15.1698 130.189 16.6682 132.359 16.7018C133.607 16.7173 134.459 15.8311 134.895 15.1925L134.98 15.0642C135.03 14.9855 135.147 14.7913 135.311 14.5168L138.877 8.4824H141.763V19.1902H139.107V17.5838L136.992 17.575L136.709 17.5767L136.632 17.58L136.619 17.5826L136.621 17.5838L136.564 17.6472L136.496 17.7176L136.4 17.8114L136.319 17.8861L136.226 17.9683L136.121 18.0568C135.379 18.6655 133.825 19.62 131.565 19.3997C129.294 19.1818 126.516 17.3804 126.516 13.774C126.516 12.0618 127.8 8.36673 132.216 8.26758C134.934 8.2071 136.504 10.0639 136.718 10.3343ZM169.141 8.25854C170.594 8.25854 171.969 8.81863 173.028 9.84867C173.706 10.5104 174.187 11.2875 174.456 12.1294L174.456 8.48227H176.949L181.093 14.4329V8.48227H183.857V19.1973H181.429L177.218 13.2276V19.1973H174.456L174.456 15.5244C174.2 16.3625 173.754 17.1153 173.136 17.7454C172.079 18.8358 170.641 19.4273 169.125 19.4273C167.537 19.4273 166.176 18.8655 165.11 17.7685L165.11 19.1973H159.148V8.48424H161.891V16.8298L164.37 16.8304C163.81 15.9376 163.528 14.9047 163.528 13.7311C163.528 12.2455 164.106 10.8797 165.178 9.83498C166.249 8.78817 167.594 8.25854 169.141 8.25854ZM114.355 8.48237C116.146 8.48237 117.397 8.70742 118.572 9.76236C119.415 10.518 119.949 11.5429 120.14 12.7991L120.139 8.48237H126.276V10.8396L122.9 10.8434V12.5939L125.823 12.5914V14.8956L122.9 14.8985V16.8406H126.276V19.1901H120.139L120.14 14.9184C119.952 16.0903 119.428 17.081 118.584 17.8712C117.381 18.9843 116.319 19.1973 114.733 19.1973H110.5V8.48237H114.355ZM149.382 8.47808V11.0397H147.241V19.1973H144.482V11.0397H142.339V8.47808H149.382ZM152.709 8.48129V12.5502H155.548V8.48129H158.306V19.1973H155.548V15.0973H152.709V19.1973H149.951V8.48129H152.709ZM114.355 10.7865H113.259V16.8441H114.367C116.479 16.8441 117.476 15.9119 117.476 13.8033C117.476 11.874 116.381 10.7865 114.355 10.7865ZM169.156 10.9247C167.537 10.9247 166.265 12.1845 166.265 13.7602C166.265 15.4588 167.626 16.758 169.125 16.758C170.687 16.758 171.958 15.5163 171.958 13.7602C171.958 12.1845 170.687 10.9247 169.156 10.9247ZM139.162 12.9188L137.739 15.3438H139.162V12.9188Z" fill="#898D9A"/>
<path d="M220.476 19.7236C219.444 19.6681 218.675 19.2436 218.225 18.4821C217.923 17.9709 217.831 17.2986 217.969 16.6116C218.122 15.8504 218.642 15.1645 219.44 14.6711C219.898 14.3874 220.29 14.2113 221.089 13.9304C221.29 13.8598 221.464 13.7949 221.475 13.7858C221.491 13.7731 221.493 13.728 221.485 13.5819C221.462 13.1661 221.532 12.5182 221.649 12.0507C221.847 11.2639 222.227 10.6292 222.731 10.2443C223.093 9.96764 223.568 9.75966 224.041 9.67048C224.302 9.62135 224.739 9.6215 224.985 9.67093C226.037 9.88285 226.628 10.6941 226.395 11.6081C226.346 11.8008 226.192 12.1167 226.06 12.2915C225.725 12.7392 225.22 13.1373 224.507 13.5161C224.417 13.5639 224.123 13.7081 223.855 13.8369C223.586 13.9655 223.357 14.0793 223.347 14.0899C223.332 14.1049 223.335 14.1486 223.365 14.2955C223.498 14.9748 223.723 15.5487 224.107 16.1905C224.26 16.4459 224.471 16.768 224.495 16.783C224.53 16.8045 224.672 16.5749 224.765 16.3477C224.879 16.0665 224.945 15.6947 224.912 15.51C224.889 15.3777 224.817 15.2381 224.725 15.1478C224.682 15.1061 224.647 15.0667 224.647 15.0602C224.647 15.0538 225.005 15.0502 225.443 15.0525L226.239 15.0565L226.234 15.1575C226.228 15.2955 226.177 15.5898 226.123 15.7993C225.971 16.3883 225.684 16.8921 225.188 17.4423C225.13 17.5072 225.082 17.5708 225.082 17.5838C225.082 17.5968 225.164 17.6871 225.264 17.7844C225.891 18.392 227.001 19.0928 227.905 19.4512C227.993 19.4861 228.065 19.5216 228.065 19.5301C228.064 19.5404 227.542 19.547 226.539 19.5497L225.015 19.5537L224.928 19.5048C224.751 19.4052 224.358 19.0883 223.982 18.74C223.902 18.6662 223.826 18.6059 223.814 18.6059C223.801 18.6059 223.712 18.6575 223.617 18.7205C223.127 19.0434 222.542 19.3334 222.047 19.4985C221.484 19.6864 221.02 19.7529 220.476 19.7237V19.7236ZM221.76 18.4025C221.988 18.3618 222.268 18.279 222.526 18.176C222.786 18.0727 223.107 17.9145 223.118 17.8846C223.123 17.8728 223.064 17.7735 222.987 17.6638C222.632 17.1583 222.253 16.4474 221.998 15.8099C221.904 15.5748 221.729 15.0543 221.695 14.9116C221.685 14.8661 221.666 14.8248 221.653 14.8198C221.617 14.8062 221.326 14.9615 221.074 15.1283C220.18 15.7213 219.751 16.4452 219.846 17.2016C219.889 17.5377 219.995 17.7827 220.189 17.9897C220.547 18.3721 221.106 18.5192 221.76 18.4025ZM223.278 13.1429C223.609 12.9491 224.134 12.4786 224.428 12.1128C224.804 11.6447 225.004 11.2079 225.004 10.8536C225.004 10.651 224.975 10.5603 224.881 10.4666C224.788 10.3735 224.683 10.3349 224.522 10.3348C224.046 10.3348 223.53 10.9007 223.305 11.6707C223.192 12.0589 223.165 12.2677 223.164 12.7419C223.163 13.1041 223.169 13.1846 223.196 13.1846C223.202 13.1846 223.239 13.1659 223.278 13.1429ZM231.163 19.7145C230.377 19.6354 229.86 19.518 229.276 19.2867C228.481 18.9717 227.985 18.5816 227.565 17.9424C227.44 17.751 227.239 17.3492 227.157 17.1272C226.794 16.1379 226.714 14.8924 226.931 13.5931C227.15 12.278 227.649 11.0106 228.339 10.0199C228.786 9.37754 229.451 8.70098 230.138 8.19008C231.272 7.34664 232.577 6.82818 234.027 6.64589C234.467 6.59057 234.713 6.57636 235.233 6.57666C236.018 6.57712 236.617 6.63698 237.407 6.79402C237.912 6.89439 238.715 7.11114 238.73 7.1512C238.738 7.17145 238.229 8.80255 238.208 8.82447C238.202 8.83127 238.124 8.77912 238.035 8.70808C237.32 8.13823 236.579 7.79134 235.83 7.676C235.591 7.63912 235.141 7.63867 234.907 7.6751C233.856 7.83774 232.883 8.50871 232.018 9.66549C231.737 10.0413 231.428 10.5449 231.187 11.0177C230.861 11.6586 230.637 12.2251 230.41 12.9827C229.688 15.393 229.652 17.077 230.302 17.9886C230.569 18.3642 230.961 18.6035 231.457 18.695C231.742 18.7476 232.434 18.7157 232.503 18.6469C232.514 18.636 232.852 17.579 233.254 16.298C233.914 14.1937 233.985 13.9564 233.993 13.8372C234.003 13.677 233.973 13.5338 233.901 13.396C233.836 13.2707 233.663 13.1006 233.52 13.0216C233.459 12.9874 233.408 12.9541 233.408 12.9478C233.408 12.9414 234.515 12.9362 235.87 12.9362C237.224 12.9362 238.332 12.9414 238.331 12.9478C238.331 12.9541 238.271 12.9869 238.198 13.0203C237.815 13.1957 237.537 13.4584 237.372 13.8021C237.336 13.8765 237.026 14.839 236.561 16.3212L235.807 18.72L235.59 18.8243C234.703 19.2498 233.619 19.5562 232.537 19.687C232.338 19.7112 231.329 19.7313 231.163 19.7145H231.163ZM208.501 19.5391C208.496 19.5313 208.528 19.5036 208.573 19.4778C208.841 19.3237 209.141 19.0042 209.268 18.7379C209.305 18.6608 212.682 7.9047 212.757 7.62673C212.77 7.57806 212.781 7.47527 212.781 7.39849C212.782 7.1639 212.71 6.99476 212.538 6.83242C212.491 6.78813 212.453 6.74535 212.453 6.73734C212.453 6.71603 218.35 6.71784 218.621 6.73931C219.206 6.78571 219.792 6.9414 220.241 7.16934C221.006 7.55856 221.464 8.14927 221.605 8.92816C221.645 9.14492 221.652 9.6271 221.62 9.86048C221.489 10.8118 221.058 11.8209 220.471 12.551C219.52 13.7336 217.965 14.4899 216.057 14.6978C215.452 14.7637 214.689 14.7804 214.15 14.7393C213.994 14.7273 213.863 14.7208 213.859 14.7248C213.84 14.7441 212.622 18.6507 212.608 18.7379C212.565 19.0068 212.704 19.3091 212.942 19.4675C212.99 19.4988 213.024 19.531 213.019 19.5388C213.007 19.5583 208.512 19.5585 208.5 19.539L208.501 19.5391ZM215.194 13.7368C215.638 13.6582 216.029 13.4941 216.406 13.2285C216.59 13.0995 216.966 12.7233 217.122 12.514C217.511 11.9905 217.797 11.3729 218.027 10.5594C218.174 10.041 218.237 9.64599 218.237 9.23893C218.237 8.92514 218.208 8.73771 218.129 8.52745C218.012 8.21547 217.774 7.96894 217.471 7.84651C217.21 7.7413 216.988 7.71364 216.454 7.71984L216.051 7.72437L215.114 10.7069C214.599 12.3474 214.18 13.6975 214.184 13.7072C214.187 13.7169 214.252 13.7332 214.327 13.7435C214.403 13.7537 214.475 13.7646 214.488 13.7678C214.547 13.7822 215.069 13.7593 215.194 13.737V13.7368Z" fill="#898D9A"/>
<path fill-rule="evenodd" clip-rule="evenodd" d="M308.508 13.4204C308.508 13.4204 307.728 12.9382 307.246 12.7517C307.246 12.7517 305.754 12.0599 305.458 11.7308C305.458 11.7308 304.876 11.1826 305.216 10.5459C305.216 10.5459 305.359 10.1293 305.974 10.1293C305.974 10.1293 306.774 10.1733 306.774 10.831V11.7588H309.642L309.637 10.3924C309.637 10.3924 309.858 8.1546 306.259 8.05607C306.259 8.05607 303.428 7.87 302.617 9.39452C302.617 9.39452 302.298 9.73463 302.298 10.919V11.7748C302.298 11.7748 302.265 12.7622 302.77 13.3984C302.77 13.3984 303.055 13.8155 303.757 14.2757C303.757 14.2757 305.183 15.0434 306.039 15.4831C306.039 15.4831 306.903 15.9762 306.789 16.761C306.789 16.761 306.718 17.5668 305.884 17.5338C305.884 17.5338 305.121 17.4997 305.121 16.7095V15.7822H302.065V17.1291C302.065 17.1291 301.98 19.705 305.907 19.705C305.907 19.705 309.659 19.781 309.834 17.0616V15.9647C309.834 15.9647 309.967 14.2982 308.508 13.4204ZM293.825 8.37668L292.865 14.3947H292.64L291.723 8.4307H286.932L286.692 19.3289H289.529L289.563 11.1176H289.786L291.289 19.3274H294.273L295.758 11.1206H295.956L296.024 19.3289H298.876L298.569 8.37668H293.825ZM276.94 8.42219L275.053 19.3164H278.107L279.225 10.8695H279.476L280.593 19.3164H283.646L281.76 8.42219H276.94ZM341.013 13.2703V14.8774H341.796V16.6024C341.796 17.4457 341.076 17.4612 341.076 17.4612C340.199 17.4612 340.232 16.66 340.232 16.66V10.693C340.232 10.0782 341.01 10.0452 341.01 10.0452C341.756 10.0452 341.761 10.7785 341.761 10.7785V11.6858H344.636C344.73 9.91469 344.377 9.48605 344.377 9.48605C343.664 7.88451 340.966 7.97204 340.966 7.97204C336.82 7.97204 337.28 11.1531 337.28 11.1531V16.9226C337.369 19.9061 341.455 19.603 341.524 19.6005C343.341 19.3994 343.89 18.8217 343.89 18.8217C344.395 18.4466 344.525 17.9269 344.525 17.9269C344.669 17.6243 344.705 16.66 344.705 16.66V13.2703H341.013ZM331.483 15.0434H331.358L328.441 8.37968H324.95V19.3299H327.791L327.621 12.6671H327.748L330.771 19.3299H334.155V8.37868H331.278L331.483 15.0434ZM318.015 16.6014C318.015 16.6014 318.056 17.5002 317.223 17.5002C317.223 17.5002 316.347 17.5473 316.347 16.624L316.338 8.38618H313.222V16.5584C313.222 16.5584 312.902 19.6515 317.267 19.6515C317.267 19.6515 321.06 19.6965 321.06 16.7005V8.38668H318.015V16.6014ZM271 13.4204C271 13.4204 270.221 12.9382 269.738 12.7522C269.738 12.7522 268.247 12.0609 267.951 11.7313C267.951 11.7313 267.369 11.1821 267.71 10.5469C267.71 10.5469 267.852 10.1303 268.467 10.1303C268.467 10.1303 269.267 10.1738 269.267 10.8315V11.7593H272.136L272.131 10.3924C272.131 10.3924 272.35 8.1546 268.753 8.05657C268.753 8.05657 268.482 8.03906 268.084 8.05907C268.084 8.05907 265.905 8.17611 265.125 9.37151C265.121 9.38051 265.114 9.38702 265.11 9.39502C265.11 9.39502 264.792 9.73463 264.792 10.9195V11.7753C264.792 11.7753 264.759 12.7627 265.263 13.3989C265.263 13.3989 265.549 13.816 266.251 14.2762C266.251 14.2762 267.676 15.0439 268.532 15.4836C268.532 15.4836 269.397 15.9757 269.282 16.7615C269.282 16.7615 269.212 17.5673 268.378 17.5343C268.378 17.5343 267.615 17.5002 267.615 16.71V15.7822H264.559V17.1301C264.559 17.1301 264.473 19.706 268.4 19.706C268.4 19.706 272.151 19.782 272.328 17.0626V15.9667C272.328 15.9657 272.459 14.2982 271 13.4204Z" fill="#898D9A"/>
<path fill-rule="evenodd" clip-rule="evenodd" d="M80.1835 53.6276C80.8556 53.2656 81.5274 53.0842 82.3827 53.0842C84.4601 53.0842 86.0485 54.8966 86.0485 57.3727C86.0485 60.5137 84.0935 62.5071 80.8553 62.5071C79.6941 62.5071 78.5329 62.3257 77.4332 62.084C77.4946 60.8154 77.5563 53.0842 77.4332 51.6346C77.3121 50.9094 77.128 50.6077 76.5786 50.487L76.151 50.4267V50.0643L80.2449 49.3398C80.1835 49.9436 80.1835 51.6949 80.1835 53.6276ZM80.2442 61.7822C80.4269 61.8422 80.7328 61.8422 80.9773 61.8422C82.2606 61.8422 83.1772 59.9702 83.1776 57.5534C83.1776 55.621 82.4444 54.0507 81.0994 54.0507C80.7935 54.0507 80.5494 54.1111 80.1828 54.2321C80.1221 57.3727 80.1828 60.9368 80.2442 61.7822ZM50 49.5812H60.7535L60.8149 53.1449L60.2038 53.3263C59.5931 51.5139 58.7378 50.4874 57.0876 50.4874H54.9495C54.8881 51.6349 54.8271 53.5677 54.8271 55.6214L56.2931 55.5607C57.2097 55.5607 57.6366 54.8362 57.8205 53.8094H58.3705V58.0965H57.8205C57.637 57.07 57.2097 56.3451 56.2931 56.3451L54.8267 56.2848C54.8267 57.8548 54.8877 59.1233 54.9491 59.9088C55.0712 61.0567 55.3768 61.6002 56.171 61.6602L56.9042 61.7815V62.2646H50V61.7815L50.6111 61.6602C51.4053 61.6005 51.7105 61.0567 51.8326 59.9088C51.955 58.0372 52.0164 54.1107 51.8326 51.9363C51.7109 50.7888 51.405 50.3057 50.6111 50.185L50 50.1246V49.5812ZM68.8195 57.7351C68.8195 55.0172 67.2921 52.9635 64.237 52.9635C61.1818 52.9635 59.4713 55.1379 59.4713 57.7351C59.4713 60.4533 60.9987 62.5074 64.0535 62.5074C67.1087 62.5074 68.8195 60.3322 68.8195 57.7351ZM62.3426 57.7351C62.3426 55.3796 62.7092 53.5676 64.0535 53.5676C65.3371 53.5676 65.9475 55.44 65.9475 57.7351C65.9475 60.0905 65.5802 61.9025 64.1759 61.9025C62.9537 61.9025 62.3426 60.0302 62.3426 57.7351ZM91.5477 52.9635C88.4315 52.9635 86.8431 55.3193 86.8431 57.7958C86.8431 60.5743 88.7981 62.507 91.5477 62.5074C93.2582 62.5074 94.6022 61.6612 95.2133 60.8157L94.9695 60.514C94.358 60.9371 93.8693 61.1781 92.8916 61.1781C90.6918 61.1781 89.592 59.5471 89.6534 57.3123H95.3357C95.3357 54.8362 94.1131 52.9635 91.5477 52.9635ZM92.5251 56.5875L89.6534 56.6482C89.7141 55.2586 90.2648 53.5676 91.3032 53.5676C92.3416 53.5676 92.5251 55.3796 92.5251 56.5875ZM99.7972 52.9635C100.897 52.9635 101.874 53.1445 102.608 53.4469L102.67 55.8024L102.243 55.9231C101.692 54.2921 100.959 53.6276 99.8597 53.6276C99.1265 53.6276 98.5757 54.1714 98.5757 54.9565C98.5757 55.742 99.1861 56.1648 100.897 56.8289C102.486 57.4334 103.158 58.1578 103.158 59.4264C103.158 61.2984 101.631 62.507 99.2475 62.507C98.0864 62.507 96.7424 62.2649 96.0092 61.9632L95.9479 59.3057L96.3758 59.1843C97.0476 60.9967 97.9036 61.6608 99.064 61.6608C100.042 61.6608 100.592 60.9967 100.592 60.2719C100.592 59.5471 100.164 59.124 98.6368 58.5809C97.1686 58.0975 96.131 57.4334 96.131 55.8627C96.131 54.2921 97.537 52.9635 99.7972 52.9635ZM72.9131 55.0779C73.8904 52.9031 75.7237 52.6018 76.7621 53.2052L75.7844 55.682C74.5625 54.8969 73.2183 55.2589 72.9131 55.682C72.8517 57.1316 72.8517 59.4267 72.9737 60.5747C73.0351 61.2988 73.2186 61.6612 73.8294 61.7219L74.5625 61.7825V62.2656H68.8806V61.7825L69.3082 61.7219C69.8586 61.6612 70.1024 61.2988 70.1638 60.5747C70.2248 59.3064 70.2859 56.7692 70.1638 55.3196C70.1024 54.5341 69.8586 54.2324 69.3082 54.1717L68.8806 54.1114V53.749L72.9737 52.9638L72.9131 55.0779Z" fill="#898D9A"/>
<path d="M157.098 50.1033C158.124 50.1055 159.148 50.0983 160.174 50.1069C160.169 53.0271 160.17 55.9472 160.172 58.8674C161.407 58.8666 162.641 58.8681 163.876 58.8666V61.4714C161.618 61.4728 159.36 61.4685 157.102 61.4735C157.093 57.6835 157.101 53.8934 157.098 50.1033Z" fill="#898D9A"/>
<path d="M176.112 50.1011C177.136 50.1054 178.159 50.1025 179.182 50.1025C179.183 53.0241 179.182 55.9456 179.183 58.8665C180.419 58.8701 181.654 58.8614 182.89 58.8708C182.885 59.7378 182.888 60.6042 182.888 61.4705C180.629 61.4713 178.369 61.472 176.109 61.4705C176.112 57.6805 176.107 53.8911 176.112 50.1011Z" fill="#898D9A"/>
<path d="M168.059 52.2572C168.802 52.1193 169.597 52.1395 170.305 52.416C170.798 52.6078 171.214 52.9361 171.616 53.2644C171.622 52.9584 171.617 52.6524 171.623 52.3463C172.565 52.3514 173.508 52.3471 174.45 52.3485C174.447 55.385 174.456 58.4222 174.447 61.4595C173.487 61.489 172.524 61.4638 171.564 61.471C171.564 61.1879 171.565 60.9049 171.563 60.6225C170.807 61.2877 169.804 61.7022 168.773 61.6893C167.573 61.7101 166.342 61.2684 165.543 60.387C164.708 59.4825 164.364 58.2455 164.357 57.0552C164.332 56.0122 164.646 54.9612 165.258 54.0991C165.904 53.1738 166.916 52.4734 168.059 52.2572ZM168.956 54.7959C168.29 54.9245 167.714 55.3893 167.452 55.992C167.025 56.9826 167.321 58.2994 168.286 58.8963C169.174 59.438 170.443 59.2203 171.131 58.4675C171.973 57.5832 171.874 56.0387 170.934 55.2549C170.405 54.801 169.641 54.645 168.956 54.7959Z" fill="#898D9A"/>
<path d="M189.886 52.9818C190.746 52.2951 191.92 52.0552 193.01 52.2247C193.825 52.3303 194.537 52.7865 195.098 53.3467C195.104 53.0141 195.101 52.6816 195.101 52.3489C196.014 52.3482 196.927 52.3453 197.84 52.3504C197.838 55.0679 197.84 57.7848 197.839 60.5023C197.825 61.526 197.461 62.5676 196.714 63.3104C195.85 64.1861 194.59 64.602 193.359 64.6588C192.094 64.7184 190.762 64.4569 189.737 63.7062C188.996 63.1775 188.489 62.3542 188.375 61.4707C189.437 61.4764 190.501 61.4621 191.563 61.4771C191.752 61.6876 191.915 61.9383 192.185 62.0633C192.57 62.2465 193.019 62.2307 193.437 62.1955C193.974 62.1373 194.549 61.9089 194.817 61.4283C195.05 61.0325 194.949 60.5641 194.975 60.1316C194.192 60.7617 193.196 61.2056 192.16 61.1675C191.164 61.1546 190.178 60.7538 189.49 60.0569C188.554 59.141 188.15 57.8178 188.195 56.5528C188.233 55.2138 188.786 53.8374 189.886 52.9818ZM192.57 54.5816C191.855 54.6886 191.292 55.2561 191.099 55.9135C190.861 56.7058 190.956 57.6562 191.557 58.2798C192.294 59.0671 193.701 58.9995 194.453 58.2669C195.298 57.4846 195.323 56.0759 194.598 55.2131C194.116 54.6463 193.294 54.4724 192.57 54.5816Z" fill="#898D9A"/>
<path d="M201.14 52.9224C202.096 52.2708 203.336 52.0237 204.482 52.2622C205.178 52.4058 205.771 52.8124 206.294 53.26C206.29 52.9568 206.291 52.6529 206.291 52.3498C207.24 52.3498 208.191 52.3426 209.14 52.3534V61.4687C208.178 61.4744 207.215 61.4716 206.253 61.4701C206.254 61.1864 206.254 60.9026 206.252 60.6196C205.932 60.8818 205.594 61.1297 205.211 61.3013C204.209 61.7841 203.014 61.7912 201.959 61.4716C201.006 61.1792 200.187 60.5212 199.705 59.6771C199.132 58.6908 198.973 57.5256 199.069 56.4114C199.212 55.0394 199.96 53.7169 201.14 52.9224ZM203.601 54.8059C202.824 54.9661 202.191 55.5961 202.018 56.3403C201.799 57.2505 202.101 58.3287 202.928 58.8704C203.866 59.4745 205.258 59.2051 205.926 58.3409C206.632 57.4574 206.519 56.0652 205.675 55.3015C205.131 54.8081 204.32 54.6313 203.601 54.8059Z" fill="#898D9A"/>
<path d="M185.126 48.4242C185.968 48.1893 186.947 48.6663 187.22 49.4766C187.45 50.1066 187.247 50.8631 186.719 51.2976C186.214 51.7351 185.435 51.8493 184.822 51.5663C184.145 51.2675 183.752 50.5096 183.873 49.807C183.956 49.1598 184.47 48.5887 185.126 48.4242ZM184.133 52.35C185.084 52.3443 186.034 52.35 186.984 52.3472C186.985 55.3887 186.985 58.4302 186.984 61.4718C186.033 61.4696 185.084 61.4746 184.133 61.4689C184.137 58.4296 184.136 55.3894 184.133 52.35Z" fill="#898D9A"/>
<path d="M138.621 43.9753H138.945C139.259 45.5498 139.537 47.1309 139.842 48.7069C139.9 48.9633 139.933 49.225 139.937 49.4881C138.167 49.773 136.54 50.8511 135.641 52.3979C135.584 52.556 135.406 52.6078 135.271 52.5036C133.798 51.6631 132.333 50.8061 130.861 49.9635C130.772 49.893 130.597 49.833 130.663 49.6898C130.741 49.4642 130.892 49.273 131.019 49.0728C131.926 47.6828 133.142 46.496 134.548 45.6075C135.787 44.812 137.186 44.2917 138.621 43.9753Z" fill="#898D9A"/>
<path d="M140.949 45.3105C143.848 45.0361 146.837 45.878 149.151 47.6347C149.373 47.8131 149.621 47.9676 149.805 48.1873C149.902 48.305 149.766 48.4212 149.7 48.5111C148.683 49.6732 147.67 50.8375 146.656 52.0004C146.525 52.1436 146.413 52.3063 146.261 52.427C146.113 52.5072 146.005 52.3647 145.896 52.2883C144.751 51.3309 143.23 50.8391 141.738 50.9163C141.485 50.9245 141.236 50.9837 140.983 50.9778C140.903 50.8976 140.877 50.7881 140.862 50.6809C140.645 49.1927 140.42 47.706 140.199 46.2185C140.166 45.9725 140.106 45.7267 140.119 45.4777C140.361 45.318 140.674 45.3578 140.949 45.3105Z" fill="#898D9A"/>
<path d="M139.289 52.9574C140.488 52.7797 141.754 53.1321 142.695 53.8901C143.591 54.6023 144.195 55.673 144.319 56.808C144.441 57.7879 144.217 58.8076 143.691 59.6457C143.103 60.5972 142.139 61.3117 141.051 61.595C140.081 61.8484 139.021 61.7734 138.104 61.3648C137.106 60.927 136.283 60.1135 135.841 59.1231C135.331 57.9903 135.334 56.6407 135.852 55.5102C136.457 54.1502 137.802 53.1486 139.289 52.9574ZM136.604 54.9764C136.756 54.9044 136.905 54.8295 137.058 54.759C136.866 55.1938 136.747 55.6661 136.787 56.1437C137.183 56.3334 137.601 56.4833 137.979 56.7097C137.549 56.652 137.126 56.5448 136.701 56.4616C136.374 56.826 136.175 57.2833 136.076 57.7586C135.997 57.617 135.924 57.473 135.844 57.3328C135.845 58.1845 136.133 59.0287 136.641 59.7147C136.608 59.558 136.579 59.4005 136.553 59.2431C136.929 59.5333 137.332 59.8114 137.808 59.9118C138.112 59.5917 138.385 59.2378 138.724 58.9522C138.53 59.3465 138.293 59.7191 138.082 60.1052C138.334 60.5101 138.698 60.8325 139.109 61.0732C138.953 61.1114 138.797 61.1526 138.638 61.1789C139.062 61.2718 139.491 61.3596 139.928 61.367C140.342 61.349 140.753 61.2816 141.153 61.1736C140.999 61.1413 140.844 61.1128 140.69 61.0821C141.093 60.84 141.469 60.5363 141.712 60.13C141.568 59.7161 141.257 59.3735 141.109 58.9574C141.43 59.2574 141.706 59.6029 142.018 59.9141C142.482 59.7949 142.897 59.5423 143.255 59.2296C143.235 59.393 143.212 59.5564 143.187 59.7199C143.669 59.0136 143.972 58.1822 143.967 57.323C143.895 57.4707 143.817 57.6154 143.737 57.7593C143.637 57.2869 143.438 56.8326 143.116 56.466C142.693 56.5462 142.272 56.6407 141.847 56.7157C142.206 56.46 142.649 56.3588 143.022 56.1293C143.077 55.6578 142.939 55.1914 142.755 54.7618C142.9 54.8301 143.044 54.8998 143.188 54.9717C142.691 54.27 141.952 53.7527 141.134 53.4873C141.26 53.608 141.386 53.7287 141.51 53.8524C141.023 53.7901 140.526 53.8449 140.072 54.0278C140.012 54.4544 140.004 54.8915 139.896 55.3098C139.835 54.8848 139.792 54.4566 139.743 54.0293C139.291 53.8509 138.796 53.7849 138.314 53.8546C138.426 53.7324 138.542 53.6132 138.657 53.4917C137.836 53.7596 137.12 54.2926 136.604 54.9764Z" fill="#898D9A"/>
<path d="M138.098 56.7371C138.702 56.3038 139.302 55.8614 139.91 55.4333C140.509 55.8757 141.122 56.3 141.719 56.7447C141.485 57.4516 141.253 58.1587 141.024 58.8664C140.28 58.8679 139.536 58.8649 138.793 58.8679C138.555 58.1594 138.319 57.4509 138.098 56.7371Z" fill="#898D9A"/>
<path d="M128.706 49.8488C128.797 49.7926 128.89 49.878 128.972 49.9095C130.475 50.714 131.981 51.5132 133.486 52.3154C133.638 52.3739 133.698 52.5463 133.59 52.6753C132.76 54.195 132.657 56.0731 133.297 57.679C133.386 57.8155 133.252 57.9414 133.124 57.9812C131.69 58.5322 130.254 59.0788 128.819 59.6291C128.596 59.7108 128.379 59.8166 128.146 59.8698C128.074 59.8383 128.023 59.7881 127.992 59.7183C126.752 56.6062 126.974 52.9663 128.561 50.0161C128.592 49.9425 128.64 49.887 128.706 49.8488Z" fill="#898D9A"/>
<path d="M149.397 50.1626C149.577 50.0554 149.729 50.2825 149.85 50.3875C152.22 52.699 153.521 56.0435 153.314 59.3356C153.288 59.3693 153.237 59.4353 153.211 59.4683C151.501 59.4136 149.791 59.3033 148.081 59.2351C147.939 59.2164 147.751 59.2478 147.653 59.1181C147.629 58.8707 147.652 58.6226 147.64 58.3751C147.565 56.8464 146.869 55.3575 145.74 54.3153C145.595 54.2118 145.67 54.023 145.783 53.9292C146.992 52.6787 148.177 51.4027 149.397 50.1626Z" fill="#898D9A"/>
<path d="M131.754 59.2397C131.875 59.2 132.013 59.1093 132.138 59.185C132.197 59.2622 132.237 59.3522 132.281 59.4399C132.897 60.7917 134.054 61.8886 135.431 62.4591C135.659 62.5603 135.908 62.6106 136.128 62.7283C136.172 62.8497 136.131 62.9772 136.097 63.0957C135.575 64.7451 135.06 66.3967 134.541 68.0469C134.448 68.0656 134.356 68.0649 134.265 68.0446C131.094 67.0834 128.401 64.703 127.057 61.6958C127.005 61.5669 127.013 61.4244 127 61.2887C128.581 60.5975 130.172 59.9287 131.754 59.2397Z" fill="#898D9A"/>
<path d="M145.98 59.8748C146.113 59.7976 146.269 59.8306 146.413 59.8366C148.086 59.9745 149.761 60.0922 151.433 60.2309C151.565 60.2205 151.64 60.3547 151.617 60.4723C151.384 63.7876 149.622 66.9538 146.934 68.9301C146.839 68.9916 146.736 69.0343 146.636 69.0823C145.61 67.7305 144.62 66.3525 143.602 64.9947C143.511 64.8665 143.403 64.7421 143.363 64.5876C143.388 64.4909 143.483 64.4414 143.552 64.3792C144.769 63.484 145.608 62.109 145.87 60.6313C145.918 60.3809 145.923 60.1237 145.98 59.8748Z" fill="#898D9A"/>
<path d="M141.576 63.6822C141.684 63.5818 141.836 63.617 141.907 63.7407C142.814 65.0685 143.709 66.4053 144.614 67.7353C144.712 67.88 144.816 68.0231 144.889 68.1843C144.818 68.377 144.611 68.4565 144.454 68.5652C142.906 69.5301 141.131 70.1306 139.311 70.2993C138.561 70.2873 137.808 70.2783 137.058 70.3105C136.406 70.2251 135.754 70.1253 135.119 69.9499C135.013 69.9304 134.939 69.8502 134.859 69.7857C135.349 68.0778 135.81 66.3617 136.294 64.6523C136.315 64.5076 136.467 64.4252 136.599 64.4926C138.273 64.965 140.136 64.6448 141.576 63.6822Z" fill="#898D9A"/>
<path d="M271.538 65.1099C267.98 67.7483 262.825 69.156 258.386 69.156C252.162 69.156 246.558 66.8393 242.319 62.9863C241.986 62.6833 242.285 62.2704 242.684 62.5064C247.259 65.185 252.916 66.7964 258.759 66.7964C262.7 66.7964 267.035 65.976 271.021 64.2733C271.623 64.0159 272.126 64.6702 271.538 65.1099Z" fill="#898D9A"/>
<path d="M273.017 63.4076C272.564 62.823 270.012 63.1314 268.866 63.2681C268.517 63.311 268.464 63.0054 268.778 62.7855C270.811 61.3456 274.147 61.7612 274.536 62.2439C274.925 62.7292 274.435 66.0942 272.524 67.7003C272.231 67.947 271.951 67.8156 272.082 67.4885C272.511 66.4106 273.473 63.9948 273.017 63.4076Z" fill="#898D9A"/>
<path d="M268.944 52.6205V51.2209C268.944 51.0091 269.104 50.8669 269.296 50.8669H275.523C275.723 50.8669 275.882 51.0117 275.882 51.2209V52.4194C275.88 52.6205 275.712 52.8833 275.413 53.2989L272.187 57.9348C273.386 57.9053 274.651 58.085 275.739 58.7017C275.984 58.8411 276.05 59.0449 276.069 59.246V60.7395C276.069 60.9432 275.845 61.1819 275.611 61.0585C273.695 60.0477 271.15 59.9378 269.032 61.0693C268.816 61.1872 268.59 60.9513 268.59 60.7475V59.3291C268.59 59.1012 268.593 58.7124 268.819 58.3665L272.557 52.9718H269.304C269.104 52.9718 268.944 52.8297 268.944 52.6205Z" fill="#898D9A"/>
<path d="M246.229 61.3539H244.334C244.153 61.3405 244.009 61.2038 243.996 61.0295V51.2455C243.996 51.0497 244.159 50.8942 244.361 50.8942H246.128C246.311 50.9022 246.458 51.0444 246.471 51.2213V52.5003H246.506C246.967 51.2642 247.833 50.6877 249 50.6877C250.186 50.6877 250.926 51.2642 251.459 52.5003C251.917 51.2642 252.959 50.6877 254.076 50.6877C254.87 50.6877 255.738 51.0175 256.268 51.7576C256.868 52.5807 256.745 53.7766 256.745 54.825L256.743 61C256.743 61.1957 256.58 61.3539 256.378 61.3539H254.486C254.297 61.3405 254.145 61.1877 254.145 61V55.8144C254.145 55.4015 254.182 54.3718 254.092 53.9804C253.95 53.3235 253.527 53.1384 252.978 53.1384C252.52 53.1384 252.04 53.4468 251.846 53.9402C251.651 54.4335 251.67 55.2593 251.67 55.8144V61C251.67 61.1957 251.507 61.3539 251.305 61.3539H249.413C249.221 61.3405 249.072 61.1877 249.072 61L249.069 55.8144C249.069 54.7231 249.248 53.117 247.902 53.117C246.541 53.117 246.594 54.6829 246.594 55.8144V61C246.594 61.1957 246.431 61.3539 246.229 61.3539Z" fill="#898D9A"/>
<path d="M281.244 50.6877C284.055 50.6877 285.576 53.117 285.576 56.2058C285.576 59.1901 283.895 61.5577 281.244 61.5577C278.483 61.5577 276.98 59.1285 276.98 56.1013C276.98 53.0553 278.502 50.6877 281.244 50.6877ZM281.26 52.6853C279.863 52.6853 279.775 54.5997 279.775 55.7929C279.775 56.9888 279.757 59.5414 281.244 59.5414C282.712 59.5414 282.781 57.4821 282.781 56.2273C282.781 55.4015 282.746 54.4147 282.499 53.6318C282.285 52.9508 281.862 52.6853 281.26 52.6853Z" fill="#898D9A"/>
<path d="M289.218 61.3539H287.332C287.143 61.3405 286.991 61.1877 286.991 61L286.988 51.2133C287.004 51.0336 287.161 50.8942 287.353 50.8942H289.109C289.274 50.9022 289.41 51.0149 289.448 51.1677V52.6639H289.482C290.012 51.3259 290.756 50.6877 292.064 50.6877C292.914 50.6877 293.743 50.9961 294.276 51.8407C294.771 52.6236 294.771 53.9402 294.771 54.8866V61.0456C294.75 61.2172 294.593 61.3539 294.406 61.3539H292.506C292.333 61.3405 292.189 61.2118 292.171 61.0456V55.7313C292.171 54.6614 292.293 53.0955 290.985 53.0955C290.524 53.0955 290.1 53.4066 289.89 53.8785C289.623 54.4764 289.589 55.0717 289.589 55.7313V61C289.586 61.1957 289.421 61.3539 289.218 61.3539Z" fill="#898D9A"/>
<path d="M263.98 56.6805V56.2676C262.611 56.2676 261.164 56.5626 261.164 58.1874C261.164 59.0106 261.588 59.5683 262.315 59.5683C262.848 59.5683 263.325 59.2385 263.626 58.7022C263.999 58.0426 263.98 57.4232 263.98 56.6805ZM265.891 61.3272C265.766 61.4398 265.584 61.4479 265.443 61.3728C264.814 60.8473 264.702 60.6033 264.356 60.1019C263.317 61.169 262.582 61.4881 261.233 61.4881C259.64 61.4881 258.398 60.4987 258.398 58.5172C258.398 56.9701 259.232 55.9164 260.418 55.4016C261.447 54.9457 262.883 54.8653 263.98 54.7393V54.4926C263.98 54.0395 264.015 53.5032 263.751 53.1117C263.519 52.7605 263.077 52.6157 262.688 52.6157C261.966 52.6157 261.321 52.9884 261.164 53.7606C261.132 53.9322 261.007 54.1011 260.836 54.1092L258.998 53.9108C258.843 53.8759 258.673 53.7499 258.716 53.5112C259.139 51.2697 261.151 50.594 262.952 50.594C263.874 50.594 265.078 50.8407 265.806 51.5432C266.727 52.4092 266.64 53.5649 266.64 54.8224V57.7933C266.64 58.6861 267.007 59.0776 267.354 59.5602C267.476 59.7318 267.503 59.9383 267.348 60.067C266.962 60.3914 266.274 60.9947 265.896 61.3326L265.891 61.3272Z" fill="#898D9A"/>
<path d="M239.144 56.6803V56.2674C237.775 56.2674 236.328 56.5623 236.328 58.1872C236.328 59.0103 236.752 59.568 237.479 59.568C238.012 59.568 238.489 59.2382 238.79 58.702C239.163 58.0424 239.144 57.423 239.144 56.6803ZM241.055 61.327C240.93 61.4396 240.748 61.4476 240.607 61.3725C239.978 60.847 239.867 60.603 239.52 60.1016C238.481 61.1688 237.746 61.4878 236.397 61.4878C234.804 61.4878 233.562 60.4984 233.562 58.517C233.562 56.9699 234.396 55.9161 235.582 55.4013C236.611 54.9455 238.047 54.865 239.144 54.739V54.4923C239.144 54.0392 239.179 53.503 238.915 53.1115C238.684 52.7602 238.241 52.6154 237.852 52.6154C237.13 52.6154 236.485 52.9881 236.328 53.7604C236.296 53.932 236.171 54.1009 236 54.1089L234.162 53.9105C234.007 53.8757 233.837 53.7496 233.88 53.511C234.303 51.2694 236.315 50.5938 238.116 50.5938C239.038 50.5938 240.242 50.8404 240.97 51.5429C241.892 52.409 241.804 53.5646 241.804 54.8221V57.793C241.804 58.6859 242.171 59.0774 242.518 59.56C242.64 59.7316 242.667 59.9381 242.512 60.0668C242.126 60.3912 241.439 60.9945 241.06 61.3323L241.055 61.327Z" fill="#898D9A"/>
</svg>
