<svg width="1110" height="49" viewBox="0 0 1110 49" fill="none" xmlns="http://www.w3.org/2000/svg">
<path d="M108.026 14.6394L104.192 14.6494V34.3715H121.776C123.699 33.5534 124.73 32.1391 125.128 30.4879H108.016L108.026 14.6394ZM136.72 18.5804H151.388C153.426 18.1763 154.944 16.3729 155.369 14.6294H132.737C133.16 16.3729 134.7 18.1763 136.72 18.5804ZM89.2183 18.5255C91.2561 17.9318 92.973 16.3729 93.391 14.6444H71.8682V26.2976H89.4845V30.3882L75.6677 30.4006C73.5005 31.0043 71.6692 32.4609 70.751 34.3865L71.8682 34.3665H93.2715V22.424H75.6677V18.5255H89.2183ZM133.329 34.3665H137.143V26.4273H151.03V34.3665H154.842V22.4589L133.329 22.439V34.3665ZM42.2241 18.5679H56.8894C58.9297 18.1613 60.445 16.358 60.8705 14.6145H38.2405C38.6635 16.358 40.2012 18.1613 42.2241 18.5679ZM4.07031 14.6594C4.51072 16.3854 6.00114 18.1439 8.04394 18.5878H14.2171L14.5306 18.7126V34.3266H18.3873V18.7126L18.7356 18.5878H24.9163C26.979 18.0541 28.437 16.3854 28.8725 14.6594V14.622H4.07031V14.6594ZM42.2241 34.369H56.8894C58.9297 33.96 60.445 32.1616 60.8705 30.4156H38.2405C38.6635 32.1616 40.2012 33.96 42.2241 34.369ZM42.2241 26.3624H56.8894C58.9297 25.9584 60.445 24.155 60.8705 22.4115H38.2405C38.6635 24.155 40.2012 25.9584 42.2241 26.3624Z" fill="#898D9A"/>
<path fill-rule="evenodd" clip-rule="evenodd" d="M247.187 18.2338L247.232 18.2914L244.744 22.2986L244.578 22.1008L244.463 21.9713L244.235 21.7316L244.05 21.5474C243.123 20.6506 241.346 19.2756 239.199 19.3198C236.381 19.3727 234.23 21.6922 234.23 24.3925C234.23 26.7653 235.669 29.409 239.498 29.4684C241.699 29.4957 243.202 27.9322 243.972 26.8053L244.121 26.5791C244.209 26.4401 244.417 26.0975 244.706 25.6132L250.998 14.9662H256.09V33.8588H251.404V31.0245L247.671 31.009L247.173 31.0121L247.037 31.0178L247.013 31.0224L247.016 31.0245L246.916 31.1364L246.796 31.2607L246.627 31.4261L246.484 31.558L246.32 31.703L246.135 31.8592C244.825 32.9331 242.084 34.6172 238.095 34.2284C234.09 33.844 229.188 30.6657 229.188 24.3026C229.188 21.2817 231.454 14.7622 239.244 14.5872C244.04 14.4805 246.81 17.7567 247.187 18.2338ZM304.394 14.5713C306.958 14.5713 309.384 15.5595 311.252 17.3769C312.45 18.5445 313.297 19.9155 313.773 21.4009L313.772 14.966H318.17L325.482 25.4651V14.966H330.358V33.8714H326.074L318.646 23.3386V33.8714H313.772L313.772 27.3909C313.32 28.8697 312.534 30.198 311.443 31.3097C309.578 33.2336 307.04 34.2771 304.367 34.2771C301.565 34.2771 299.163 33.2859 297.282 31.3504L297.282 33.8714H286.764V14.9695H291.603V29.6943L295.977 29.6952C294.989 28.12 294.49 26.2977 294.49 24.2269C294.49 21.6058 295.511 19.196 297.403 17.3527C299.292 15.5058 301.666 14.5713 304.394 14.5713ZM207.731 14.9662C210.891 14.9662 213.099 15.3633 215.171 17.2246C216.66 18.5578 217.601 20.3661 217.938 22.5825L217.937 14.9662H228.764V19.1252L222.808 19.1319V22.2206L227.966 22.216V26.2815L222.808 26.2868V29.7133H228.764V33.8587H217.937L217.939 26.3219C217.606 28.3895 216.682 30.1374 215.193 31.5316C213.071 33.4956 211.196 33.8714 208.398 33.8714H200.93V14.9662H207.731ZM269.532 14.9586V19.4782H265.754V33.8714H260.887V19.4782H257.106V14.9586H269.532ZM275.401 14.9643V22.1435H280.411V14.9643H285.278V33.8714H280.411V26.6374H275.401V33.8714H270.536V14.9643H275.401ZM207.731 19.0315H205.798V29.7195H207.753C211.478 29.7195 213.239 28.0746 213.239 24.3544C213.239 20.9503 211.306 19.0315 207.731 19.0315ZM304.422 19.2754C301.564 19.2754 299.32 21.4981 299.32 24.2782C299.32 27.2752 301.721 29.5676 304.367 29.5676C307.123 29.5676 309.365 27.3766 309.365 24.2782C309.365 21.4981 307.123 19.2754 304.422 19.2754ZM251.5 22.7938L248.989 27.0723H251.5V22.7938Z" fill="#898D9A"/>
<path d="M398.06 34.7996C396.24 34.7017 394.882 33.9528 394.088 32.6093C393.555 31.7073 393.393 30.5211 393.636 29.3089C393.907 27.9659 394.824 26.7556 396.231 25.8851C397.04 25.3846 397.733 25.0739 399.142 24.5784C399.497 24.4538 399.803 24.3391 399.822 24.3231C399.851 24.3007 399.855 24.2213 399.84 23.9634C399.8 23.2297 399.922 22.0867 400.13 21.2618C400.478 19.8736 401.149 18.7538 402.039 18.0745C402.678 17.5865 403.516 17.2195 404.35 17.0622C404.81 16.9755 405.582 16.9758 406.015 17.063C407.872 17.4369 408.914 18.8682 408.504 20.4809C408.417 20.8209 408.144 21.3783 407.913 21.6866C407.321 22.4766 406.43 23.179 405.171 23.8474C405.013 23.9316 404.495 24.1861 404.021 24.4133C403.546 24.6402 403.143 24.841 403.125 24.8597C403.098 24.8861 403.105 24.9632 403.156 25.2224C403.392 26.4209 403.789 27.4336 404.467 28.5659C404.736 29.0166 405.109 29.585 405.151 29.6114C405.212 29.6492 405.463 29.2441 405.627 28.8433C405.829 28.3472 405.945 27.6912 405.887 27.3653C405.846 27.1319 405.719 26.8855 405.556 26.7263C405.482 26.6527 405.42 26.5831 405.419 26.5716C405.419 26.5604 406.051 26.554 406.823 26.558L408.228 26.5652L408.22 26.7434C408.209 26.9869 408.119 27.5061 408.023 27.8757C407.755 28.915 407.249 29.8039 406.374 30.7747C406.27 30.8891 406.186 31.0014 406.186 31.0243C406.186 31.0472 406.331 31.2065 406.508 31.3782C407.614 32.4503 409.573 33.6867 411.168 34.319C411.323 34.3806 411.45 34.4433 411.449 34.4582C411.449 34.4764 410.528 34.4881 408.758 34.4929L406.067 34.4998L405.914 34.4137C405.602 34.2379 404.91 33.6787 404.245 33.0642C404.104 32.9341 403.971 32.8277 403.949 32.8277C403.926 32.8277 403.77 32.9186 403.601 33.0298C402.738 33.5995 401.705 34.1113 400.832 34.4025C399.839 34.734 399.019 34.8513 398.06 34.7999V34.7996ZM400.325 32.4687C400.728 32.397 401.222 32.2508 401.677 32.0692C402.135 31.8868 402.702 31.6078 402.722 31.555C402.73 31.5342 402.625 31.359 402.49 31.1654C401.864 30.2736 401.195 29.0193 400.746 27.8944C400.58 27.4797 400.271 26.5612 400.211 26.3095C400.193 26.2292 400.159 26.1564 400.136 26.1476C400.074 26.1236 399.56 26.3975 399.116 26.6919C397.537 27.7381 396.781 29.0153 396.949 30.3498C397.023 30.943 397.211 31.3753 397.553 31.7404C398.184 32.4151 399.172 32.6746 400.325 32.4687ZM403.004 23.1889C403.588 22.847 404.515 22.0168 405.033 21.3714C405.696 20.5454 406.049 19.7747 406.049 19.1496C406.049 18.7922 405.998 18.6322 405.833 18.4668C405.668 18.3026 405.483 18.2346 405.199 18.2343C404.358 18.2343 403.448 19.2328 403.052 20.5913C402.852 21.2762 402.803 21.6447 402.802 22.4814C402.801 23.1204 402.811 23.2625 402.859 23.2625C402.87 23.2625 402.935 23.2294 403.004 23.1889ZM416.915 34.7836C415.529 34.6441 414.616 34.4369 413.586 34.0289C412.183 33.4731 411.308 32.7847 410.568 31.6569C410.347 31.3193 409.992 30.6104 409.848 30.2186C409.207 28.4731 409.066 26.2756 409.448 23.9831C409.835 21.6629 410.716 19.4267 411.933 17.6788C412.721 16.5453 413.895 15.3516 415.107 14.4502C417.107 12.9621 419.41 12.0473 421.969 11.7257C422.745 11.6281 423.18 11.603 424.096 11.6035C425.483 11.6043 426.539 11.7099 427.933 11.987C428.823 12.1641 430.24 12.5465 430.267 12.6172C430.281 12.653 429.383 15.5308 429.346 15.5695C429.335 15.5815 429.197 15.4895 429.04 15.3641C427.779 14.3587 426.472 13.7467 425.15 13.5432C424.728 13.4781 423.935 13.4773 423.521 13.5416C421.668 13.8285 419.95 15.0124 418.425 17.0534C417.929 17.7164 417.383 18.605 416.959 19.4392C416.383 20.57 415.988 21.5695 415.588 22.9062C414.314 27.1589 414.249 30.1301 415.396 31.7385C415.868 32.4012 416.559 32.8234 417.435 32.9848C417.938 33.0776 419.159 33.0213 419.28 32.8999C419.3 32.8807 419.896 31.0158 420.605 28.7556C421.77 25.0429 421.895 24.6242 421.909 24.4138C421.926 24.1311 421.874 23.8786 421.747 23.6353C421.631 23.4142 421.326 23.1142 421.075 22.9747C420.966 22.9145 420.877 22.8558 420.877 22.8446C420.876 22.8334 422.831 22.8241 425.22 22.8241C427.609 22.8241 429.564 22.8334 429.564 22.8446C429.564 22.8558 429.458 22.9137 429.328 22.9726C428.652 23.282 428.162 23.7455 427.87 24.3519C427.807 24.4831 427.26 26.1814 426.439 28.7966L425.11 33.029L424.726 33.213C423.162 33.9638 421.249 34.5044 419.34 34.7351C418.989 34.7777 417.209 34.8132 416.916 34.7836H416.915ZM376.931 34.4742C376.922 34.4604 376.98 34.4116 377.059 34.366C377.531 34.0942 378.061 33.5304 378.285 33.0605C378.35 32.9245 384.309 13.9467 384.441 13.4562C384.464 13.3704 384.483 13.189 384.484 13.0535C384.485 12.6396 384.357 12.3412 384.054 12.0548C383.972 11.9766 383.904 11.9012 383.904 11.887C383.904 11.8494 394.309 11.8526 394.786 11.8905C395.819 11.9724 396.854 12.2471 397.645 12.6492C398.995 13.336 399.804 14.3782 400.052 15.7525C400.122 16.1349 400.135 16.9856 400.078 17.3974C399.847 19.076 399.086 20.8564 398.05 22.1445C396.373 24.2311 393.629 25.5654 390.263 25.9324C389.195 26.0486 387.85 26.078 386.898 26.0054C386.623 25.9844 386.392 25.9729 386.385 25.9798C386.351 26.014 384.203 32.9066 384.178 33.0605C384.102 33.5349 384.347 34.0683 384.768 34.3478C384.851 34.403 384.912 34.4598 384.903 34.4737C384.882 34.5081 376.952 34.5084 376.93 34.474L376.931 34.4742ZM388.741 24.2367C389.524 24.098 390.214 23.8084 390.88 23.3398C391.203 23.1124 391.868 22.4486 392.142 22.0792C392.828 21.1556 393.332 20.0659 393.739 18.6306C393.999 17.7158 394.109 17.019 394.109 16.3008C394.109 15.7471 394.059 15.4164 393.919 15.0455C393.713 14.495 393.292 14.06 392.757 13.844C392.298 13.6584 391.906 13.6096 390.963 13.6205L390.252 13.6285L388.599 18.8909C387.691 21.7853 386.952 24.1674 386.958 24.1845C386.964 24.2015 387.078 24.2303 387.211 24.2485C387.345 24.2666 387.472 24.2858 387.495 24.2914C387.598 24.3167 388.519 24.2765 388.741 24.237V24.2367Z" fill="#898D9A"/>
<path fill-rule="evenodd" clip-rule="evenodd" d="M556.336 23.6781C556.336 23.6781 554.961 22.8274 554.11 22.4983C554.11 22.4983 551.477 21.2778 550.954 20.6971C550.954 20.6971 549.928 19.7299 550.529 18.6065C550.529 18.6065 550.78 17.8714 551.865 17.8714C551.865 17.8714 553.277 17.949 553.277 19.1095V20.7465H558.337L558.328 18.3356C558.328 18.3356 558.717 14.3873 552.368 14.2135C552.368 14.2135 547.374 13.8852 545.942 16.575C545.942 16.575 545.379 17.1751 545.379 19.2648V20.7748C545.379 20.7748 545.322 22.5168 546.212 23.6393C546.212 23.6393 546.715 24.3753 547.954 25.1872C547.954 25.1872 550.47 26.5418 551.98 27.3175C551.98 27.3175 553.504 28.1876 553.303 29.5723C553.303 29.5723 553.179 30.9939 551.707 30.9357C551.707 30.9357 550.361 30.8757 550.361 29.4814V27.8452H544.969V30.2218C544.969 30.2218 544.818 34.7666 551.747 34.7666C551.747 34.7666 558.367 34.9007 558.676 30.1026V28.1673C558.675 28.1673 558.91 25.2269 556.336 23.6781ZM530.43 14.7791L528.736 25.3972H528.34L526.721 14.8745H518.269L517.845 34.1029H522.85L522.91 19.6152H523.303L525.956 34.1003H531.221L533.841 19.6205H534.19L534.31 34.1029H539.341L538.8 14.7791H530.43ZM500.639 14.8595L497.31 34.0809H502.697L504.669 19.1775H505.112L507.084 34.0809H512.471L509.142 14.8595H500.639ZM613.687 23.4134V26.2488H615.069V29.2925C615.069 30.7804 613.798 30.8077 613.798 30.8077C612.252 30.8077 612.31 29.394 612.31 29.394V18.8659C612.31 17.7814 613.682 17.7231 613.682 17.7231C614.999 17.7231 615.008 19.0168 615.008 19.0168V20.6177H620.08C620.246 17.4928 619.623 16.7365 619.623 16.7365C618.365 13.9108 613.604 14.0652 613.604 14.0652C606.29 14.0652 607.101 19.6778 607.101 19.6778V29.8573C607.258 35.1213 614.467 34.5865 614.588 34.5821C617.795 34.2274 618.763 33.2081 618.763 33.2081C619.654 32.5462 619.883 31.6293 619.883 31.6293C620.138 31.0954 620.202 29.394 620.202 29.394V23.4134H613.687ZM596.873 26.5418H596.653L591.505 14.7844H585.346V34.1047H590.359L590.059 22.3491H590.283L595.616 34.1047H601.588V14.7827H596.512L596.873 26.5418ZM573.111 29.2907C573.111 29.2907 573.183 30.8766 571.713 30.8766C571.713 30.8766 570.167 30.9595 570.167 29.3305L570.151 14.7959H564.653V29.2149C564.653 29.2149 564.089 34.6721 571.791 34.6721C571.791 34.6721 578.483 34.7516 578.483 29.4655V14.7968H573.111V29.2907ZM490.158 23.6781C490.158 23.6781 488.784 22.8274 487.932 22.4991C487.932 22.4991 485.301 21.2795 484.778 20.698C484.778 20.698 483.752 19.729 484.354 18.6083C484.354 18.6083 484.604 17.8731 485.688 17.8731C485.688 17.8731 487.101 17.9499 487.101 19.1104V20.7474H492.163L492.153 18.3356C492.153 18.3356 492.54 14.3873 486.193 14.2144C486.193 14.2144 485.715 14.1835 485.013 14.2188C485.013 14.2188 481.168 14.4253 479.793 16.5344C479.785 16.5503 479.774 16.5618 479.766 16.5759C479.766 16.5759 479.204 17.1751 479.204 19.2657V20.7756C479.204 20.7756 479.146 22.5177 480.037 23.6402C480.037 23.6402 480.54 24.3762 481.779 25.1881C481.779 25.1881 484.294 26.5427 485.804 27.3184C485.804 27.3184 487.33 28.1868 487.127 29.5731C487.127 29.5731 487.003 30.9948 485.532 30.9366C485.532 30.9366 484.186 30.8766 484.186 29.4822V27.8452H478.793V30.2235C478.793 30.2235 478.642 34.7683 485.571 34.7683C485.571 34.7683 492.189 34.9025 492.501 30.1044V28.1709C492.501 28.1691 492.732 25.2269 490.158 23.6781Z" fill="#898D9A"/>
<path fill-rule="evenodd" clip-rule="evenodd" d="M719.185 18.7516C720.371 18.1128 721.556 17.7928 723.065 17.7928C726.73 17.7928 729.533 20.9905 729.533 25.3593C729.533 30.9011 726.083 34.4182 720.37 34.4182C718.321 34.4182 716.273 34.0982 714.332 33.6717C714.44 31.4334 714.549 17.7928 714.332 15.2351C714.119 13.9556 713.794 13.4233 712.824 13.2104L712.07 13.1039V12.4645L719.293 11.1863C719.185 12.2516 719.185 15.3416 719.185 18.7516ZM719.292 33.1394C719.614 33.2452 720.154 33.2452 720.585 33.2452C722.849 33.2452 724.467 29.9423 724.467 25.6781C724.467 22.2687 723.174 19.4981 720.801 19.4981C720.261 19.4981 719.83 19.6045 719.183 19.8181C719.076 25.3593 719.183 31.6476 719.292 33.1394ZM665.93 11.6121H684.903L685.011 17.8998L683.933 18.2199C682.855 15.0222 681.346 13.211 678.435 13.211H674.662C674.554 15.2357 674.446 18.6457 674.446 22.2693L677.033 22.1622C678.65 22.1622 679.404 20.884 679.728 19.0722H680.698V26.6363H679.728C679.404 24.8251 678.65 23.5463 677.033 23.5463L674.446 23.4398C674.446 26.2098 674.554 28.4481 674.662 29.834C674.877 31.8593 675.416 32.8181 676.818 32.924L678.111 33.1381V33.9905H665.93V33.1381L667.008 32.924C668.409 32.8187 668.948 31.8593 669.163 29.834C669.379 26.5317 669.487 19.6039 669.163 15.7674C668.948 13.7427 668.409 12.8904 667.008 12.6774L665.93 12.571V11.6121ZM699.134 25.9987C699.134 21.2034 696.439 17.5798 691.049 17.5798C685.658 17.5798 682.64 21.4163 682.64 25.9987C682.64 30.7946 685.335 34.4188 690.725 34.4188C696.115 34.4188 699.134 30.5811 699.134 25.9987ZM687.706 25.9987C687.706 21.8428 688.353 18.6457 690.725 18.6457C692.99 18.6457 694.067 21.9492 694.067 25.9987C694.067 30.1546 693.419 33.3517 690.941 33.3517C688.785 33.3517 687.706 30.0481 687.706 25.9987ZM739.235 17.5798C733.737 17.5798 730.934 21.7363 730.934 26.1058C730.934 31.0082 734.384 34.4182 739.235 34.4188C742.253 34.4188 744.624 32.9258 745.702 31.434L745.272 30.9017C744.193 31.6482 743.331 32.0734 741.606 32.0734C737.725 32.0734 735.784 29.1958 735.893 25.2528H745.919C745.919 20.884 743.761 17.5798 739.235 17.5798ZM740.959 23.974L735.893 24.081C736 21.6292 736.972 18.6457 738.804 18.6457C740.636 18.6457 740.959 21.8428 740.959 23.974ZM753.79 17.5798C755.731 17.5798 757.455 17.8992 758.749 18.4328L758.859 22.5887L758.105 22.8016C757.133 19.9239 755.84 18.7515 753.901 18.7515C752.607 18.7515 751.635 19.711 751.635 21.0963C751.635 22.4822 752.712 23.2281 755.731 24.3998C758.534 25.4663 759.72 26.7446 759.72 28.9828C759.72 32.2858 757.025 34.4182 752.82 34.4182C750.772 34.4182 748.401 33.9911 747.107 33.4587L746.999 28.7699L747.754 28.5557C748.939 31.7534 750.449 32.9252 752.497 32.9252C754.222 32.9252 755.192 31.7534 755.192 30.4746C755.192 29.1958 754.437 28.4493 751.743 27.4911C749.153 26.6381 747.322 25.4663 747.322 22.6951C747.322 19.9239 749.802 17.5798 753.79 17.5798ZM706.357 21.3104C708.081 17.4733 711.316 16.9416 713.148 18.0063L711.423 22.3763C709.267 20.991 706.895 21.6298 706.357 22.3763C706.248 24.934 706.248 28.9834 706.464 31.0088C706.572 32.2864 706.896 32.9258 707.973 33.0329L709.267 33.1399V33.9923H699.242V33.1399L699.996 33.0329C700.967 32.9258 701.398 32.2864 701.506 31.0088C701.614 28.7711 701.721 24.2946 701.506 21.7369C701.398 20.351 700.967 19.8187 699.996 19.7116L699.242 19.6051V18.9657L706.464 17.5804L706.357 21.3104Z" fill="#898D9A"/>
<path d="M859.032 12.5338C860.841 12.5377 862.649 12.5249 864.459 12.5402C864.45 17.6925 864.452 22.8446 864.456 27.9969C866.635 27.9956 868.813 27.9982 870.991 27.9956V32.5913C867.007 32.5939 863.023 32.5863 859.038 32.5952C859.024 25.9081 859.037 19.221 859.032 12.5338Z" fill="#898D9A"/>
<path d="M892.578 12.5298C894.385 12.5374 896.191 12.5323 897.996 12.5323C897.997 17.6871 897.996 22.8418 897.997 27.9953C900.178 28.0017 902.358 27.9864 904.538 28.0029C904.528 29.5327 904.535 31.0612 904.535 32.5898C900.548 32.5911 896.561 32.5924 892.574 32.5898C892.579 25.9028 892.57 19.2169 892.578 12.5298Z" fill="#898D9A"/>
<path d="M878.374 16.3339C879.685 16.0906 881.087 16.1261 882.337 16.614C883.207 16.9525 883.941 17.5317 884.651 18.1109C884.661 17.571 884.652 17.0311 884.663 16.4911C886.325 16.5 887.989 16.4924 889.651 16.4949C889.646 21.8525 889.662 27.2113 889.645 32.5702C887.951 32.6222 886.253 32.5778 884.558 32.5904C884.558 32.0911 884.56 31.5916 884.556 31.0935C883.222 32.2671 881.452 32.9985 879.634 32.9757C877.517 33.0124 875.344 32.233 873.934 30.6778C872.461 29.0821 871.855 26.8995 871.842 24.7994C871.798 22.959 872.352 21.1047 873.432 19.5838C874.572 17.9512 876.358 16.7154 878.374 16.3339ZM879.957 20.8131C878.782 21.04 877.765 21.8601 877.304 22.9234C876.55 24.6713 877.071 26.9945 878.774 28.0478C880.342 29.0034 882.581 28.6194 883.794 27.2911C885.28 25.7309 885.106 23.0058 883.447 21.623C882.513 20.822 881.165 20.5469 879.957 20.8131Z" fill="#898D9A"/>
<path d="M916.881 17.6128C918.397 16.4011 920.47 15.9778 922.392 16.2769C923.831 16.4631 925.086 17.2681 926.077 18.2566C926.087 17.6698 926.082 17.083 926.082 16.4961C927.693 16.4948 929.303 16.4898 930.914 16.4987C930.91 21.2934 930.914 26.087 930.913 30.8818C930.888 32.6879 930.247 34.5257 928.929 35.8363C927.403 37.3813 925.181 38.1151 923.009 38.2153C920.776 38.3205 918.426 37.8591 916.618 36.5346C915.311 35.6018 914.416 34.1492 914.215 32.5903C916.089 32.6004 917.965 32.5751 919.839 32.6017C920.173 32.9731 920.46 33.4154 920.936 33.6359C921.615 33.9591 922.408 33.9313 923.145 33.8691C924.093 33.7664 925.107 33.3634 925.58 32.5155C925.991 31.8171 925.813 30.9908 925.86 30.2277C924.478 31.3393 922.721 32.1226 920.893 32.0554C919.136 32.0327 917.396 31.3254 916.182 30.0959C914.531 28.4799 913.818 26.1452 913.896 23.9133C913.964 21.5508 914.94 19.1223 916.881 17.6128ZM921.617 20.4354C920.354 20.6242 919.361 21.6255 919.021 22.7853C918.601 24.1833 918.769 25.8602 919.83 26.9603C921.129 28.3495 923.612 28.2303 924.938 26.9376C926.429 25.5573 926.474 23.0718 925.195 21.5496C924.344 20.5494 922.894 20.2428 921.617 20.4354Z" fill="#898D9A"/>
<path d="M936.738 17.5075C938.426 16.358 940.614 15.922 942.636 16.3427C943.863 16.5962 944.91 17.3135 945.833 18.1032C945.825 17.5683 945.827 17.0322 945.827 16.4973C947.502 16.4973 949.179 16.4847 950.854 16.5037V32.5865C949.157 32.5966 947.457 32.5916 945.76 32.589C945.762 32.0884 945.762 31.5877 945.758 31.0884C945.195 31.551 944.598 31.9883 943.923 32.2911C942.154 33.1429 940.046 33.1556 938.184 32.5916C936.502 32.0757 935.058 30.9147 934.207 29.4254C933.197 27.6852 932.916 25.6294 933.085 23.6635C933.338 21.2427 934.657 18.9093 936.738 17.5075ZM941.082 20.8308C939.71 21.1134 938.594 22.225 938.289 23.5381C937.901 25.1439 938.435 27.0464 939.894 28.0021C941.549 29.068 944.004 28.5927 945.184 27.0679C946.43 25.509 946.23 23.0527 944.74 21.7053C943.781 20.8346 942.35 20.5228 941.082 20.8308Z" fill="#898D9A"/>
<path d="M908.482 9.57112C909.969 9.15667 911.696 9.99821 912.178 11.4279C912.584 12.5395 912.225 13.8742 911.293 14.6409C910.402 15.4128 909.028 15.6143 907.946 15.115C906.751 14.5877 906.059 13.2506 906.273 12.011C906.419 10.869 907.326 9.86131 908.482 9.57112ZM906.732 16.4977C908.409 16.4876 910.084 16.4977 911.761 16.4927C911.764 21.8591 911.764 27.2255 911.761 32.5919C910.084 32.5881 908.408 32.597 906.732 32.5868C906.738 27.2243 906.737 21.8604 906.732 16.4977Z" fill="#898D9A"/>
<path d="M826.434 1.72119H827.006C827.559 4.49907 828.049 7.28887 828.589 10.0695C828.69 10.5219 828.749 10.9836 828.756 11.4478C825.632 11.9505 822.762 13.8527 821.175 16.5817C821.075 16.8608 820.762 16.952 820.524 16.7682C817.924 15.2853 815.34 13.7733 812.742 12.2865C812.585 12.1622 812.277 12.0563 812.393 11.8037C812.531 11.4056 812.798 11.0682 813.022 10.715C814.621 8.26253 816.767 6.16854 819.248 4.60097C821.434 3.19741 823.901 2.27941 826.434 1.72119Z" fill="#898D9A"/>
<path d="M830.538 4.07724C835.654 3.59306 840.926 5.07857 845.009 8.178C845.401 8.4928 845.839 8.76536 846.163 9.15292C846.335 9.36064 846.095 9.56562 845.978 9.72434C844.184 11.7747 842.396 13.829 840.606 15.8808C840.376 16.1335 840.179 16.4205 839.91 16.6334C839.648 16.7749 839.458 16.5236 839.266 16.3887C837.246 14.6995 834.562 13.8318 831.929 13.968C831.483 13.9826 831.045 14.087 830.598 14.0764C830.457 13.9349 830.412 13.7418 830.384 13.5526C830.001 10.9268 829.604 8.30377 829.215 5.67923C829.156 5.24531 829.05 4.8115 829.074 4.3723C829.5 4.09055 830.052 4.16067 830.538 4.07724Z" fill="#898D9A"/>
<path d="M827.609 17.5689C829.725 17.2554 831.958 17.8772 833.619 19.2145C835.2 20.4712 836.266 22.3602 836.485 24.3628C836.699 26.0918 836.305 27.8908 835.376 29.3697C834.339 31.0483 832.638 32.309 830.719 32.8089C829.007 33.2561 827.137 33.1237 825.518 32.4028C823.758 31.6303 822.306 30.1951 821.526 28.4476C820.627 26.4488 820.631 24.0677 821.545 22.073C822.614 19.6735 824.985 17.9062 827.609 17.5689ZM822.872 21.1312C823.14 21.0042 823.404 20.8719 823.673 20.7475C823.334 21.5147 823.124 22.3482 823.195 23.1908C823.894 23.5254 824.631 23.79 825.298 24.1894C824.539 24.0875 823.794 23.8984 823.043 23.7516C822.466 24.3945 822.115 25.2014 821.941 26.0401C821.802 25.7902 821.673 25.5361 821.532 25.2888C821.533 26.7915 822.042 28.281 822.937 29.4913C822.88 29.2149 822.828 28.937 822.783 28.6593C823.446 29.1712 824.157 29.662 824.996 29.8392C825.533 29.2743 826.015 28.65 826.614 28.146C826.27 28.8418 825.853 29.4991 825.48 30.1804C825.925 30.8947 826.567 31.4636 827.292 31.8882C827.016 31.9557 826.742 32.0284 826.46 32.0747C827.209 32.2387 827.966 32.3935 828.736 32.4067C829.468 32.3749 830.193 32.2559 830.899 32.0654C830.627 32.0085 830.354 31.9582 830.082 31.904C830.792 31.4768 831.456 30.941 831.885 30.2241C831.63 29.4939 831.081 28.8894 830.82 28.1552C831.388 28.6844 831.874 29.2942 832.424 29.8432C833.244 29.6328 833.976 29.1871 834.607 28.6354C834.571 28.9238 834.531 29.2121 834.487 29.5005C835.337 28.2544 835.872 26.7874 835.864 25.2715C835.736 25.5321 835.598 25.7873 835.457 26.0413C835.281 25.2079 834.93 24.4062 834.362 23.7594C833.616 23.9009 832.872 24.0677 832.123 24.1999C832.756 23.7489 833.538 23.5702 834.197 23.1654C834.294 22.3334 834.05 21.5106 833.725 20.7526C833.981 20.873 834.235 20.996 834.489 21.123C833.612 19.8848 832.309 18.972 830.864 18.5038C831.087 18.7168 831.309 18.9297 831.528 19.148C830.67 19.0382 829.793 19.1348 828.991 19.4575C828.885 20.2101 828.871 20.9813 828.68 21.7195C828.572 20.9695 828.498 20.2141 828.411 19.4601C827.613 19.1453 826.74 19.0289 825.889 19.1519C826.087 18.9362 826.292 18.726 826.494 18.5116C825.047 18.9843 823.784 19.9248 822.872 21.1312Z" fill="#898D9A"/>
<path d="M825.512 24.2378C826.578 23.4733 827.636 22.6928 828.71 21.9375C829.767 22.718 830.847 23.4666 831.902 24.2511C831.488 25.4985 831.079 26.746 830.674 27.9948C829.362 27.9974 828.05 27.9921 826.738 27.9974C826.319 26.7473 825.902 25.4972 825.512 24.2378Z" fill="#898D9A"/>
<path d="M808.939 12.0842C809.099 11.9851 809.263 12.1359 809.408 12.1914C812.061 13.6108 814.718 15.021 817.372 16.4363C817.64 16.5395 817.747 16.8438 817.556 17.0713C816.092 19.7527 815.909 23.0663 817.039 25.8998C817.196 26.1406 816.96 26.3628 816.734 26.4329C814.203 27.4052 811.67 28.3695 809.139 29.3404C808.744 29.4846 808.362 29.6712 807.95 29.7651C807.824 29.7095 807.733 29.6209 807.678 29.4979C805.491 24.0069 805.882 17.5847 808.683 12.3794C808.738 12.2496 808.823 12.1517 808.939 12.0842Z" fill="#898D9A"/>
<path d="M845.445 12.6376C845.762 12.4485 846.031 12.8493 846.244 13.0345C850.426 17.1128 852.722 23.0138 852.355 28.8223C852.31 28.8818 852.219 28.9982 852.174 29.0564C849.157 28.9599 846.14 28.7654 843.124 28.645C842.873 28.6119 842.54 28.6675 842.368 28.4386C842.326 28.0021 842.366 27.5642 842.344 27.1277C842.212 24.4305 840.985 21.8034 838.993 19.9647C838.737 19.7821 838.869 19.4488 839.068 19.2834C841.202 17.0771 843.293 14.8256 845.445 12.6376Z" fill="#898D9A"/>
<path d="M814.318 28.6528C814.531 28.5827 814.775 28.4226 814.994 28.5563C815.1 28.6925 815.17 28.8512 815.248 29.006C816.335 31.3911 818.375 33.3263 820.805 34.333C821.208 34.5116 821.646 34.6002 822.035 34.8079C822.113 35.0222 822.041 35.2471 821.981 35.4561C821.059 38.3663 820.151 41.2804 819.234 44.192C819.07 44.225 818.909 44.2238 818.748 44.188C813.153 42.492 808.401 38.2921 806.03 32.9863C805.938 32.7587 805.952 32.5074 805.93 32.268C808.719 31.0484 811.526 29.8684 814.318 28.6528Z" fill="#898D9A"/>
<path d="M839.418 29.7741C839.652 29.6379 839.927 29.6961 840.181 29.7067C843.133 29.9501 846.088 30.1577 849.038 30.4025C849.272 30.384 849.405 30.6208 849.363 30.8284C848.953 36.6778 845.843 42.2641 841.101 45.7511C840.934 45.8595 840.752 45.9349 840.574 46.0196C838.765 43.6346 837.018 41.2033 835.222 38.8076C835.061 38.5814 834.871 38.3618 834.801 38.0893C834.845 37.9186 835.013 37.8313 835.134 37.7216C837.281 36.1422 838.761 33.7161 839.223 31.1089C839.308 30.667 839.318 30.2133 839.418 29.7741Z" fill="#898D9A"/>
<path d="M831.648 36.4915C831.839 36.3143 832.106 36.3764 832.232 36.5947C833.832 38.9374 835.411 41.296 837.007 43.6426C837.18 43.898 837.364 44.1506 837.494 44.435C837.367 44.7749 837.003 44.9151 836.725 45.1069C833.995 46.8093 830.862 47.8689 827.652 48.1665C826.327 48.1454 824.999 48.1295 823.676 48.1864C822.526 48.0356 821.375 47.8596 820.255 47.5501C820.067 47.5157 819.937 47.3742 819.797 47.2605C820.66 44.2471 821.475 41.2191 822.329 38.2031C822.365 37.9478 822.634 37.8024 822.866 37.9214C825.82 38.7548 829.107 38.1899 831.648 36.4915Z" fill="#898D9A"/>
<path d="M1064.3 39.3064C1057.99 43.9969 1048.84 46.4994 1040.97 46.4994C1029.92 46.4994 1019.98 42.3809 1012.46 35.5311C1011.87 34.9925 1012.4 34.2584 1013.11 34.6779C1021.23 39.4399 1031.26 42.3047 1041.63 42.3047C1048.62 42.3047 1056.31 40.846 1063.38 37.8192C1064.45 37.3616 1065.35 38.5246 1064.3 39.3064Z" fill="#898D9A"/>
<path d="M1066.93 36.2798C1066.12 35.2406 1061.6 35.7888 1059.56 36.0319C1058.94 36.1082 1058.85 35.5648 1059.41 35.1739C1063.01 32.6142 1068.93 33.353 1069.62 34.211C1070.31 35.0738 1069.44 41.0561 1066.05 43.9113C1065.53 44.3499 1065.04 44.1163 1065.27 43.5348C1066.03 41.6185 1067.74 37.3237 1066.93 36.2798Z" fill="#898D9A"/>
<path d="M1059.7 17.1033V14.615C1059.7 14.2385 1059.99 13.9858 1060.33 13.9858H1071.37C1071.73 13.9858 1072.01 14.2432 1072.01 14.615V16.7458C1072.01 17.1033 1071.71 17.5704 1071.18 18.3093L1065.46 26.551C1067.58 26.4985 1069.83 26.8179 1071.76 27.9143C1072.19 28.1621 1072.31 28.5244 1072.34 28.8819V31.537C1072.34 31.8993 1071.95 32.3235 1071.53 32.1042C1068.13 30.3072 1063.62 30.1117 1059.86 32.1233C1059.48 32.333 1059.07 31.9136 1059.07 31.5513V29.0297C1059.07 28.6245 1059.08 27.9333 1059.48 27.3184L1066.11 17.7277H1060.34C1059.99 17.7277 1059.7 17.4751 1059.7 17.1033Z" fill="#898D9A"/>
<path d="M1019.4 32.6291H1016.04C1015.72 32.6053 1015.47 32.3622 1015.44 32.0523V14.6585C1015.44 14.3105 1015.73 14.034 1016.09 14.034H1019.22C1019.55 14.0483 1019.81 14.301 1019.83 14.6156V16.8893H1019.89C1020.71 14.6918 1022.25 13.667 1024.32 13.667C1026.42 13.667 1027.74 14.6918 1028.68 16.8893C1029.5 14.6918 1031.34 13.667 1033.32 13.667C1034.73 13.667 1036.27 14.2533 1037.21 15.5689C1038.28 17.0323 1038.06 19.1583 1038.06 21.0221L1038.06 31.9999C1038.06 32.3479 1037.77 32.6291 1037.41 32.6291H1034.05C1033.72 32.6053 1033.45 32.3336 1033.45 31.9999V22.781C1033.45 22.0469 1033.51 20.2165 1033.35 19.5206C1033.1 18.3527 1032.35 18.0238 1031.38 18.0238C1030.56 18.0238 1029.71 18.572 1029.37 19.4491C1029.02 20.3261 1029.06 21.7943 1029.06 22.781V31.9999C1029.06 32.3479 1028.77 32.6291 1028.41 32.6291H1025.05C1024.71 32.6053 1024.45 32.3336 1024.45 31.9999L1024.44 22.781C1024.44 20.8409 1024.76 17.9857 1022.37 17.9857C1019.96 17.9857 1020.05 20.7694 1020.05 22.781V31.9999C1020.05 32.3479 1019.76 32.6291 1019.4 32.6291Z" fill="#898D9A"/>
<path d="M1081.52 13.6667C1086.51 13.6667 1089.21 17.9854 1089.21 23.4767C1089.21 28.7821 1086.23 32.9911 1081.52 32.9911C1076.63 32.9911 1073.96 28.6724 1073.96 23.2908C1073.96 17.8758 1076.66 13.6667 1081.52 13.6667ZM1081.55 17.218C1079.08 17.218 1078.92 20.6214 1078.92 22.7426C1078.92 24.8686 1078.89 29.4065 1081.52 29.4065C1084.13 29.4065 1084.25 25.7457 1084.25 23.5148C1084.25 22.0467 1084.19 20.2925 1083.75 18.9006C1083.37 17.6899 1082.62 17.218 1081.55 17.218Z" fill="#898D9A"/>
<path d="M1095.68 32.6291H1092.33C1091.99 32.6053 1091.72 32.3336 1091.72 31.9999L1091.72 14.6013C1091.75 14.2819 1092.03 14.034 1092.37 14.034H1095.48C1095.77 14.0483 1096.02 14.2485 1096.08 14.5202V17.1801H1096.14C1097.08 14.8015 1098.4 13.667 1100.72 13.667C1102.23 13.667 1103.7 14.2152 1104.65 15.7167C1105.53 17.1086 1105.53 19.4491 1105.53 21.1317V32.0809C1105.49 32.386 1105.21 32.6291 1104.88 32.6291H1101.51C1101.2 32.6053 1100.95 32.3765 1100.91 32.0809V22.6332C1100.91 20.7313 1101.13 17.9475 1098.81 17.9475C1097.99 17.9475 1097.24 18.5005 1096.87 19.3394C1096.39 20.4024 1096.33 21.4606 1096.33 22.6332V31.9999C1096.33 32.3479 1096.03 32.6291 1095.68 32.6291Z" fill="#898D9A"/>
<path d="M1050.9 24.3207V23.5867C1048.47 23.5867 1045.9 24.111 1045.9 26.9997C1045.9 28.463 1046.65 29.4545 1047.94 29.4545C1048.89 29.4545 1049.73 28.8682 1050.27 27.9149C1050.93 26.7423 1050.9 25.6411 1050.9 24.3207ZM1054.29 32.5815C1054.06 32.7817 1053.74 32.796 1053.49 32.6625C1052.38 31.7283 1052.18 31.2945 1051.56 30.4031C1049.72 32.3003 1048.41 32.8675 1046.02 32.8675C1043.2 32.8675 1040.99 31.1086 1040.99 27.586C1040.99 24.8356 1042.47 22.9622 1044.58 22.047C1046.4 21.2367 1048.95 21.0937 1050.9 20.8696V20.4311C1050.9 19.6255 1050.96 18.6722 1050.49 17.9762C1050.08 17.3518 1049.29 17.0944 1048.6 17.0944C1047.32 17.0944 1046.18 17.7569 1045.9 19.1298C1045.84 19.4348 1045.62 19.7351 1045.32 19.7494L1042.06 19.3967C1041.78 19.3347 1041.48 19.1107 1041.55 18.6865C1042.31 14.7015 1045.88 13.5002 1049.07 13.5002C1050.71 13.5002 1052.84 13.9388 1054.13 15.1877C1055.77 16.7273 1055.61 18.7818 1055.61 21.0174V26.2989C1055.61 27.8863 1056.27 28.5822 1056.88 29.4402C1057.1 29.7453 1057.15 30.1123 1056.87 30.3411C1056.19 30.9179 1054.97 31.9904 1054.29 32.591L1054.29 32.5815Z" fill="#898D9A"/>
<path d="M1006.83 24.3203V23.5862C1004.4 23.5862 1001.84 24.1105 1001.84 26.9992C1001.84 28.4626 1002.59 29.454 1003.88 29.454C1004.82 29.454 1005.67 28.8677 1006.2 27.9144C1006.87 26.7418 1006.83 25.6406 1006.83 24.3203ZM1010.22 32.581C1010 32.7812 1009.68 32.7955 1009.43 32.6621C1008.31 31.7278 1008.11 31.294 1007.5 30.4026C1005.66 32.2998 1004.35 32.867 1001.96 32.867C999.133 32.867 996.93 31.1081 996.93 27.5855C996.93 24.8351 998.409 22.9617 1000.51 22.0465C1002.34 21.2362 1004.89 21.0932 1006.83 20.8691V20.4306C1006.83 19.625 1006.89 18.6717 1006.43 17.9757C1006.02 17.3513 1005.23 17.0939 1004.54 17.0939C1003.26 17.0939 1002.12 17.7565 1001.84 19.1293C1001.78 19.4344 1001.56 19.7347 1001.26 19.749L997.993 19.3962C997.719 19.3342 997.417 19.1102 997.492 18.686C998.244 14.701 1001.81 13.4998 1005.01 13.4998C1006.64 13.4998 1008.78 13.9383 1010.07 15.1872C1011.71 16.7268 1011.55 18.7813 1011.55 21.0169V26.2985C1011.55 27.8858 1012.2 28.5817 1012.82 29.4397C1013.04 29.7448 1013.08 30.1118 1012.81 30.3407C1012.12 30.9174 1010.9 31.9899 1010.23 32.5906L1010.22 32.581Z" fill="#898D9A"/>
</svg>
