<svg width="930" height="41" viewBox="0 0 930 41" fill="none" xmlns="http://www.w3.org/2000/svg">
<path d="M87.5984 12.2652L84.3859 12.2736V28.7975H99.1184C100.73 28.1121 101.593 26.9272 101.926 25.5437H87.59L87.5984 12.2652ZM111.639 15.5671H123.928C125.636 15.2286 126.907 13.7176 127.264 12.2569H108.301C108.656 13.7176 109.946 15.2286 111.639 15.5671ZM71.8402 15.5211C73.5476 15.0238 74.986 13.7176 75.3362 12.2694H57.3037V22.0329H72.0633V25.4601L60.487 25.4706C58.6712 25.9763 57.1369 27.1967 56.3676 28.8101L57.3037 28.7933H75.2362V18.7875H60.487V15.5211H71.8402ZM108.798 28.7933H111.993V22.1416H123.628V28.7933H126.822V18.8167L108.798 18.8V28.7933ZM32.4666 15.5567H44.7538C46.4633 15.216 47.7328 13.7051 48.0893 12.2444H29.1291C29.4835 13.7051 30.7718 15.216 32.4666 15.5567ZM0.5 12.282C0.86899 13.7281 2.11772 15.2014 3.82925 15.5734H9.00137L9.26404 15.6779V28.7599H12.4953V15.6779L12.7872 15.5734H17.9655C19.6937 15.1262 20.9154 13.7281 21.2802 12.282V12.2506H0.5V12.282ZM32.4666 28.7954H44.7538C46.4633 28.4527 47.7328 26.946 48.0893 25.4831H29.1291C29.4835 26.946 30.7718 28.4527 32.4666 28.7954ZM32.4666 22.0872H44.7538C46.4633 21.7487 47.7328 20.2378 48.0893 18.777H29.1291C29.4835 20.2378 30.7718 21.7487 32.4666 22.0872Z" fill="#898D9A"/>
<path fill-rule="evenodd" clip-rule="evenodd" d="M205.257 15.2768L205.294 15.3251L203.21 18.6825L203.071 18.5167L202.974 18.4083L202.783 18.2074L202.628 18.0531C201.851 17.3017 200.362 16.1497 198.563 16.1868C196.203 16.2311 194.4 18.1744 194.4 20.4368C194.4 22.4249 195.606 24.6399 198.814 24.6896C200.658 24.7125 201.918 23.4025 202.563 22.4584L202.687 22.2688C202.761 22.1524 202.935 21.8654 203.178 21.4596L208.449 12.5392H212.715V28.368H208.789V25.9934L205.662 25.9804L205.244 25.983L205.13 25.9878L205.11 25.9916L205.113 25.9934L205.029 26.0871L204.928 26.1913L204.787 26.3299L204.667 26.4403L204.53 26.5618L204.374 26.6927C203.277 27.5924 200.981 29.0035 197.639 28.6777C194.283 28.3556 190.176 25.6928 190.176 20.3615C190.176 17.8305 192.074 12.3682 198.601 12.2216C202.62 12.1322 204.94 14.8771 205.257 15.2768ZM253.187 12.2083C255.334 12.2083 257.367 13.0362 258.933 14.5589C259.936 15.5372 260.646 16.6858 261.044 17.9303L261.043 12.539H264.728L270.855 21.3355V12.539H274.94V28.3786H271.351L265.127 19.5538V28.3786H261.043L261.044 22.949C260.665 24.188 260.006 25.3009 259.092 26.2323C257.53 27.8443 255.403 28.7185 253.163 28.7185C250.816 28.7185 248.804 27.8881 247.228 26.2664L247.228 28.3786H238.415V12.5419H242.47V24.8788L246.134 24.8796C245.307 23.5599 244.889 22.0331 244.889 20.298C244.889 18.102 245.744 16.083 247.329 14.5386C248.912 12.9912 250.9 12.2083 253.187 12.2083ZM172.198 12.5391C174.846 12.5391 176.696 12.8718 178.432 14.4313C179.679 15.5483 180.468 17.0633 180.75 18.9203L180.749 12.5391H189.821V16.0237L184.83 16.0293V18.6171L189.152 18.6133V22.0195L184.83 22.0239V24.8948H189.821V28.3679H180.749L180.751 22.0533C180.472 23.7856 179.698 25.2501 178.451 26.4182C176.672 28.0638 175.102 28.3786 172.757 28.3786H166.5V12.5391H172.198ZM223.978 12.5328V16.3195H220.813V28.3786H216.735V16.3195H213.567V12.5328H223.978ZM228.895 12.5375V18.5525H233.092V12.5375H237.17V28.3786H233.092V22.3177H228.895V28.3786H224.819V12.5375H228.895ZM172.198 15.9452H170.579V24.8999H172.217C175.338 24.8999 176.813 23.5218 176.813 20.4049C176.813 17.5528 175.194 15.9452 172.198 15.9452ZM253.209 16.1495C250.816 16.1495 248.935 18.0118 248.935 20.3411C248.935 22.8521 250.946 24.7727 253.163 24.7727C255.473 24.7727 257.351 22.937 257.351 20.3411C257.351 18.0118 255.473 16.1495 253.209 16.1495ZM208.87 19.0974L206.766 22.6821H208.87V19.0974Z" fill="#898D9A"/>
<path d="M332.204 29.1565C330.679 29.0745 329.541 28.447 328.876 27.3213C328.429 26.5656 328.293 25.5717 328.498 24.5562C328.724 23.4309 329.492 22.4169 330.672 21.6876C331.349 21.2682 331.929 21.0079 333.111 20.5927C333.408 20.4884 333.664 20.3923 333.68 20.3789C333.704 20.3601 333.707 20.2935 333.696 20.0775C333.662 19.4628 333.764 18.5051 333.938 17.814C334.23 16.6509 334.792 15.7127 335.538 15.1436C336.073 14.7347 336.775 14.4272 337.474 14.2954C337.859 14.2228 338.506 14.223 338.869 14.2961C340.425 14.6093 341.298 15.8086 340.954 17.1597C340.882 17.4446 340.653 17.9116 340.459 18.1699C339.963 18.8318 339.216 19.4203 338.162 19.9803C338.029 20.0509 337.596 20.264 337.198 20.4544C336.801 20.6446 336.463 20.8128 336.447 20.8285C336.425 20.8506 336.431 20.9152 336.474 21.1323C336.671 22.1365 337.004 22.9849 337.572 23.9337C337.797 24.3113 338.109 24.7874 338.145 24.8096C338.196 24.8413 338.406 24.5019 338.543 24.166C338.713 23.7504 338.81 23.2008 338.762 22.9277C338.728 22.7322 338.621 22.5257 338.484 22.3923C338.422 22.3307 338.37 22.2724 338.37 22.2628C338.37 22.2534 338.899 22.248 339.546 22.2514L340.723 22.2574L340.716 22.4066C340.707 22.6107 340.631 23.0457 340.551 23.3554C340.326 24.2262 339.902 24.9709 339.169 25.7842C339.083 25.8801 339.012 25.9742 339.012 25.9934C339.012 26.0126 339.134 26.146 339.282 26.2899C340.208 27.1881 341.85 28.224 343.186 28.7538C343.316 28.8054 343.422 28.8579 343.422 28.8704C343.421 28.8856 342.65 28.8955 341.167 28.8995L338.913 28.9053L338.784 28.8331C338.523 28.6859 337.943 28.2173 337.386 27.7025C337.268 27.5935 337.156 27.5043 337.137 27.5043C337.119 27.5043 336.988 27.5805 336.847 27.6737C336.123 28.151 335.258 28.5797 334.526 28.8237C333.694 29.1015 333.007 29.1998 332.204 29.1567V29.1565ZM334.102 27.2036C334.439 27.1434 334.853 27.021 335.235 26.8688C335.618 26.716 336.093 26.4823 336.11 26.438C336.117 26.4206 336.029 26.2738 335.915 26.1116C335.391 25.3644 334.83 24.3135 334.454 23.371C334.315 23.0236 334.056 22.254 334.006 22.0431C333.991 21.9758 333.962 21.9148 333.943 21.9075C333.891 21.8874 333.46 22.1168 333.088 22.3635C331.766 23.2401 331.132 24.3102 331.273 25.4283C331.335 25.9252 331.493 26.2874 331.779 26.5933C332.308 27.1586 333.135 27.3761 334.102 27.2036ZM336.346 19.4286C336.835 19.1421 337.612 18.4465 338.046 17.9058C338.601 17.2138 338.897 16.568 338.897 16.0443C338.897 15.7449 338.855 15.6108 338.716 15.4723C338.578 15.3346 338.423 15.2777 338.185 15.2774C337.48 15.2774 336.718 16.114 336.386 17.2522C336.219 17.826 336.178 18.1348 336.177 18.8358C336.176 19.3712 336.185 19.4903 336.225 19.4903C336.234 19.4903 336.288 19.4625 336.346 19.4286ZM348.002 29.1431C346.84 29.0262 346.075 28.8526 345.212 28.5107C344.037 28.045 343.303 27.4683 342.684 26.5234C342.498 26.2405 342.201 25.6466 342.08 25.3184C341.543 23.8559 341.425 22.0147 341.745 20.094C342.069 18.15 342.808 16.2765 343.827 14.812C344.488 13.8624 345.471 12.8622 346.486 12.107C348.162 10.8602 350.092 10.0937 352.235 9.82427C352.886 9.74249 353.25 9.72148 354.018 9.72193C355.18 9.7226 356.064 9.81109 357.233 10.0432C357.978 10.1916 359.166 10.512 359.188 10.5712C359.2 10.6012 358.448 13.0124 358.417 13.0448C358.407 13.0548 358.291 12.9777 358.16 12.8727C357.104 12.0303 356.008 11.5175 354.901 11.347C354.547 11.2925 353.883 11.2919 353.536 11.3457C351.983 11.5861 350.544 12.578 349.266 14.288C348.851 14.8435 348.394 15.588 348.038 16.287C347.556 17.2344 347.224 18.0718 346.889 19.1917C345.822 22.7548 345.768 25.2442 346.728 26.5918C347.124 27.147 347.703 27.5007 348.437 27.6359C348.858 27.7137 349.881 27.6665 349.983 27.5649C349.999 27.5488 350.499 25.9862 351.092 24.0925C352.068 20.982 352.174 20.6312 352.185 20.4549C352.2 20.218 352.156 20.0064 352.049 19.8026C351.953 19.6174 351.697 19.366 351.486 19.2492C351.395 19.1987 351.321 19.1495 351.32 19.1401C351.32 19.1307 352.958 19.1229 354.959 19.1229C356.961 19.1229 358.599 19.1307 358.599 19.1401C358.599 19.1495 358.51 19.198 358.402 19.2474C357.835 19.5066 357.424 19.8949 357.18 20.403C357.127 20.513 356.669 21.9359 355.981 24.1269L354.868 27.673L354.546 27.8272C353.235 28.4562 351.632 28.9091 350.033 29.1024C349.739 29.1381 348.248 29.1679 348.002 29.1431H348.002ZM314.501 28.8839C314.493 28.8722 314.542 28.8313 314.608 28.7931C315.004 28.5654 315.448 28.0931 315.636 27.6994C315.69 27.5854 320.683 11.6851 320.793 11.2742C320.812 11.2023 320.829 11.0503 320.829 10.9368C320.83 10.59 320.723 10.34 320.469 10.1C320.4 10.0345 320.343 9.97129 320.343 9.95945C320.343 9.92795 329.061 9.93063 329.461 9.96236C330.326 10.031 331.193 10.2611 331.856 10.5981C332.987 11.1734 333.665 12.0466 333.873 13.1981C333.931 13.5185 333.942 14.2313 333.895 14.5763C333.701 15.9826 333.063 17.4743 332.196 18.5536C330.79 20.3018 328.492 21.4197 325.671 21.7272C324.777 21.8246 323.65 21.8492 322.852 21.7884C322.621 21.7707 322.428 21.7611 322.422 21.7669C322.393 21.7955 320.594 27.5704 320.573 27.6994C320.51 28.0969 320.714 28.5438 321.067 28.7779C321.137 28.8242 321.188 28.8718 321.181 28.8834C321.163 28.9122 314.518 28.9125 314.501 28.8836L314.501 28.8839ZM324.396 20.3065C325.052 20.1903 325.63 19.9476 326.188 19.5551C326.459 19.3645 327.016 18.8083 327.245 18.4988C327.82 17.725 328.243 16.812 328.584 15.6095C328.801 14.8431 328.893 14.2592 328.893 13.6575C328.893 13.1936 328.851 12.9165 328.735 12.6057C328.561 12.1445 328.209 11.7801 327.761 11.5991C327.376 11.4436 327.048 11.4027 326.258 11.4118L325.662 11.4185L324.277 15.8276C323.516 18.2526 322.897 20.2484 322.902 20.2627C322.907 20.277 323.003 20.3011 323.114 20.3163C323.226 20.3315 323.333 20.3476 323.352 20.3523C323.438 20.3735 324.21 20.3398 324.396 20.3067V20.3065Z" fill="#898D9A"/>
<path fill-rule="evenodd" clip-rule="evenodd" d="M466.031 19.8385C466.031 19.8385 464.879 19.1258 464.166 18.85C464.166 18.85 461.96 17.8274 461.522 17.3409C461.522 17.3409 460.662 16.5305 461.165 15.5893C461.165 15.5893 461.376 14.9734 462.285 14.9734C462.285 14.9734 463.468 15.0385 463.468 16.0107V17.3823H467.707L467.7 15.3623C467.7 15.3623 468.026 12.0543 462.706 11.9087C462.706 11.9087 458.522 11.6336 457.322 13.8872C457.322 13.8872 456.851 14.39 456.851 16.1409V17.406C456.851 17.406 456.803 18.8655 457.548 19.806C457.548 19.806 457.97 20.4226 459.008 21.1029C459.008 21.1029 461.116 22.2378 462.381 22.8877C462.381 22.8877 463.658 23.6167 463.49 24.7768C463.49 24.7768 463.386 25.968 462.153 25.9192C462.153 25.9192 461.025 25.8689 461.025 24.7007V23.3299H456.507V25.321C456.507 25.321 456.381 29.1288 462.186 29.1288C462.186 29.1288 467.733 29.2412 467.991 25.2212V23.5997C467.991 23.5997 468.187 21.1361 466.031 19.8385ZM444.326 12.3826L442.906 21.2788H442.574L441.218 12.4625H434.137L433.782 28.5728H437.975L438.025 16.4344H438.355L440.577 28.5706H444.989L447.184 16.4389H447.476L447.577 28.5728H451.792L451.338 12.3826H444.326ZM419.366 12.4499L416.576 28.5543H421.09L422.743 16.0677H423.114L424.766 28.5543H429.279L426.49 12.4499H419.366ZM514.082 19.6167V21.9923H515.24V24.5424C515.24 25.789 514.175 25.812 514.175 25.812C512.879 25.812 512.928 24.6275 512.928 24.6275V15.8067C512.928 14.898 514.078 14.8492 514.078 14.8492C515.181 14.8492 515.188 15.9331 515.188 15.9331V17.2743H519.438C519.577 14.6562 519.055 14.0226 519.055 14.0226C518.001 11.6551 514.013 11.7845 514.013 11.7845C507.884 11.7845 508.564 16.4869 508.564 16.4869V25.0157C508.696 29.426 514.735 28.978 514.837 28.9743C517.523 28.6771 518.334 27.8231 518.334 27.8231C519.081 27.2685 519.273 26.5003 519.273 26.5003C519.487 26.053 519.54 24.6275 519.54 24.6275V19.6167H514.082ZM499.995 22.2378H499.81L495.497 12.387H490.337V28.5743H494.537L494.285 18.725H494.473L498.941 28.5743H503.945V12.3856H499.692L499.995 22.2378ZM480.085 24.541C480.085 24.541 480.146 25.8696 478.914 25.8696C478.914 25.8696 477.619 25.9391 477.619 24.5742L477.606 12.3967H472.999V24.4774C472.999 24.4774 472.527 29.0497 478.979 29.0497C478.979 29.0497 484.587 29.1162 484.587 24.6874V12.3974H480.085V24.541ZM410.584 19.8385C410.584 19.8385 409.433 19.1258 408.72 18.8507C408.72 18.8507 406.515 17.8289 406.077 17.3416C406.077 17.3416 405.217 16.5298 405.722 15.5908C405.722 15.5908 405.932 14.9749 406.839 14.9749C406.839 14.9749 408.023 15.0392 408.023 16.0115V17.383H412.264L412.256 15.3623C412.256 15.3623 412.58 12.0543 407.262 11.9094C407.262 11.9094 406.862 11.8835 406.274 11.9131C406.274 11.9131 403.052 12.0861 401.9 13.8532C401.894 13.8665 401.884 13.8762 401.878 13.888C401.878 13.888 401.407 14.39 401.407 16.1416V17.4067C401.407 17.4067 401.358 18.8662 402.105 19.8067C402.105 19.8067 402.526 20.4234 403.564 21.1036C403.564 21.1036 405.671 22.2385 406.936 22.8885C406.936 22.8885 408.215 23.616 408.045 24.7776C408.045 24.7776 407.941 25.9687 406.709 25.9199C406.709 25.9199 405.581 25.8696 405.581 24.7014V23.3299H401.063V25.3225C401.063 25.3225 400.936 29.1303 406.741 29.1303C406.741 29.1303 412.287 29.2427 412.548 25.2227V23.6027C412.548 23.6012 412.741 21.1361 410.584 19.8385Z" fill="#898D9A"/>
<path fill-rule="evenodd" clip-rule="evenodd" d="M604.119 15.7108C605.113 15.1756 606.106 14.9075 607.37 14.9075C610.441 14.9075 612.789 17.5866 612.789 21.247C612.789 25.8901 609.899 28.8369 605.112 28.8369C603.396 28.8369 601.679 28.5688 600.053 28.2114C600.144 26.3361 600.235 14.9075 600.053 12.7646C599.874 11.6926 599.602 11.2466 598.79 11.0682L598.158 10.979V10.4433L604.21 9.37231C604.119 10.2648 604.119 12.8538 604.119 15.7108ZM604.209 27.7654C604.479 27.8541 604.931 27.8541 605.293 27.8541C607.19 27.8541 608.545 25.0868 608.545 21.5141C608.545 18.6576 607.461 16.3362 605.473 16.3362C605.021 16.3362 604.66 16.4255 604.118 16.6044C604.028 21.247 604.118 26.5156 604.209 27.7654ZM559.5 9.72912H575.397L575.487 14.9972L574.584 15.2653C573.681 12.5862 572.417 11.0687 569.977 11.0687H566.817C566.726 12.7651 566.636 15.6221 566.636 18.6581L568.803 18.5684C570.158 18.5684 570.789 17.4974 571.061 15.9794H571.874V22.3169H571.061C570.789 20.7994 570.158 19.728 568.803 19.728L566.635 19.6388C566.635 21.9596 566.725 23.8349 566.816 24.9961C566.997 26.6929 567.448 27.4963 568.622 27.585L569.706 27.7644V28.4785H559.5V27.7644L560.403 27.585C561.577 27.4968 562.029 26.6929 562.209 24.9961C562.39 22.2292 562.481 16.4249 562.209 13.2106C562.029 11.5142 561.577 10.8001 560.403 10.6217L559.5 10.5325V9.72912ZM587.32 21.783C587.32 17.7653 585.062 14.7294 580.546 14.7294C576.03 14.7294 573.501 17.9438 573.501 21.783C573.501 25.8013 575.759 28.8377 580.275 28.8377C584.791 28.8377 587.32 25.6223 587.32 21.783ZM577.746 21.783C577.746 18.3011 578.288 15.6224 580.275 15.6224C582.172 15.6224 583.075 18.3903 583.075 21.783C583.075 25.265 582.532 27.9436 580.456 27.9436C578.649 27.9436 577.746 25.1758 577.746 21.783ZM620.918 14.7294C616.312 14.7294 613.964 18.2119 613.964 21.8728C613.964 25.9802 616.854 28.8372 620.918 28.8377C623.447 28.8377 625.434 27.5868 626.337 26.337L625.977 25.891C625.073 26.5164 624.35 26.8727 622.905 26.8727C619.653 26.8727 618.027 24.4617 618.118 21.1581H626.518C626.518 17.4977 624.711 14.7294 620.918 14.7294ZM622.363 20.0867L618.118 20.1764C618.208 18.1222 619.022 15.6224 620.557 15.6224C622.092 15.6224 622.363 18.3011 622.363 20.0867ZM633.113 14.7294C634.739 14.7294 636.184 14.997 637.268 15.444L637.36 18.926L636.728 19.1044C635.914 16.6934 634.83 15.7111 633.206 15.7111C632.122 15.7111 631.308 16.515 631.308 17.6756C631.308 18.8368 632.21 19.4617 634.74 20.4435C637.088 21.337 638.082 22.408 638.082 24.2833C638.082 27.0506 635.823 28.8372 632.301 28.8372C630.584 28.8372 628.598 28.4794 627.514 28.0334L627.423 24.1049L628.056 23.9254C629.049 26.6046 630.314 27.5863 632.03 27.5863C633.475 27.5863 634.288 26.6046 634.288 25.5331C634.288 24.4617 633.655 23.8362 631.398 23.0334C629.228 22.3188 627.694 21.337 627.694 19.0152C627.694 16.6934 629.772 14.7294 633.113 14.7294ZM593.372 17.8551C594.816 14.6402 597.526 14.1947 599.061 15.0867L597.616 18.7481C595.81 17.5875 593.823 18.1227 593.372 18.7481C593.281 20.891 593.281 24.2838 593.461 25.9807C593.552 27.0511 593.823 27.5868 594.726 27.6766L595.81 27.7663V28.4804H587.41V27.7663L588.043 27.6766C588.856 27.5868 589.217 27.0511 589.307 25.9807C589.398 24.1059 589.488 20.3553 589.307 18.2124C589.217 17.0512 588.856 16.6052 588.043 16.5155L587.41 16.4263V15.8906L593.461 14.7299L593.372 17.8551Z" fill="#898D9A"/>
<path d="M721.993 10.5014C723.509 10.5046 725.024 10.4939 726.54 10.5067C726.532 14.8235 726.534 19.1402 726.538 23.4569C728.363 23.4558 730.187 23.458 732.013 23.4558V27.3063C728.675 27.3084 725.336 27.3021 721.998 27.3095C721.986 21.7068 721.997 16.1041 721.993 10.5014Z" fill="#898D9A"/>
<path d="M750.101 10.498C751.615 10.5044 753.128 10.5002 754.64 10.5002C754.641 14.819 754.64 19.1378 754.641 23.4556C756.468 23.461 758.295 23.4482 760.121 23.462C760.113 24.7437 760.119 26.0244 760.119 27.3051C756.779 27.3062 753.438 27.3072 750.098 27.3051C750.102 21.7025 750.094 16.1008 750.101 10.498Z" fill="#898D9A"/>
<path d="M738.197 13.6856C739.296 13.4817 740.47 13.5114 741.517 13.9202C742.246 14.2038 742.862 14.6891 743.456 15.1744C743.465 14.722 743.457 14.2697 743.466 13.8172C744.859 13.8247 746.253 13.8183 747.646 13.8204C747.641 18.3092 747.654 22.799 747.64 27.2889C746.221 27.3324 744.798 27.2952 743.378 27.3058C743.378 26.8875 743.38 26.469 743.377 26.0517C742.259 27.035 740.776 27.6477 739.253 27.6287C737.479 27.6594 735.659 27.0064 734.478 25.7034C733.243 24.3664 732.736 22.5378 732.725 20.7782C732.687 19.2363 733.152 17.6827 734.057 16.4084C735.012 15.0405 736.508 14.0052 738.197 13.6856ZM739.524 17.4384C738.539 17.6285 737.687 18.3156 737.301 19.2065C736.669 20.6709 737.106 22.6174 738.533 23.4998C739.846 24.3005 741.722 23.9787 742.738 22.8659C743.984 21.5587 743.837 19.2755 742.448 18.1169C741.665 17.4459 740.535 17.2154 739.524 17.4384Z" fill="#898D9A"/>
<path d="M770.462 14.7569C771.733 13.7417 773.469 13.387 775.08 13.6376C776.286 13.7937 777.337 14.4681 778.167 15.2963C778.176 14.8046 778.172 14.313 778.172 13.8213C779.521 13.8202 780.87 13.816 782.22 13.8235C782.217 17.8407 782.22 21.8569 782.219 25.8742C782.198 27.3874 781.661 28.9272 780.556 30.0252C779.278 31.3197 777.416 31.9345 775.596 32.0184C773.726 32.1066 771.757 31.72 770.242 30.6103C769.147 29.8288 768.397 28.6117 768.228 27.3056C769.799 27.3141 771.371 27.2929 772.941 27.3152C773.22 27.6263 773.462 27.997 773.86 28.1817C774.429 28.4525 775.093 28.4291 775.711 28.3771C776.505 28.291 777.355 27.9534 777.751 27.243C778.096 26.6578 777.946 25.9655 777.985 25.3262C776.827 26.2575 775.355 26.9138 773.824 26.8575C772.352 26.8384 770.894 26.2458 769.877 25.2157C768.494 23.8618 767.896 21.9057 767.962 20.0357C768.018 18.0563 768.836 16.0217 770.462 14.7569ZM774.43 17.1218C773.372 17.28 772.54 18.1189 772.256 19.0906C771.903 20.262 772.044 21.6669 772.933 22.5886C774.022 23.7525 776.102 23.6526 777.213 22.5696C778.462 21.4131 778.5 19.3307 777.428 18.0554C776.715 17.2174 775.501 16.9604 774.43 17.1218Z" fill="#898D9A"/>
<path d="M787.1 14.6689C788.513 13.7057 790.346 13.3404 792.041 13.6929C793.069 13.9053 793.946 14.5064 794.719 15.1679C794.713 14.7198 794.714 14.2706 794.714 13.8225C796.118 13.8225 797.523 13.8119 798.926 13.8278V27.3026C797.504 27.3111 796.08 27.3068 794.658 27.3047C794.66 26.8853 794.66 26.4658 794.657 26.0474C794.184 26.435 793.684 26.8014 793.119 27.0551C791.637 27.7688 789.871 27.7794 788.311 27.3068C786.901 26.8747 785.691 25.9019 784.979 24.6541C784.132 23.1961 783.897 21.4737 784.039 19.8266C784.25 17.7984 785.356 15.8434 787.1 14.6689ZM790.738 17.4532C789.589 17.69 788.654 18.6214 788.399 19.7215C788.074 21.067 788.521 22.6609 789.743 23.4616C791.13 24.3547 793.187 23.9564 794.176 22.679C795.219 21.3728 795.052 19.3148 793.803 18.1859C793 17.4565 791.801 17.1952 790.738 17.4532Z" fill="#898D9A"/>
<path d="M763.422 8.01929C764.668 7.67205 766.115 8.37713 766.519 9.57501C766.859 10.5063 766.558 11.6245 765.778 12.267C765.031 12.9137 763.879 13.0825 762.973 12.6641C761.972 12.2224 761.392 11.1021 761.571 10.0635C761.694 9.10671 762.453 8.26243 763.422 8.01929ZM761.956 13.8227C763.361 13.8142 764.765 13.8227 766.17 13.8184C766.172 18.3146 766.172 22.8108 766.17 27.307C764.765 27.3037 763.361 27.3112 761.956 27.3027C761.961 22.8098 761.96 18.3157 761.956 13.8227Z" fill="#898D9A"/>
<path d="M694.677 1.44214H695.156C695.619 3.76955 696.03 6.10695 696.482 8.43666C696.567 8.81569 696.616 9.20252 696.621 9.59147C694.005 10.0126 691.6 11.6064 690.27 13.8928C690.187 14.1267 689.924 14.2031 689.724 14.0491C687.546 12.8067 685.382 11.5398 683.205 10.2942C683.073 10.19 682.815 10.1013 682.912 9.88964C683.028 9.55608 683.251 9.27339 683.439 8.97752C684.779 6.92271 686.577 5.16829 688.656 3.85493C690.487 2.67897 692.554 1.90983 694.677 1.44214Z" fill="#898D9A"/>
<path d="M698.117 3.41617C702.402 3.0105 706.82 4.25512 710.241 6.85194C710.569 7.11569 710.936 7.34405 711.208 7.66877C711.352 7.8428 711.151 8.01454 711.052 8.14752C709.55 9.8654 708.051 11.5866 706.552 13.3056C706.359 13.5173 706.194 13.7578 705.968 13.9362C705.749 14.0547 705.59 13.8442 705.429 13.7312C703.737 12.3159 701.488 11.5889 699.282 11.703C698.908 11.7152 698.541 11.8027 698.167 11.7939C698.048 11.6753 698.011 11.5135 697.987 11.355C697.667 9.15502 697.334 6.95732 697.008 4.75838C696.959 4.39483 696.87 4.03136 696.89 3.66338C697.247 3.42732 697.709 3.48607 698.117 3.41617Z" fill="#898D9A"/>
<path d="M695.662 14.72C697.435 14.4573 699.306 14.9783 700.697 16.0988C702.022 17.1516 702.916 18.7343 703.099 20.4122C703.278 21.8608 702.948 23.3681 702.17 24.6071C701.301 26.0136 699.876 27.0698 698.268 27.4887C696.833 27.8633 695.267 27.7524 693.911 27.1484C692.436 26.5012 691.219 25.2987 690.566 23.8345C689.812 22.1599 689.816 20.1649 690.581 18.4937C691.477 16.4833 693.464 15.0026 695.662 14.72ZM691.694 17.7046C691.918 17.5982 692.139 17.4874 692.364 17.3832C692.081 18.026 691.904 18.7243 691.964 19.4302C692.55 19.7106 693.167 19.9322 693.726 20.2669C693.09 20.1816 692.466 20.0231 691.836 19.9001C691.353 20.4388 691.059 21.1148 690.913 21.8175C690.797 21.6081 690.689 21.3952 690.57 21.188C690.572 22.447 690.998 23.695 691.748 24.7091C691.7 24.4774 691.657 24.2446 691.619 24.0119C692.175 24.4409 692.77 24.852 693.473 25.0005C693.923 24.5272 694.327 24.0042 694.828 23.5819C694.54 24.1648 694.191 24.7156 693.878 25.2864C694.251 25.8848 694.789 26.3615 695.397 26.7172C695.165 26.7738 694.935 26.8347 694.7 26.8735C695.327 27.0109 695.961 27.1406 696.607 27.1517C697.22 27.125 697.827 27.0253 698.419 26.8657C698.191 26.818 697.962 26.7759 697.734 26.7305C698.329 26.3725 698.885 25.9237 699.245 25.323C699.031 24.7112 698.572 24.2047 698.353 23.5896C698.828 24.033 699.236 24.5439 699.697 25.0039C700.383 24.8276 700.996 24.4542 701.526 23.9919C701.495 24.2336 701.462 24.4751 701.425 24.7168C702.137 23.6727 702.585 22.4436 702.578 21.1735C702.471 21.3919 702.356 21.6057 702.238 21.8185C702.09 21.1202 701.796 20.4486 701.32 19.9067C700.695 20.0252 700.072 20.1649 699.445 20.2757C699.975 19.8978 700.63 19.7481 701.182 19.409C701.263 18.7119 701.059 18.0225 700.787 17.3874C701.001 17.4883 701.214 17.5914 701.426 17.6977C700.692 16.6603 699.6 15.8956 698.39 15.5033C698.576 15.6818 698.762 15.8601 698.946 16.043C698.227 15.951 697.492 16.032 696.82 16.3023C696.732 16.9329 696.719 17.5791 696.56 18.1975C696.469 17.5692 696.407 16.9363 696.334 16.3046C695.666 16.0408 694.934 15.9432 694.221 16.0463C694.387 15.8656 694.559 15.6895 694.728 15.5099C693.515 15.9059 692.457 16.6939 691.694 17.7046Z" fill="#898D9A"/>
<path d="M693.906 20.3074C694.799 19.6669 695.686 19.0129 696.586 18.3801C697.471 19.0341 698.377 19.6613 699.26 20.3186C698.914 21.3637 698.571 22.4089 698.232 23.4551C697.132 23.4573 696.033 23.4529 694.933 23.4573C694.583 22.4099 694.233 21.3625 693.906 20.3074Z" fill="#898D9A"/>
<path d="M680.022 10.1248C680.156 10.0417 680.294 10.1681 680.415 10.2146C682.638 11.4038 684.864 12.5853 687.088 13.7711C687.312 13.8576 687.402 14.1125 687.242 14.3032C686.015 16.5497 685.862 19.326 686.809 21.7C686.941 21.9017 686.743 22.0879 686.553 22.1466C684.433 22.9612 682.311 23.7692 680.19 24.5827C679.859 24.7035 679.539 24.8598 679.194 24.9384C679.088 24.8919 679.012 24.8177 678.966 24.7146C677.133 20.114 677.461 14.7333 679.808 10.3721C679.854 10.2634 679.925 10.1813 680.022 10.1248Z" fill="#898D9A"/>
<path d="M710.61 10.5881C710.876 10.4296 711.101 10.7654 711.28 10.9206C714.783 14.3375 716.707 19.2817 716.4 24.1482C716.362 24.1981 716.286 24.2956 716.248 24.3444C713.72 24.2635 711.193 24.1005 708.665 23.9997C708.455 23.972 708.176 24.0185 708.032 23.8268C707.997 23.461 708.03 23.0942 708.012 22.7284C707.902 20.4686 706.873 18.2675 705.204 16.727C704.99 16.574 705.101 16.2947 705.267 16.1562C707.055 14.3076 708.807 12.4213 710.61 10.5881Z" fill="#898D9A"/>
<path d="M684.528 24.0065C684.706 23.9477 684.911 23.8136 685.095 23.9256C685.183 24.0397 685.242 24.1727 685.307 24.3024C686.218 26.3007 687.927 27.9221 689.963 28.7656C690.301 28.9152 690.668 28.9894 690.994 29.1635C691.059 29.343 690.998 29.5314 690.948 29.7065C690.176 32.1448 689.415 34.5864 688.647 37.0258C688.51 37.0535 688.375 37.0524 688.24 37.0224C683.552 35.6015 679.571 32.0826 677.584 27.6372C677.507 27.4466 677.519 27.236 677.5 27.0354C679.837 26.0136 682.189 25.0249 684.528 24.0065Z" fill="#898D9A"/>
<path d="M705.56 24.9458C705.756 24.8316 705.986 24.8804 706.199 24.8892C708.672 25.0932 711.148 25.2671 713.62 25.4722C713.816 25.4567 713.927 25.6551 713.893 25.829C713.549 30.7299 710.943 35.4103 706.97 38.3318C706.83 38.4227 706.677 38.4859 706.529 38.5568C705.013 36.5586 703.549 34.5215 702.044 32.5143C701.909 32.3248 701.751 32.1409 701.691 31.9125C701.728 31.7695 701.869 31.6964 701.971 31.6044C703.769 30.2812 705.009 28.2485 705.397 26.064C705.468 25.6939 705.476 25.3138 705.56 24.9458Z" fill="#898D9A"/>
<path d="M699.05 30.5739C699.21 30.4255 699.434 30.4775 699.539 30.6604C700.88 32.6232 702.203 34.5993 703.541 36.5654C703.686 36.7793 703.84 36.991 703.948 37.2292C703.842 37.514 703.537 37.6315 703.304 37.7922C701.016 39.2186 698.392 40.1063 695.702 40.3557C694.593 40.338 693.48 40.3246 692.371 40.3723C691.407 40.246 690.443 40.0986 689.505 39.8392C689.348 39.8104 689.238 39.6918 689.121 39.5965C689.845 37.0718 690.527 34.5349 691.242 32.008C691.272 31.794 691.498 31.6722 691.692 31.7719C694.167 32.4702 696.922 31.9969 699.05 30.5739Z" fill="#898D9A"/>
<path d="M894.682 32.7555C889.404 36.6642 881.754 38.7497 875.167 38.7497C865.931 38.7497 857.617 35.3176 851.326 29.6094C850.832 29.1606 851.275 28.5488 851.868 28.8984C858.656 32.8667 867.05 35.2541 875.72 35.2541C881.568 35.2541 888.001 34.0385 893.915 31.5161C894.809 31.1348 895.556 32.104 894.682 32.7555Z" fill="#898D9A"/>
<path d="M896.88 30.2335C896.208 29.3676 892.42 29.8244 890.72 30.027C890.202 30.0905 890.123 29.6377 890.589 29.312C893.606 27.1788 898.556 27.7945 899.133 28.5096C899.71 29.2285 898.983 34.2138 896.148 36.5932C895.713 36.9586 895.298 36.764 895.492 36.2793C896.128 34.6825 897.556 31.1035 896.88 30.2335Z" fill="#898D9A"/>
<path d="M890.834 14.2527V12.1791C890.834 11.8653 891.072 11.6548 891.356 11.6548H900.596C900.893 11.6548 901.13 11.8693 901.13 12.1791V13.9547C901.126 14.2527 900.877 14.6419 900.434 15.2576L895.646 22.1257C897.425 22.082 899.303 22.3482 900.916 23.2618C901.28 23.4684 901.379 23.7703 901.407 24.0682V26.2807C901.407 26.5826 901.074 26.9362 900.727 26.7534C897.884 25.2559 894.108 25.093 890.965 26.7693C890.645 26.9441 890.309 26.5945 890.309 26.2927V24.1913C890.309 23.8537 890.313 23.2777 890.649 22.7653L896.196 14.773H891.368C891.072 14.773 890.834 14.5625 890.834 14.2527Z" fill="#898D9A"/>
<path d="M857.133 27.1909H854.322C854.054 27.171 853.84 26.9685 853.82 26.7103V12.2154C853.82 11.9254 854.061 11.695 854.362 11.695H856.983C857.256 11.7069 857.474 11.9175 857.493 12.1796V14.0744H857.545C858.229 12.2432 859.514 11.3892 861.245 11.3892C863.005 11.3892 864.104 12.2432 864.895 14.0744C865.575 12.2432 867.12 11.3892 868.777 11.3892C869.955 11.3892 871.244 11.8778 872.031 12.9741C872.92 14.1936 872.739 15.9652 872.739 17.5184L872.735 26.6666C872.735 26.9565 872.494 27.1909 872.193 27.1909H869.386C869.105 27.171 868.88 26.9446 868.88 26.6666V18.9842C868.88 18.3724 868.935 16.8471 868.801 16.2671C868.591 15.2939 867.963 15.0198 867.148 15.0198C866.468 15.0198 865.756 15.4766 865.468 16.2075C865.179 16.9384 865.207 18.1619 865.207 18.9842V26.6666C865.207 26.9565 864.966 27.1909 864.665 27.1909H861.858C861.573 27.171 861.352 26.9446 861.352 26.6666L861.348 18.9842C861.348 17.3674 861.613 14.988 859.616 14.988C857.596 14.988 857.675 17.3079 857.675 18.9842V26.6666C857.675 26.9565 857.434 27.1909 857.133 27.1909Z" fill="#898D9A"/>
<path d="M909.088 11.3892C913.259 11.3892 915.516 14.988 915.516 19.5641C915.516 23.9853 913.021 27.4928 909.088 27.4928C904.992 27.4928 902.762 23.8939 902.762 19.4092C902.762 14.8967 905.019 11.3892 909.088 11.3892ZM909.111 14.3485C907.04 14.3485 906.909 17.1847 906.909 18.9524C906.909 20.724 906.881 24.5056 909.088 24.5056C911.266 24.5056 911.369 21.4549 911.369 19.5959C911.369 18.3724 911.317 16.9106 910.95 15.7507C910.633 14.7418 910.005 14.3485 909.111 14.3485Z" fill="#898D9A"/>
<path d="M920.923 27.1911H918.123C917.843 27.1713 917.617 26.9449 917.617 26.6668L917.613 12.168C917.637 11.9018 917.87 11.6953 918.155 11.6953H920.76C921.006 11.7072 921.207 11.874 921.263 12.1004V14.317H921.314C922.101 12.3348 923.204 11.3894 925.145 11.3894C926.406 11.3894 927.636 11.8462 928.427 13.0975C929.162 14.2574 929.162 16.2078 929.162 17.61V26.7343C929.13 26.9886 928.897 27.1911 928.62 27.1911H925.801C925.544 27.1713 925.331 26.9806 925.303 26.7343V18.8613C925.303 17.2763 925.485 14.9565 923.544 14.9565C922.86 14.9565 922.231 15.4173 921.919 16.1164C921.523 17.0022 921.472 17.8841 921.472 18.8613V26.6668C921.468 26.9568 921.223 27.1911 920.923 27.1911Z" fill="#898D9A"/>
<path d="M883.47 20.2676V19.6558C881.438 19.6558 879.291 20.0928 879.291 22.5C879.291 23.7195 879.92 24.5457 880.999 24.5457C881.79 24.5457 882.498 24.0571 882.945 23.2627C883.498 22.2855 883.47 21.3679 883.47 20.2676ZM886.305 27.1515C886.119 27.3184 885.851 27.3303 885.641 27.2191C884.708 26.4405 884.542 26.079 884.028 25.3362C882.486 26.9172 881.395 27.3899 879.394 27.3899C877.03 27.3899 875.188 25.9241 875.188 22.9886C875.188 20.6966 876.425 19.1355 878.184 18.3728C879.71 17.6975 881.842 17.5783 883.47 17.3916V17.0262C883.47 16.3549 883.522 15.5604 883.13 14.9805C882.786 14.4601 882.13 14.2456 881.553 14.2456C880.481 14.2456 879.525 14.7977 879.291 15.9418C879.244 16.196 879.058 16.4462 878.805 16.4582L876.077 16.1642C875.848 16.1126 875.595 15.9259 875.658 15.5723C876.287 12.2515 879.272 11.2505 881.944 11.2505C883.312 11.2505 885.099 11.6159 886.179 12.6567C887.547 13.9397 887.416 15.6518 887.416 17.5148V21.9161C887.416 23.2388 887.962 23.8188 888.476 24.5338C888.658 24.788 888.697 25.0939 888.468 25.2846C887.895 25.7652 886.875 26.659 886.313 27.1595L886.305 27.1515Z" fill="#898D9A"/>
<path d="M846.619 20.2671V19.6554C844.587 19.6554 842.44 20.0923 842.44 22.4995C842.44 23.719 843.068 24.5452 844.148 24.5452C844.939 24.5452 845.646 24.0566 846.093 23.2622C846.647 22.285 846.619 21.3674 846.619 20.2671ZM849.454 27.1511C849.268 27.3179 848.999 27.3298 848.789 27.2186C847.856 26.44 847.69 26.0785 847.176 25.3357C845.634 26.9167 844.543 27.3894 842.543 27.3894C840.178 27.3894 838.336 25.9236 838.336 22.9881C838.336 20.6961 839.573 19.135 841.333 18.3723C842.859 17.697 844.99 17.5779 846.619 17.3912V17.0257C846.619 16.3544 846.67 15.5599 846.279 14.98C845.935 14.4596 845.279 14.2451 844.701 14.2451C843.63 14.2451 842.673 14.7972 842.44 15.9413C842.392 16.1955 842.207 16.4457 841.954 16.4577L839.226 16.1637C838.996 16.1121 838.743 15.9254 838.806 15.5718C839.435 12.251 842.42 11.25 845.093 11.25C846.461 11.25 848.248 11.6155 849.327 12.6562C850.695 13.9392 850.565 15.6513 850.565 17.5143V21.9156C850.565 23.2384 851.11 23.8183 851.624 24.5333C851.806 24.7875 851.846 25.0934 851.616 25.2841C851.043 25.7647 850.023 26.6585 849.462 27.159L849.454 27.1511Z" fill="#898D9A"/>
</svg>
