<svg width="56" height="56" viewBox="0 0 56 56" fill="none" xmlns="http://www.w3.org/2000/svg">
<path d="M19 28.5C18.8 28.5 18.6 28.7 18.6 28.9V30.1C18.6 30.3 18.8 30.5 19 30.5C19.3 30.5 19.6 30.6 19.9 30.8C20.8 31.2 21.5 32.1 21.6 33.1C21.6 33.3 21.8 33.5 22 33.5H23.2C23.4 33.5 23.6 33.3 23.6 33.1C23.3 30.8 21.6 28.8 19 28.5Z" fill="#FF642D"/>
<path d="M18.6 44C15.9 44 13.2 43 11.2 40.9C7.1 36.8 7.1 30.1 11.2 26.1C15.3 22.1 22 22 26 26.1C30 30.2 30.1 36.9 26 40.9C23.9 43 21.2 44 18.6 44ZM18.6 26C16.7 26 14.8 26.7 13.3 28.2C10.4 31.1 10.4 35.9 13.3 38.8C16.2 41.7 21 41.7 23.9 38.8C26.8 35.9 26.8 31.1 23.9 28.2C22.4 26.7 20.5 26 18.6 26Z" fill="#FF642D"/>
<path d="M32 46.1L30.4 47.7C30.2 47.9 30 47.9 29.8 47.7L23.4 41.3L25.5 39.2L31.9 45.6C32.1 45.7 32.1 45.9 32 46.1Z" fill="#FF642D"/>
<path d="M40.4 37.2C42 35.6 44.1 34.8 46.2 34.9C46.4 34.9 46.5 34.8 46.6 34.7L47.7 32.1C47.8 31.9 47.7 31.8 47.6 31.7C46.1 30.2 45.1 28.2 45.1 26C45.1 23.7 46 21.7 47.6 20.3C47.7 20.2 47.8 20 47.7 19.9L46.6 17.3C46.5 17.1 46.4 17.1 46.2 17.1C44.1 17.1 42 16.4 40.4 14.8C38.8 13.2 38 11.1 38.1 9.00001C38.1 8.80001 38 8.70001 37.9 8.60001L35.3 7.50001C35.1 7.40001 35 7.50001 34.9 7.60001C33.4 9.10001 31.4 10.1 29.2 10.1C26.9 10.1 24.9 9.20001 23.5 7.60001C23.4 7.50001 23.2 7.40001 23.1 7.50001L20.5 8.60001C20.3 8.70001 20.3 8.80001 20.3 9.00001C20.3 11.1 19.6 13.2 18 14.8C16.4 16.4 14.3 17.2 12.2 17.1C12 17.1 11.9 17.2 11.8 17.3L10.9 19.5C10.8 19.7 11 20 11.2 20.1C14.4 20.4 17.6 19.4 20.1 16.9C21.7 15.3 22.7 13.3 23.1 11.2C23.7 11.6 24.4 12 25.1 12.3C26.4 12.8 27.8 13.1 29.3 13.1C31.6 13.1 33.7 12.4 35.5 11.2C35.9 13.3 36.9 15.3 38.5 16.9C39.5 17.9 40.7 18.7 42.1 19.3C42.8 19.6 43.5 19.8 44.2 19.9C43 21.7 42.3 23.8 42.3 26.1C42.3 28.4 43 30.5 44.2 32.3C42.1 32.7 40.1 33.7 38.5 35.3C36.4 37.4 35.3 40.1 35.3 43.1C35.3 43.6 35.4 44.2 35.4 44.7L38 43.6C38.2 43.5 38.2 43.4 38.2 43.2C38.1 40.9 38.8 38.8 40.4 37.2Z" fill="#421983"/>
<path d="M30.2 17C27 16.8 24.2 18.2 22.6 20.6C22.4 20.8 22.6 21.1 22.8 21.2L24 21.6C24.2 21.7 24.3 21.6 24.4 21.5C25.6 19.9 27.6 18.9 29.8 19C33 19.1 35.7 21.7 36 24.9C36.3 28 34.4 30.6 31.8 31.6C31.6 31.7 31.5 31.8 31.5 32V33.3C31.5 33.6 31.8 33.8 32 33.7C35.7 32.6 38.3 29 38 24.9C37.7 20.7 34.3 17.3 30.2 17Z" fill="#421983"/>
</svg>
